<svg width="45" height="44" viewBox="0 0 45 44" fill="none" xmlns="http://www.w3.org/2000/svg">
<path d="M22.5 34.2222L13.5 44V34.2222H4.5C3.30653 34.2222 2.16193 33.7071 1.31802 32.7903C0.474106 31.8735 0 30.6299 0 29.3333V4.88889C0 2.2 2.025 0 4.5 0H40.5C41.6935 0 42.8381 0.515078 43.682 1.43192C44.5259 2.34877 45 3.59227 45 4.88889V29.3333C45 30.6299 44.5259 31.8735 43.682 32.7903C42.8381 33.7071 41.6935 34.2222 40.5 34.2222H22.5ZM11.25 14.6667V19.5556H15.75V14.6667H11.25ZM20.25 14.6667V19.5556H24.75V14.6667H20.25ZM29.25 14.6667V19.5556H33.75V14.6667H29.25Z" fill="white"/>
</svg>
