<svg width="542" height="329" viewBox="0 0 542 329" fill="none" xmlns="http://www.w3.org/2000/svg">
<g clip-path="url(#clip0_314_744)">
<path d="M504.993 57.175H496.758C496.104 57.1762 495.465 56.9584 494.931 56.552C494.396 56.1456 493.993 55.5705 493.776 54.9066C493.146 52.9612 492.4 51.0612 491.544 49.2181C491.248 48.5804 491.147 47.8588 491.255 47.1557C491.363 46.4527 491.674 45.8041 492.144 45.302L497.997 39.0104C498.591 38.3705 498.925 37.5031 498.925 36.5987C498.925 35.6942 498.591 34.8268 497.997 34.1869L485.352 20.6004C484.757 19.961 483.95 19.6019 483.109 19.6019C482.268 19.6019 481.461 19.961 480.866 20.6004L474.908 27.0055C474.444 27.506 473.846 27.8382 473.198 27.9559C472.55 28.0735 471.884 27.9708 471.293 27.6619C469.611 26.7789 467.879 26.0113 466.106 25.3636C465.482 25.1349 464.94 24.7016 464.556 24.1245C464.173 23.5474 463.967 22.8557 463.968 22.1465V13.0727C463.969 12.6251 463.887 12.1818 463.727 11.7682C463.568 11.3546 463.334 10.9788 463.04 10.6623C462.745 10.3457 462.396 10.0946 462.011 9.92336C461.626 9.75209 461.214 9.66398 460.798 9.66406H442.923C442.507 9.66398 442.094 9.75209 441.71 9.92336C441.325 10.0946 440.975 10.3457 440.681 10.6623C440.387 10.9788 440.153 11.3546 439.994 11.7682C439.834 12.1818 439.752 12.6251 439.752 13.0727V22.1465C439.754 22.8557 439.548 23.5474 439.165 24.1245C438.781 24.7016 438.239 25.1349 437.615 25.3636C435.843 26.0112 434.11 26.7788 432.429 27.6619C431.838 27.9708 431.172 28.0735 430.523 27.9559C429.875 27.8382 429.278 27.506 428.814 27.0055L422.856 20.6004C422.26 19.9612 421.453 19.6021 420.612 19.6021C419.771 19.6021 418.964 19.9612 418.369 20.6004L405.724 34.1869C405.129 34.8268 404.795 35.6942 404.795 36.5987C404.795 37.5031 405.129 38.3705 405.724 39.0104L411.577 45.302C412.047 45.8042 412.358 46.4528 412.466 47.1558C412.573 47.8589 412.472 48.5805 412.176 49.2181C411.32 51.0601 410.576 52.9603 409.95 54.9066C409.731 55.5705 409.327 56.1451 408.791 56.5514C408.256 56.9576 407.617 57.1755 406.962 57.175H398.727C398.311 57.1749 397.899 57.2629 397.514 57.4342C397.129 57.6054 396.779 57.8565 396.485 58.173C396.191 58.4896 395.957 58.8654 395.798 59.2791C395.638 59.6927 395.556 60.136 395.557 60.5837V79.8055C395.556 80.2532 395.638 80.6965 395.798 81.1101C395.957 81.5238 396.191 81.8996 396.485 82.2162C396.779 82.5327 397.129 82.7838 397.514 82.955C397.899 83.1263 398.311 83.2143 398.727 83.2142H406.746C407.413 83.2136 408.063 83.4396 408.603 83.8599C409.144 84.2801 409.547 84.8731 409.755 85.5543C410.374 87.5523 411.114 89.5044 411.97 91.3982C412.261 92.0361 412.36 92.7556 412.252 93.4564C412.145 94.1573 411.836 94.8047 411.37 95.3085L405.723 101.379C405.429 101.696 405.195 102.071 405.035 102.485C404.876 102.898 404.793 103.342 404.793 103.789C404.793 104.237 404.876 104.68 405.035 105.094C405.195 105.507 405.429 105.883 405.723 106.199L418.367 119.789C418.963 120.429 419.77 120.788 420.611 120.788C421.452 120.788 422.259 120.429 422.854 119.789L428.39 113.838C428.862 113.332 429.47 112.999 430.127 112.885C430.785 112.771 431.46 112.882 432.055 113.204C433.846 114.166 435.696 114.995 437.592 115.687C438.22 115.916 438.766 116.35 439.154 116.929C439.541 117.508 439.75 118.203 439.751 118.917V127.309C439.751 127.758 439.832 128.202 439.991 128.616C440.15 129.03 440.384 129.407 440.678 129.724C440.973 130.041 441.322 130.293 441.707 130.464C442.092 130.636 442.505 130.724 442.922 130.724H460.797C461.213 130.724 461.626 130.636 462.011 130.464C462.396 130.293 462.746 130.041 463.04 129.724C463.335 129.407 463.568 129.03 463.727 128.616C463.886 128.202 463.968 127.758 463.967 127.309V118.918C463.969 118.205 464.178 117.51 464.565 116.931C464.952 116.351 465.498 115.917 466.127 115.688C468.023 114.997 469.872 114.167 471.663 113.205C472.259 112.884 472.933 112.772 473.591 112.886C474.249 113 474.857 113.333 475.328 113.839L480.865 119.791C481.46 120.43 482.267 120.789 483.108 120.789C483.949 120.789 484.756 120.43 485.351 119.791L497.995 106.198C498.29 105.882 498.524 105.506 498.683 105.092C498.843 104.679 498.925 104.236 498.925 103.788C498.925 103.34 498.843 102.897 498.683 102.484C498.524 102.07 498.29 101.694 497.995 101.378L492.348 95.3072C491.882 94.8035 491.574 94.1561 491.466 93.4552C491.359 92.7543 491.457 92.0348 491.748 91.3969C492.605 89.5033 493.345 87.5511 493.964 85.553C494.172 84.8719 494.575 84.2789 495.115 83.8586C495.656 83.4384 496.306 83.2124 496.972 83.2129H504.991C505.407 83.2131 505.819 83.125 506.204 82.9538C506.589 82.7825 506.939 82.5314 507.233 82.2149C507.527 81.8983 507.761 81.5225 507.92 81.1089C508.08 80.6952 508.161 80.2519 508.161 79.8042V60.5837C508.161 60.1362 508.08 59.6931 507.921 59.2797C507.761 58.8662 507.528 58.4905 507.234 58.1739C506.94 57.8574 506.59 57.6063 506.206 57.4349C505.821 57.2635 505.409 57.1752 504.993 57.175ZM451.863 98.5979C446.637 98.5984 441.528 96.9328 437.182 93.8117C432.836 90.6907 429.449 86.2543 427.449 81.0637C425.449 75.8731 424.925 70.1614 425.945 64.651C426.964 59.1405 429.481 54.0789 433.176 50.1061C436.872 46.1333 441.58 43.4278 446.706 42.3319C451.832 41.2359 457.145 41.7987 461.973 43.9489C466.802 46.0992 470.928 49.7405 473.832 54.4122C476.735 59.0839 478.284 64.5762 478.284 70.1946C478.283 77.7274 475.499 84.9514 470.544 90.2779C465.59 95.6043 458.87 98.5971 451.863 98.5979Z" fill="#F4F4F4"/>
<path d="M154.799 264.54H148.75C148.269 264.541 147.8 264.381 147.408 264.082C147.015 263.784 146.719 263.361 146.56 262.874C146.097 261.444 145.549 260.049 144.92 258.695C144.703 258.227 144.629 257.696 144.708 257.18C144.787 256.664 145.015 256.187 145.361 255.818L149.662 251.196C150.098 250.726 150.344 250.089 150.344 249.424C150.344 248.76 150.098 248.123 149.662 247.653L140.375 237.673C139.937 237.204 139.345 236.94 138.727 236.94C138.109 236.94 137.516 237.204 137.079 237.673L132.703 242.378C132.362 242.746 131.923 242.99 131.447 243.076C130.971 243.162 130.482 243.087 130.048 242.86C128.813 242.212 127.541 241.648 126.239 241.172C125.78 241.004 125.382 240.686 125.101 240.262C124.819 239.838 124.668 239.33 124.669 238.809V232.145C124.669 231.816 124.609 231.491 124.492 231.187C124.375 230.883 124.203 230.607 123.987 230.375C123.77 230.142 123.514 229.958 123.231 229.832C122.948 229.706 122.646 229.642 122.34 229.642H109.206C108.901 229.642 108.598 229.706 108.315 229.832C108.032 229.958 107.776 230.142 107.559 230.375C107.343 230.607 107.172 230.883 107.055 231.187C106.938 231.491 106.877 231.816 106.877 232.145V238.81C106.878 239.331 106.727 239.84 106.446 240.263C106.164 240.687 105.766 241.006 105.307 241.173C104.006 241.649 102.733 242.213 101.498 242.862C101.064 243.088 100.575 243.164 100.099 243.078C99.623 242.991 99.1841 242.747 98.8434 242.38L94.4668 237.675C94.0297 237.205 93.4369 236.941 92.8189 236.941C92.2009 236.941 91.6081 237.205 91.171 237.675L81.8839 247.654C81.4471 248.124 81.2017 248.761 81.2017 249.426C81.2017 250.09 81.4471 250.727 81.8839 251.197L86.1827 255.818C86.5279 256.187 86.7564 256.664 86.8355 257.18C86.9146 257.696 86.8403 258.227 86.6233 258.695C85.9942 260.048 85.4477 261.444 84.9875 262.874C84.827 263.361 84.5299 263.783 84.137 264.082C83.7441 264.38 83.2747 264.54 82.7936 264.54H76.744C76.4382 264.54 76.1353 264.605 75.8527 264.731C75.5701 264.856 75.3133 265.041 75.097 265.273C74.8807 265.506 74.7092 265.782 74.5922 266.086C74.4752 266.389 74.415 266.715 74.415 267.044V281.162C74.415 281.491 74.4752 281.817 74.5922 282.121C74.7092 282.424 74.8807 282.701 75.097 282.933C75.3133 283.166 75.5701 283.35 75.8527 283.476C76.1353 283.602 76.4382 283.666 76.744 283.666H82.6337C83.1237 283.666 83.6012 283.831 83.9982 284.14C84.3952 284.449 84.6913 284.884 84.8441 285.385C85.2988 286.852 85.8425 288.286 86.4717 289.677C86.6854 290.146 86.7578 290.675 86.6788 291.189C86.5998 291.704 86.3734 292.18 86.031 292.55L81.8834 297.009C81.667 297.241 81.4955 297.517 81.3784 297.821C81.2613 298.124 81.201 298.45 81.201 298.778C81.201 299.107 81.2613 299.432 81.3784 299.736C81.4955 300.039 81.667 300.315 81.8834 300.547L91.1704 310.532C91.6076 311.001 92.2003 311.265 92.8183 311.265C93.4363 311.265 94.0291 311.001 94.4662 310.532L98.5325 306.16C98.8791 305.788 99.3256 305.544 99.8087 305.46C100.292 305.377 100.787 305.459 101.224 305.695C102.54 306.402 103.899 307.011 105.291 307.519C105.753 307.687 106.154 308.006 106.439 308.431C106.723 308.857 106.877 309.367 106.877 309.891V316.057C106.877 316.386 106.937 316.712 107.054 317.016C107.171 317.32 107.342 317.596 107.558 317.829C107.775 318.062 108.032 318.247 108.314 318.373C108.597 318.499 108.9 318.564 109.206 318.564H122.336C122.642 318.564 122.945 318.499 123.228 318.373C123.511 318.247 123.768 318.062 123.984 317.829C124.201 317.596 124.372 317.32 124.489 317.016C124.606 316.712 124.666 316.386 124.665 316.057V309.891C124.666 309.367 124.82 308.857 125.104 308.431C125.389 308.006 125.79 307.687 126.251 307.519C127.644 307.011 129.003 306.402 130.318 305.695C130.756 305.459 131.251 305.377 131.734 305.46C132.217 305.544 132.664 305.788 133.01 306.16L137.076 310.532C137.514 311.001 138.106 311.265 138.724 311.265C139.342 311.265 139.935 311.001 140.372 310.532L149.662 300.547C149.878 300.315 150.05 300.039 150.167 299.736C150.284 299.432 150.344 299.107 150.344 298.778C150.344 298.45 150.284 298.124 150.167 297.821C150.05 297.517 149.878 297.241 149.662 297.009L145.514 292.55C145.172 292.18 144.945 291.704 144.866 291.189C144.787 290.675 144.86 290.146 145.073 289.677C145.702 288.286 146.246 286.852 146.701 285.385C146.854 284.884 147.15 284.449 147.547 284.14C147.944 283.831 148.421 283.666 148.911 283.666H154.801C155.107 283.666 155.41 283.602 155.692 283.476C155.975 283.35 156.232 283.166 156.448 282.933C156.664 282.701 156.836 282.424 156.953 282.121C157.07 281.817 157.13 281.491 157.13 281.162V267.044C157.13 266.715 157.07 266.389 156.953 266.085C156.835 265.781 156.664 265.505 156.447 265.272C156.231 265.04 155.974 264.855 155.691 264.73C155.408 264.604 155.105 264.54 154.799 264.54ZM115.773 294.966C111.935 294.966 108.182 293.742 104.991 291.45C101.799 289.157 99.3115 285.898 97.8425 282.086C96.3736 278.274 95.9892 274.078 96.7381 270.031C97.487 265.984 99.3354 262.266 102.05 259.348C104.764 256.43 108.222 254.443 111.987 253.638C115.752 252.833 119.654 253.246 123.201 254.825C126.747 256.405 129.778 259.079 131.911 262.51C134.043 265.941 135.182 269.975 135.182 274.102C135.182 276.841 134.68 279.555 133.704 282.086C132.729 284.617 131.299 286.917 129.497 288.855C127.695 290.792 125.555 292.329 123.201 293.378C120.846 294.426 118.322 294.966 115.773 294.966Z" fill="#F4F4F4"/>
<path d="M109.437 149.168H101.202C100.547 149.169 99.9085 148.951 99.3742 148.544C98.8399 148.138 98.4364 147.563 98.2196 146.899C97.5891 144.954 96.8435 143.053 95.9874 141.21C95.6917 140.572 95.5905 139.851 95.6982 139.148C95.8059 138.445 96.117 137.796 96.5873 137.294L102.44 131.002C103.034 130.362 103.368 129.495 103.368 128.591C103.368 127.686 103.034 126.819 102.44 126.179L89.7962 112.592C89.201 111.953 88.3941 111.594 87.5528 111.594C86.7115 111.594 85.9045 111.953 85.3093 112.592L79.3512 118.997C78.8874 119.498 78.2896 119.831 77.6415 119.948C76.9934 120.066 76.3272 119.963 75.7362 119.654C74.0542 118.771 72.3219 118.003 70.5497 117.356C69.9252 117.127 69.3831 116.694 68.9997 116.116C68.6162 115.539 68.4106 114.848 68.4118 114.138V105.065C68.412 104.617 68.3301 104.174 68.1708 103.76C68.0115 103.346 67.7779 102.971 67.4835 102.654C67.189 102.337 66.8394 102.086 66.4546 101.915C66.0698 101.744 65.6575 101.656 65.241 101.656H47.3666C46.9502 101.656 46.5379 101.744 46.1532 101.915C45.7685 102.087 45.419 102.338 45.1246 102.654C44.8302 102.971 44.5967 103.347 44.4374 103.76C44.2781 104.174 44.1963 104.617 44.1964 105.065V114.138C44.1975 114.848 43.9919 115.539 43.6084 116.116C43.225 116.693 42.683 117.127 42.0586 117.356C40.2863 118.003 38.5539 118.771 36.872 119.654C36.281 119.963 35.6148 120.066 34.9667 119.948C34.3186 119.831 33.7209 119.498 33.257 118.997L27.2989 112.592C26.7037 111.953 25.8968 111.594 25.0554 111.594C24.2141 111.594 23.4072 111.953 22.812 112.592L10.1672 126.179C9.57258 126.819 9.23858 127.686 9.23858 128.591C9.23858 129.495 9.57258 130.362 10.1672 131.002L16.0203 137.294C16.4905 137.796 16.8015 138.445 16.9091 139.148C17.0167 139.851 16.9154 140.572 16.6197 141.21C15.763 143.052 15.0193 144.953 14.3933 146.899C14.1745 147.563 13.7697 148.137 13.2346 148.544C12.6995 148.95 12.0605 149.168 11.4054 149.168H3.17079C2.75438 149.167 2.34201 149.255 1.95724 149.427C1.57248 149.598 1.22287 149.849 0.928394 150.165C0.63392 150.482 0.400358 150.858 0.241058 151.271C0.0817588 151.685 -0.0001546 152.128 4.94479e-07 152.576V171.797C-0.000232143 172.245 0.081624 172.688 0.240889 173.102C0.400154 173.516 0.633703 173.892 0.928185 174.208C1.22267 174.525 1.5723 174.776 1.95711 174.947C2.34191 175.118 2.75433 175.206 3.17079 175.206H11.1889C11.8558 175.206 12.5057 175.432 13.0459 175.852C13.5862 176.272 13.9892 176.865 14.1975 177.546C14.8163 179.544 15.5564 181.497 16.4132 183.391C16.7039 184.029 16.8023 184.748 16.6948 185.449C16.5872 186.149 16.2791 186.797 15.8133 187.3L10.166 193.371C9.87134 193.688 9.63757 194.063 9.47808 194.477C9.31858 194.89 9.23649 195.334 9.23649 195.781C9.23649 196.229 9.31858 196.672 9.47808 197.086C9.63757 197.499 9.87134 197.875 10.166 198.191L22.8102 211.783C23.4054 212.423 24.2124 212.782 25.0537 212.782C25.895 212.782 26.7019 212.423 27.2971 211.783L32.8329 205.832C33.3046 205.326 33.9124 204.992 34.5702 204.878C35.228 204.765 35.9025 204.876 36.498 205.197C38.2889 206.159 40.1386 206.989 42.0344 207.68C42.663 207.909 43.2094 208.343 43.5968 208.922C43.9842 209.502 44.1933 210.197 44.1946 210.91V219.303C44.1939 219.751 44.2754 220.195 44.4344 220.609C44.5934 221.024 44.8268 221.4 45.1213 221.717C45.4157 222.034 45.7654 222.286 46.1504 222.457C46.5354 222.629 46.948 222.718 47.3648 222.718H65.2393C65.6561 222.718 66.0688 222.629 66.4539 222.458C66.8389 222.286 67.1887 222.034 67.4832 221.717C67.7777 221.4 68.0112 221.024 68.1702 220.61C68.3292 220.195 68.4107 219.751 68.41 219.303V210.91C68.4114 210.197 68.6205 209.502 69.0079 208.922C69.3953 208.343 69.9417 207.909 70.5703 207.68C72.4659 206.989 74.3154 206.159 76.1061 205.197C76.7016 204.876 77.3761 204.765 78.0339 204.878C78.6917 204.992 79.2995 205.326 79.7712 205.832L85.3076 211.783C85.9028 212.423 86.7097 212.782 87.551 212.782C88.3923 212.782 89.1992 212.423 89.7945 211.783L102.438 198.191C102.733 197.875 102.967 197.499 103.126 197.086C103.286 196.672 103.368 196.229 103.368 195.781C103.368 195.334 103.286 194.89 103.126 194.477C102.967 194.063 102.733 193.688 102.438 193.371L96.7908 187.3C96.325 186.797 96.0169 186.149 95.9093 185.449C95.8018 184.748 95.9002 184.029 96.1909 183.391C97.0479 181.497 97.7881 179.545 98.4066 177.546C98.6149 176.865 99.0179 176.272 99.5582 175.852C100.098 175.432 100.748 175.206 101.415 175.206H109.434C109.85 175.206 110.263 175.118 110.647 174.947C111.032 174.776 111.382 174.525 111.676 174.208C111.971 173.892 112.204 173.516 112.363 173.102C112.522 172.688 112.604 172.245 112.604 171.797V152.576C112.604 151.672 112.271 150.806 111.677 150.167C111.083 149.527 110.277 149.168 109.437 149.168ZM56.3062 190.59C51.0799 190.59 45.9709 188.925 41.6252 185.804C37.2795 182.683 33.8924 178.246 31.8922 173.056C29.892 167.865 29.3685 162.153 30.388 156.643C31.4074 151.132 33.9241 146.071 37.6196 142.098C41.3151 138.125 46.0236 135.42 51.1494 134.324C56.2753 133.228 61.5884 133.791 66.4167 135.941C71.2451 138.091 75.3718 141.732 78.2751 146.404C81.1784 151.076 82.7277 156.568 82.7273 162.187C82.7265 169.719 79.9426 176.943 74.9878 182.27C70.0331 187.596 63.3132 190.589 56.3062 190.59Z" fill="#F4F4F4"/>
<path d="M83.3645 274.274L393.532 274.274C401.149 274.274 407.323 267.636 407.323 259.448L407.323 15.3202C407.323 7.13187 401.149 0.493896 393.532 0.493896L83.3645 0.493896C75.7476 0.493896 69.5729 7.13187 69.5729 15.3202L69.5729 259.448C69.5729 267.636 75.7476 274.274 83.3645 274.274Z" fill="white"/>
<path d="M69.1123 259.448V15.3203C69.1168 11.2585 70.6198 7.36446 73.2916 4.49238C75.9633 1.62029 79.5857 0.00469924 83.3641 0L393.532 0C397.311 0.00469924 400.933 1.62029 403.605 4.49238C406.277 7.36446 407.78 11.2585 407.784 15.3203V259.448C407.78 263.51 406.277 267.404 403.605 270.276C400.933 273.148 397.311 274.764 393.532 274.768H83.3641C79.5857 274.764 75.9632 273.148 73.2914 270.276C70.6196 267.404 69.1167 263.51 69.1123 259.448ZM83.3641 0.988675C79.8294 0.993039 76.4407 2.50445 73.9413 5.19133C71.442 7.87821 70.036 11.5212 70.032 15.321V259.448C70.036 263.248 71.442 266.891 73.9413 269.577C76.4407 272.264 79.8294 273.776 83.3641 273.78H393.532C397.067 273.776 400.456 272.264 402.955 269.577C405.454 266.891 406.86 263.248 406.864 259.448V15.3203C406.861 11.5205 405.455 7.87743 402.955 5.19051C400.456 2.50359 397.067 0.992238 393.532 0.988041L83.3641 0.988675Z" fill="#292A2E"/>
<path d="M69.5723 15.3185V30.2374H407.321V15.3185C407.321 11.3868 405.869 7.61602 403.283 4.83561C400.697 2.05521 397.19 0.49286 393.532 0.492188H83.3639C79.7061 0.492188 76.1982 2.05424 73.6117 4.83472C71.0253 7.61519 69.5723 11.3863 69.5723 15.3185Z" fill="#292A2E"/>
<path d="M129.023 166.113C121.638 166.113 114.418 163.759 108.277 159.348C102.137 154.937 97.3504 148.668 94.5241 141.332C91.6978 133.997 90.9583 125.926 92.3992 118.139C93.84 110.352 97.3964 103.199 102.619 97.5848C107.841 91.9707 114.495 88.1474 121.738 86.5985C128.982 85.0496 136.49 85.8445 143.313 88.8829C150.137 91.9212 155.969 97.0665 160.072 103.668C164.175 110.269 166.365 118.031 166.365 125.97C166.353 136.613 162.416 146.817 155.415 154.342C148.415 161.868 138.923 166.101 129.023 166.113ZM129.023 87.0955C121.871 87.0955 114.88 89.3755 108.933 93.6471C102.986 97.9187 98.3511 103.99 95.6141 111.094C92.8771 118.197 92.161 126.013 93.5563 133.554C94.9516 141.095 98.3957 148.022 103.453 153.459C108.51 158.896 114.954 162.598 121.968 164.098C128.983 165.598 136.254 164.828 142.862 161.886C149.469 158.944 155.117 153.961 159.091 147.568C163.064 141.175 165.185 133.659 165.185 125.97C165.175 115.663 161.361 105.782 154.582 98.4932C147.803 91.2048 138.611 87.1049 129.023 87.093V87.0955Z" fill="#292A2E"/>
<path d="M238.448 166.113C231.063 166.113 223.843 163.759 217.702 159.348C211.561 154.937 206.775 148.668 203.949 141.332C201.123 133.997 200.383 125.926 201.824 118.139C203.265 110.352 206.821 103.199 212.044 97.5848C217.266 91.9707 223.92 88.1474 231.163 86.5985C238.407 85.0496 245.915 85.8445 252.738 88.8829C259.561 91.9212 265.393 97.0665 269.496 103.668C273.6 110.269 275.79 118.031 275.79 125.97C275.778 136.613 271.84 146.817 264.84 154.342C257.84 161.868 248.348 166.101 238.448 166.113ZM238.448 87.0955C231.296 87.0955 224.304 89.3755 218.358 93.6471C212.411 97.9187 207.776 103.99 205.039 111.094C202.302 118.197 201.586 126.013 202.981 133.554C204.376 141.095 207.821 148.022 212.878 153.459C217.935 158.896 224.379 162.598 231.393 164.098C238.408 165.598 245.679 164.828 252.287 161.886C258.894 158.944 264.542 153.961 268.515 147.568C272.489 141.175 274.61 133.659 274.61 125.97C274.599 115.663 270.786 105.782 264.007 98.4932C257.228 91.2048 248.036 87.1049 238.448 87.093V87.0955Z" fill="#292A2E"/>
<path d="M347.873 166.113C340.487 166.113 333.268 163.759 327.127 159.348C320.986 154.937 316.2 148.668 313.374 141.332C310.547 133.997 309.808 125.926 311.249 118.139C312.69 110.352 316.246 103.199 321.468 97.5848C326.691 91.9707 333.344 88.1474 340.588 86.5985C347.831 85.0496 355.34 85.8445 362.163 88.8829C368.986 91.9212 374.818 97.0665 378.921 103.668C383.024 110.269 385.214 118.031 385.214 125.97C385.203 136.613 381.265 146.817 374.265 154.342C367.264 161.868 357.773 166.101 347.873 166.113ZM347.873 87.0955C340.721 87.0955 333.729 89.3755 327.782 93.6471C321.836 97.9187 317.201 103.99 314.464 111.094C311.727 118.197 311.011 126.013 312.406 133.554C313.801 141.095 317.245 148.022 322.303 153.459C327.36 158.896 333.803 162.598 340.818 164.098C347.833 165.598 355.104 164.828 361.711 161.886C368.319 158.944 373.967 153.961 377.94 147.568C381.914 141.175 384.035 133.659 384.035 125.97C384.024 115.663 380.211 105.782 373.432 98.4932C366.652 91.2048 357.461 87.1049 347.873 87.093V87.0955Z" fill="#292A2E"/>
<path opacity="0.6" d="M371.118 131.753V106.759H344.292V126.37H364.127L371.118 131.753Z" fill="#0CBC8B"/>
<path d="M324.627 149.917V116.114H360.909V142.637H334.083L324.627 149.917Z" fill="#0CBC8B"/>
<path d="M332.851 133.015C334.588 133.015 335.996 131.502 335.996 129.635C335.996 127.768 334.588 126.255 332.851 126.255C331.115 126.255 329.707 127.768 329.707 129.635C329.707 131.502 331.115 133.015 332.851 133.015Z" fill="white"/>
<path d="M342.768 133.015C344.505 133.015 345.912 131.502 345.912 129.635C345.912 127.768 344.505 126.255 342.768 126.255C341.032 126.255 339.624 127.768 339.624 129.635C339.624 131.502 341.032 133.015 342.768 133.015Z" fill="white"/>
<path d="M352.685 133.015C354.422 133.015 355.83 131.502 355.83 129.635C355.83 127.768 354.422 126.255 352.685 126.255C350.949 126.255 349.541 127.768 349.541 129.635C349.541 131.502 350.949 133.015 352.685 133.015Z" fill="white"/>
<path d="M147.628 138.253C147.989 138.512 148.244 138.911 148.339 139.367C148.434 139.822 148.363 140.3 148.14 140.7L146.106 144.344C145.566 145.329 144.694 146.053 143.672 146.367C140.291 147.364 132.835 147.564 120.885 134.719C108.934 121.874 109.123 113.854 110.05 110.222C110.341 109.122 111.014 108.185 111.931 107.604L115.321 105.418C115.693 105.178 116.137 105.101 116.561 105.204C116.985 105.306 117.355 105.581 117.596 105.969L123.001 114.685C123.237 115.066 123.33 115.53 123.262 115.982C123.194 116.435 122.969 116.843 122.632 117.124L119.597 119.661C119.278 119.925 119.058 120.303 118.977 120.727C118.896 121.15 118.958 121.591 119.153 121.969C120.044 123.692 120.888 125.722 125.068 130.221C129.248 134.721 131.144 135.622 132.744 136.58C133.096 136.79 133.506 136.857 133.9 136.769C134.294 136.681 134.645 136.444 134.89 136.101L137.25 132.84C137.512 132.478 137.891 132.236 138.312 132.162C138.733 132.088 139.165 132.189 139.52 132.443L147.628 138.253Z" fill="#0CBC8B"/>
<path opacity="0.6" d="M257.691 140.08H219.356C218.925 140.082 218.51 139.9 218.204 139.574C217.898 139.248 217.724 138.805 217.722 138.341L217.588 113.641C217.587 113.436 217.623 113.234 217.695 113.044C217.767 112.855 217.873 112.682 218.006 112.537C218.14 112.391 218.3 112.276 218.475 112.196C218.65 112.117 218.839 112.076 219.029 112.075L257.719 111.862C258.103 111.859 258.472 112.021 258.745 112.312C259.018 112.602 259.172 112.997 259.175 113.41L259.308 138.323C259.31 138.553 259.269 138.78 259.188 138.993C259.107 139.205 258.989 139.398 258.838 139.562C258.688 139.725 258.51 139.854 258.313 139.943C258.116 140.032 257.905 140.079 257.691 140.08Z" fill="#0CBC8B"/>
<path d="M258.762 112.328C256.473 114.135 239.85 127.288 239.832 127.301C239.381 127.573 238.87 127.711 238.353 127.699C237.835 127.688 237.33 127.529 236.889 127.237L217.981 112.569C218.116 112.414 218.279 112.29 218.459 112.205C218.64 112.12 218.835 112.076 219.032 112.074L257.718 111.859C257.912 111.858 258.105 111.899 258.284 111.98C258.464 112.06 258.626 112.179 258.762 112.328Z" fill="#0CBC8B"/>
<path d="M417.434 142.795C424.859 142.795 430.879 136.324 430.879 128.342C430.879 120.36 424.859 113.889 417.434 113.889C410.009 113.889 403.99 120.36 403.99 128.342C403.99 136.324 410.009 142.795 417.434 142.795Z" fill="#D736FF"/>
<path d="M411.134 126.973C410.789 126.973 410.45 126.864 410.161 126.66C409.872 126.456 409.646 126.165 409.509 125.824C409.266 125.219 403.638 110.781 409.751 89.5992C416.372 66.6554 439.435 66.3884 439.667 66.3884C440.136 66.3884 440.586 66.5889 440.918 66.9457C441.25 67.3025 441.437 67.7864 441.437 68.2909C441.437 68.7955 441.25 69.2794 440.918 69.6362C440.586 69.993 440.136 70.1935 439.667 70.1935C438.824 70.1935 418.968 70.4922 413.128 90.7255C407.4 110.575 412.701 124.18 412.756 124.315C412.872 124.604 412.919 124.92 412.894 125.234C412.868 125.548 412.771 125.851 412.61 126.114C412.449 126.377 412.229 126.594 411.971 126.743C411.713 126.893 411.425 126.971 411.131 126.972L411.134 126.973Z" fill="#D736FF"/>
<path d="M412.567 142.795C419.992 142.795 426.011 136.324 426.011 128.342C426.011 120.36 419.992 113.889 412.567 113.889C405.142 113.889 399.123 120.36 399.123 128.342C399.123 136.324 405.142 142.795 412.567 142.795Z" fill="#D736FF"/>
<path opacity="0.3" d="M412.567 142.795C419.992 142.795 426.011 136.324 426.011 128.342C426.011 120.36 419.992 113.889 412.567 113.889C405.142 113.889 399.123 120.36 399.123 128.342C399.123 136.324 405.142 142.795 412.567 142.795Z" fill="white"/>
<path d="M415.793 142.795C423.218 142.795 429.237 136.324 429.237 128.342C429.237 120.36 423.218 113.889 415.793 113.889C408.368 113.889 402.349 120.36 402.349 128.342C402.349 136.324 408.368 142.795 415.793 142.795Z" fill="#D736FF"/>
<path d="M479.209 102.337C479.209 102.337 483.529 124.587 488.687 131.319C503.539 150.697 510.057 173.976 499.4 188.175C488.743 202.374 414.504 213.842 405.013 186.111C397.025 162.763 405.595 158.629 405.7 138.399C405.747 129.245 406.925 109.939 406.925 109.939" fill="#0A0A0A"/>
<path d="M417.163 174.339C417.299 174.32 418.805 201.184 447.835 198.842C467.932 197.223 475.098 174.299 475.561 174.299C473.394 173.805 469.746 173.084 468.784 172.532C465.619 170.704 461.705 168.802 460.683 162.195C460.093 158.39 461.093 138.907 460.785 135.053L429.936 142.455C430.368 150.591 433.385 169.455 422.81 172.793C421.048 173.349 419.153 173.857 417.163 174.339Z" fill="#E98862"/>
<path opacity="0.5" d="M429.501 165.088C429.984 163.414 430.295 161.688 430.429 159.941C430.768 155.954 430.701 151.94 430.227 147.969C436.497 147.059 442.403 144.277 447.276 139.939C447.849 142.213 450.999 152.151 450.127 154.312C448.479 158.398 440.732 165.088 429.501 165.088Z" fill="#0C0C0C"/>
<path d="M434.993 159.187C447.204 158.694 462.149 151.25 463.215 133.525L464.177 117.533C465.243 99.8087 457.448 84.8384 441.924 83.7591C426.401 82.681 413.933 96.2415 412.867 113.966L412.441 121.046C412.032 127.849 413.206 160.065 434.993 159.187Z" fill="#E98862"/>
<path opacity="0.1" d="M439.816 135.467C441.832 135.434 443.447 134.119 443.425 132.53C443.402 130.941 441.75 129.679 439.734 129.712C437.719 129.745 436.103 131.061 436.126 132.65C436.148 134.239 437.801 135.5 439.816 135.467Z" fill="#0C0C0C"/>
<path opacity="0.1" d="M418.072 132.249C418.09 133.834 416.475 135.15 414.46 135.186C414.112 135.192 413.763 135.158 413.421 135.087C413.096 133.238 412.866 131.447 412.708 129.781C413.24 129.554 413.808 129.435 414.38 129.431C416.397 129.395 418.049 130.656 418.072 132.249Z" fill="#0C0C0C"/>
<path d="M417.523 120.311C418.577 120.311 419.432 119.392 419.432 118.258C419.432 117.124 418.577 116.205 417.523 116.205C416.468 116.205 415.613 117.124 415.613 118.258C415.613 119.392 416.468 120.311 417.523 120.311Z" fill="#0C0C0C"/>
<path d="M436.418 121.828C437.473 121.828 438.328 120.909 438.328 119.775C438.328 118.642 437.473 117.723 436.418 117.723C435.364 117.723 434.509 118.642 434.509 119.775C434.509 120.909 435.364 121.828 436.418 121.828Z" fill="#0C0C0C"/>
<path opacity="0.5" d="M427.445 135.806H427.414C426.785 135.757 426.159 135.671 425.538 135.549C424.611 135.358 423.384 135.002 423.437 134.116C423.496 133.106 426.726 122.388 427.095 121.169C427.13 121.067 427.2 120.983 427.292 120.935C427.383 120.887 427.488 120.879 427.585 120.913C427.681 120.947 427.762 121.02 427.81 121.116C427.858 121.212 427.869 121.325 427.842 121.43C426.464 125.996 424.262 133.491 424.221 134.171C424.357 134.465 425.905 134.854 427.466 134.963C427.566 134.971 427.66 135.021 427.728 135.101C427.796 135.182 427.832 135.287 427.829 135.396C427.827 135.504 427.785 135.607 427.714 135.684C427.642 135.76 427.546 135.804 427.445 135.807L427.445 135.806Z" fill="#0C0C0C"/>
<path opacity="0.5" d="M430.547 142.987C428.033 142.97 425.558 142.318 423.321 141.084C423.275 141.06 423.234 141.026 423.2 140.985C423.166 140.943 423.139 140.895 423.123 140.842C423.089 140.736 423.096 140.62 423.142 140.52C423.187 140.419 423.268 140.343 423.367 140.306C423.465 140.27 423.573 140.277 423.667 140.327C428.49 142.863 432.987 142.782 436.666 140.092C436.741 140.035 436.818 139.982 436.897 139.934C436.99 139.889 437.094 139.884 437.19 139.92C437.286 139.956 437.365 140.031 437.411 140.128C437.456 140.225 437.465 140.338 437.436 140.442C437.406 140.546 437.34 140.634 437.251 140.687C437.222 140.705 437.174 140.741 437.107 140.79C435.172 142.208 432.888 142.973 430.547 142.987Z" fill="#0C0C0C"/>
<path d="M476.746 121.358L462.84 120.477C452.028 117.359 446.719 98.6049 446.719 98.6049C446.719 98.6049 438.069 113.368 406.899 109.924C406.899 109.924 405.38 63.0158 451.716 70.9582C466.616 73.5126 478.801 87.583 479.904 108.663C480.677 123.436 476.746 121.358 476.746 121.358Z" fill="#0A0A0A"/>
<path d="M461.926 138.858C466.646 139.186 470.795 134.026 471.1 128.954C471.405 123.883 467.749 120.821 463.031 120.493L460.396 123.722L457.87 138.576L461.926 138.858Z" fill="#E98862"/>
<path d="M422.83 113.615C421.571 112.908 420.161 112.572 418.742 112.641C418.028 112.671 417.323 112.816 416.65 113.072C415.971 113.326 415.324 113.671 414.725 114.098L414.706 114.111C414.639 114.155 414.559 114.169 414.483 114.15C414.406 114.132 414.34 114.082 414.297 114.011C414.254 113.94 414.239 113.854 414.255 113.772C414.271 113.689 414.316 113.616 414.38 113.569C415.012 113.085 415.697 112.688 416.42 112.388C417.148 112.082 417.915 111.896 418.694 111.835C420.273 111.702 421.855 112.026 423.277 112.774C423.384 112.831 423.465 112.932 423.503 113.054C423.541 113.176 423.532 113.309 423.479 113.424C423.425 113.538 423.332 113.626 423.218 113.667C423.105 113.707 422.981 113.698 422.874 113.64L422.863 113.634L422.83 113.615Z" fill="#0C0C0C"/>
<path d="M435.437 113.66C436.935 113.108 438.542 112.998 440.093 113.342C440.859 113.507 441.598 113.794 442.285 114.195C442.969 114.589 443.603 115.075 444.173 115.639C444.231 115.695 444.266 115.773 444.271 115.856C444.277 115.94 444.252 116.022 444.202 116.086C444.152 116.15 444.081 116.191 444.004 116.2C443.927 116.209 443.849 116.185 443.788 116.134L443.77 116.119C443.225 115.614 442.623 115.186 441.979 114.842C441.34 114.498 440.657 114.26 439.953 114.136C438.553 113.877 437.115 114.022 435.784 114.555L435.752 114.569C435.696 114.592 435.638 114.603 435.578 114.602C435.519 114.601 435.461 114.587 435.407 114.561C435.352 114.536 435.303 114.499 435.262 114.453C435.221 114.407 435.189 114.353 435.168 114.294C435.146 114.234 435.136 114.171 435.137 114.107C435.138 114.044 435.151 113.981 435.175 113.923C435.198 113.864 435.233 113.812 435.275 113.768C435.318 113.724 435.368 113.689 435.424 113.666L435.437 113.66Z" fill="#0C0C0C"/>
<path opacity="0.52" d="M430.471 146.989C430.016 146.993 429.563 146.956 429.114 146.878C429.063 146.869 429.014 146.85 428.97 146.821C428.926 146.792 428.888 146.754 428.858 146.709C428.828 146.664 428.806 146.614 428.794 146.56C428.782 146.506 428.78 146.45 428.788 146.395C428.796 146.341 428.814 146.288 428.841 146.241C428.868 146.194 428.903 146.153 428.945 146.12C428.987 146.088 429.034 146.064 429.084 146.051C429.134 146.038 429.186 146.036 429.237 146.045C431.937 146.507 433.297 145.241 433.354 145.187C433.432 145.112 433.533 145.074 433.637 145.079C433.741 145.085 433.839 145.135 433.909 145.218C433.978 145.301 434.015 145.41 434.009 145.522C434.004 145.633 433.958 145.738 433.881 145.813C432.904 146.617 431.7 147.032 430.471 146.989Z" fill="#0C0C0C"/>
<path d="M462.991 120.255C453.426 117.932 449.556 111.607 447.993 106.71C446.97 103.442 446.593 99.9797 446.887 96.5457L447.182 96.5881C446.894 99.9773 447.267 103.394 448.278 106.619C449.818 111.435 453.632 117.653 463.059 119.946L462.991 120.255Z" fill="#0C0C0C"/>
<path d="M315.906 184.68L306.44 165.491C306.232 165.069 305.944 164.699 305.596 164.403C305.247 164.108 304.845 163.894 304.415 163.774C303.985 163.655 303.537 163.633 303.099 163.71C302.661 163.787 302.243 163.962 301.871 164.222C301.198 164.726 300.723 165.48 300.537 166.339C300.352 167.197 300.47 168.099 300.868 168.87L302.898 172.985L290.99 163.195C289.684 162.081 287.419 161.613 286.353 163.271C285.905 163.88 285.662 164.635 285.663 165.411C285.665 166.188 285.911 166.941 286.362 167.548C286.349 167.559 286.338 167.571 286.327 167.584C286.319 167.595 286.317 167.609 286.311 167.62L284.297 165.9C283.924 165.582 283.489 165.357 283.025 165.243C282.561 165.129 282.079 165.127 281.614 165.238C281.149 165.35 280.714 165.571 280.338 165.886C279.963 166.201 279.658 166.603 279.446 167.061C279.125 167.789 279.046 168.614 279.223 169.398C279.4 170.181 279.822 170.876 280.418 171.365L281.275 172.095C281.267 172.132 281.265 172.17 281.269 172.207C280.583 171.858 279.805 171.782 279.072 171.994C278.339 172.205 277.7 172.69 277.27 173.361C276.819 174.111 276.647 175.016 276.789 175.895C276.931 176.775 277.377 177.565 278.037 178.107L280.166 179.921C280.119 179.918 280.072 179.927 280.029 179.948C279.986 179.968 279.948 180 279.918 180.039C279.886 180.088 279.867 180.145 279.864 180.205C279.173 180.077 278.462 180.196 277.84 180.544C277.218 180.892 276.72 181.451 276.422 182.133C276.123 182.857 276.059 183.668 276.242 184.435C276.425 185.202 276.843 185.881 277.429 186.361L295.394 201.67C297.907 203.812 300.958 205.098 304.155 205.363C307.353 205.629 310.551 204.862 313.341 203.16C315.746 201.694 317.524 199.276 318.298 196.423C319.071 193.569 318.78 190.503 317.484 187.877L315.906 184.68Z" fill="#E98862"/>
<g opacity="0.2">
<path d="M298.105 177.3C298.057 177.365 297.987 177.406 297.91 177.416C297.834 177.426 297.757 177.403 297.696 177.353L286.382 168.027C286.351 168.002 286.326 167.97 286.306 167.934C286.287 167.898 286.274 167.858 286.269 167.817C286.264 167.776 286.267 167.734 286.277 167.693C286.287 167.653 286.304 167.616 286.328 167.582C286.351 167.549 286.381 167.522 286.414 167.501C286.448 167.48 286.485 167.466 286.523 167.461C286.562 167.456 286.601 167.458 286.638 167.469C286.676 167.48 286.711 167.498 286.741 167.524L298.055 176.85C298.117 176.901 298.157 176.977 298.167 177.06C298.177 177.143 298.156 177.227 298.109 177.294L298.105 177.3Z" fill="#0C0C0C"/>
</g>
<g opacity="0.2">
<path d="M294.417 182.778C294.368 182.842 294.298 182.884 294.222 182.894C294.145 182.903 294.068 182.881 294.007 182.83L281.383 172.423C281.321 172.372 281.28 172.296 281.27 172.213C281.26 172.13 281.281 172.046 281.328 171.979C281.377 171.915 281.447 171.873 281.524 171.862C281.6 171.851 281.678 171.872 281.741 171.92L294.367 182.325C294.429 182.376 294.469 182.451 294.48 182.535C294.49 182.618 294.469 182.702 294.422 182.769L294.417 182.778Z" fill="#0C0C0C"/>
</g>
<g opacity="0.2">
<path d="M290.454 188.735C290.406 188.799 290.336 188.841 290.259 188.851C290.183 188.861 290.106 188.838 290.045 188.788L279.973 180.486C279.911 180.434 279.87 180.359 279.86 180.275C279.85 180.192 279.871 180.107 279.918 180.041C279.966 179.974 280.036 179.93 280.114 179.919C280.192 179.908 280.27 179.931 280.332 179.982L290.403 188.286C290.465 188.337 290.506 188.412 290.516 188.496C290.526 188.579 290.505 188.663 290.458 188.73L290.454 188.735Z" fill="#0C0C0C"/>
</g>
<path d="M383.333 185.743L352.723 243.423L321.439 182.014L284.054 204.453L334.384 299.529C336.014 302.584 338.287 305.185 341.021 307.125C345.606 310.356 351.198 311.496 356.566 310.295C361.934 309.094 366.638 305.65 369.643 300.72L369.902 300.296L423.584 212.232L383.333 185.743Z" fill="#D736FF"/>
<path d="M315.907 184.68L306.44 165.491C306.232 165.069 305.945 164.699 305.596 164.403C305.247 164.108 304.845 163.894 304.416 163.774C303.986 163.655 303.538 163.633 303.1 163.71C302.662 163.788 302.243 163.962 301.871 164.222C301.198 164.726 300.723 165.48 300.538 166.339C300.352 167.197 300.47 168.1 300.869 168.87L302.898 172.985L306.054 180.415" fill="#E98862"/>
<path d="M448.376 192.126C468.487 191.107 469.334 172.757 469.334 172.757C469.334 172.757 479.298 173.449 485.923 174.413C496.768 175.99 503.922 179.943 509.616 186.064C514.912 191.758 518.137 197.918 514.725 237.248C512.254 265.723 513.992 328.366 513.992 328.366H392.618C392.618 328.366 385.339 246.263 384.325 233.443C382.388 208.971 374.459 195.177 385.542 182.571C393.58 173.429 414.33 172.757 422.682 172.758C422.818 172.758 420.987 193.515 448.376 192.126Z" fill="#D736FF"/>
<path d="M385.032 229.351C385.027 229.267 384.991 229.188 384.932 229.133C384.874 229.077 384.797 229.049 384.718 229.054C384.64 229.059 384.567 229.098 384.515 229.161C384.463 229.224 384.437 229.307 384.442 229.391L386.91 271.771C386.915 271.848 386.944 271.919 386.994 271.974C387.044 272.028 387.11 272.061 387.181 272.068C387.195 272.069 387.209 272.069 387.223 272.068C387.262 272.065 387.299 272.054 387.334 272.036C387.369 272.018 387.4 271.992 387.426 271.961C387.452 271.929 387.471 271.893 387.484 271.854C387.496 271.814 387.501 271.772 387.499 271.731" fill="#0C0C0C"/>
<path d="M411.773 291.217L392.139 286.088C391.708 285.975 391.259 285.961 390.822 286.045C390.385 286.128 389.969 286.309 389.601 286.576C389.232 286.842 388.919 287.188 388.682 287.591C388.445 287.994 388.288 288.446 388.222 288.918C388.126 289.794 388.335 290.676 388.809 291.395C389.284 292.114 389.99 292.618 390.79 292.809L395 293.909L380.284 296.983C378.643 297.294 376.813 298.804 377.26 300.762C377.386 301.527 377.749 302.223 378.29 302.738C378.832 303.252 379.52 303.554 380.241 303.594C380.24 303.611 380.24 303.629 380.241 303.646C380.241 303.66 380.252 303.67 380.255 303.683L377.724 304.163C377.255 304.252 376.811 304.452 376.423 304.75C376.035 305.047 375.714 305.433 375.483 305.881C375.252 306.328 375.117 306.826 375.087 307.337C375.058 307.847 375.134 308.359 375.312 308.834C375.605 309.576 376.127 310.187 376.79 310.565C377.452 310.942 378.215 311.064 378.951 310.91L380.028 310.705C380.048 310.736 380.073 310.763 380.101 310.785C379.403 311.104 378.834 311.68 378.495 312.409C378.156 313.139 378.069 313.974 378.25 314.766C378.472 315.627 378.987 316.366 379.693 316.836C380.399 317.307 381.244 317.473 382.06 317.303L384.736 316.795C384.703 316.831 384.678 316.875 384.664 316.923C384.649 316.971 384.646 317.022 384.654 317.072C384.666 317.131 384.693 317.184 384.733 317.227C384.185 317.697 383.796 318.347 383.625 319.078C383.455 319.81 383.512 320.581 383.79 321.273C384.094 321.994 384.616 322.584 385.271 322.946C385.926 323.309 386.676 323.423 387.399 323.27L409.976 318.989C413.134 318.39 416.054 316.791 418.362 314.397C420.669 312.002 422.259 308.922 422.927 305.55C423.503 302.642 423.002 299.608 421.53 297.091C420.058 294.574 417.732 292.773 415.044 292.071L411.773 291.217Z" fill="#E98862"/>
<g opacity="0.2">
<path d="M394.821 300.629C394.834 300.711 394.817 300.795 394.772 300.863C394.728 300.931 394.661 300.978 394.585 300.994L380.587 303.898C380.549 303.906 380.51 303.906 380.472 303.897C380.434 303.889 380.398 303.873 380.366 303.849C380.334 303.826 380.306 303.796 380.285 303.761C380.264 303.726 380.249 303.688 380.242 303.647C380.234 303.606 380.235 303.564 380.242 303.523C380.25 303.482 380.265 303.443 380.287 303.409C380.309 303.374 380.337 303.345 380.369 303.322C380.401 303.299 380.437 303.283 380.476 303.275L394.474 300.37C394.512 300.362 394.551 300.363 394.589 300.371C394.627 300.38 394.663 300.396 394.696 300.42C394.728 300.443 394.755 300.473 394.776 300.509C394.798 300.544 394.812 300.583 394.819 300.624L394.821 300.629Z" fill="#0C0C0C"/>
</g>
<g opacity="0.2">
<path d="M396.186 307.231C396.199 307.313 396.182 307.397 396.138 307.465C396.093 307.533 396.026 307.579 395.95 307.595L380.328 310.837C380.29 310.845 380.251 310.844 380.213 310.836C380.175 310.827 380.139 310.811 380.107 310.787C380.075 310.763 380.047 310.733 380.026 310.698C380.005 310.663 379.99 310.624 379.983 310.583C379.971 310.501 379.989 310.416 380.033 310.347C380.076 310.278 380.143 310.23 380.219 310.212L395.841 306.97C395.88 306.962 395.919 306.963 395.957 306.971C395.995 306.98 396.031 306.996 396.063 307.02C396.095 307.044 396.122 307.074 396.144 307.109C396.165 307.144 396.179 307.183 396.186 307.224V307.231Z" fill="#0C0C0C"/>
</g>
<g opacity="0.2">
<path d="M397.697 314.372C397.71 314.453 397.692 314.537 397.648 314.605C397.604 314.673 397.537 314.72 397.461 314.736L385 317.322C384.961 317.33 384.922 317.329 384.884 317.321C384.846 317.313 384.81 317.297 384.778 317.273C384.746 317.25 384.719 317.22 384.697 317.185C384.676 317.15 384.661 317.112 384.654 317.071C384.646 317.03 384.647 316.988 384.654 316.947C384.662 316.906 384.677 316.867 384.699 316.833C384.721 316.798 384.749 316.769 384.781 316.746C384.813 316.723 384.849 316.707 384.887 316.699L397.349 314.113C397.387 314.105 397.426 314.105 397.464 314.114C397.502 314.122 397.539 314.139 397.571 314.162C397.603 314.186 397.63 314.216 397.652 314.251C397.673 314.286 397.687 314.325 397.694 314.367L397.697 314.372Z" fill="#0C0C0C"/>
</g>
<path d="M409.817 327.291L515.317 327.91C518.714 328.307 522.152 327.853 525.359 326.583C528.566 325.312 531.456 323.26 533.801 320.587C536.147 317.915 537.884 314.694 538.877 311.178C539.871 307.662 540.092 303.947 539.525 300.323L516.022 199.109C515.555 196.015 514.524 193.05 512.988 190.386C511.452 187.722 509.441 185.41 507.071 183.584C504.7 181.758 502.018 180.454 499.177 179.747C496.336 179.04 493.394 178.943 490.518 179.463C487.643 179.982 484.891 181.108 482.421 182.775C479.952 184.442 477.813 186.617 476.129 189.176C474.444 191.734 473.247 194.626 472.605 197.684C471.964 200.742 471.891 203.906 472.391 206.994L490.417 283.244L410.328 286.075L409.817 327.291Z" fill="#D736FF"/>
<path d="M504.206 282.925C504.28 282.924 504.351 282.894 504.406 282.839C504.46 282.785 504.493 282.71 504.498 282.631C504.503 282.552 504.481 282.473 504.435 282.41C504.389 282.348 504.322 282.307 504.249 282.294L490.586 282.828C490.548 282.821 490.509 282.822 490.471 282.832C490.433 282.842 490.398 282.86 490.366 282.885C490.335 282.91 490.309 282.941 490.289 282.977C490.269 283.013 490.256 283.053 490.251 283.094C490.24 283.177 490.259 283.262 490.306 283.329C490.352 283.397 490.422 283.442 490.499 283.454L504.162 282.921C504.177 282.924 504.191 282.925 504.206 282.925Z" fill="#0C0C0C"/>
<path d="M512.248 328.366C512.326 328.371 512.403 328.343 512.462 328.288C512.521 328.232 512.557 328.153 512.562 328.069C512.567 327.985 512.541 327.902 512.489 327.839C512.438 327.776 512.365 327.737 512.286 327.732L410.435 327.049L410.882 286.462L490.492 283.454C490.538 283.46 490.584 283.455 490.628 283.439C490.672 283.423 490.711 283.395 490.743 283.36C490.775 283.324 490.799 283.281 490.813 283.233C490.826 283.186 490.829 283.135 490.822 283.087L482.14 237.255C482.134 237.214 482.12 237.174 482.1 237.138C482.08 237.103 482.053 237.072 482.021 237.048C481.989 237.023 481.954 237.006 481.916 236.997C481.878 236.988 481.838 236.987 481.8 236.995C481.723 237.009 481.654 237.055 481.609 237.124C481.563 237.192 481.545 237.277 481.558 237.36L490.171 282.767L410.658 285.788C410.619 285.783 410.579 285.785 410.541 285.797C410.503 285.808 410.467 285.827 410.436 285.853C410.405 285.879 410.38 285.912 410.361 285.949C410.342 285.986 410.33 286.027 410.325 286.069L409.815 327.29C409.807 327.373 409.829 327.455 409.876 327.521C409.924 327.586 409.994 327.628 410.07 327.639L512.207 328.363C512.221 328.365 512.234 328.366 512.248 328.366Z" fill="#0C0C0C"/>
<path d="M360.124 316.457L331.263 221.084C330.756 219.408 329.769 217.948 328.442 216.912C327.116 215.877 325.519 215.319 323.879 215.319H206.299C205.073 215.319 203.865 215.631 202.773 216.229C201.681 216.827 200.736 217.695 200.016 218.761C199.295 219.827 198.82 221.061 198.629 222.363C198.437 223.664 198.535 224.996 198.914 226.249L227.775 321.622C228.282 323.298 229.27 324.758 230.596 325.794C231.922 326.83 233.52 327.387 235.159 327.387H352.74C353.965 327.387 355.174 327.075 356.266 326.477C357.358 325.879 358.303 325.011 359.023 323.945C359.743 322.879 360.218 321.644 360.41 320.343C360.601 319.041 360.503 317.71 360.124 316.457Z" fill="#292A2E"/>
<path d="M415.289 319.654H336.582C334.62 319.654 333.03 321.364 333.03 323.472V323.57C333.03 325.678 334.62 327.387 336.582 327.387H415.289C417.25 327.387 418.84 325.678 418.84 323.57V323.472C418.84 321.364 417.25 319.654 415.289 319.654Z" fill="#292A2E"/>
<path d="M277.75 287.36C284.561 287.36 290.082 281.425 290.082 274.103C290.082 266.781 284.561 260.845 277.75 260.845C270.939 260.845 265.418 266.781 265.418 274.103C265.418 281.425 270.939 287.36 277.75 287.36Z" fill="white"/>
<path d="M469.946 126.173C469.476 126.173 469.026 125.973 468.694 125.616C468.363 125.259 468.176 124.775 468.176 124.271V102.598C468.176 91.5701 465.336 82.8318 459.965 77.3285C454.873 72.1117 447.566 69.7127 438.256 70.1927C438.023 70.2061 437.79 70.1698 437.57 70.0861C437.35 70.0023 437.148 69.8727 436.975 69.7046C436.802 69.5366 436.661 69.3334 436.562 69.1068C436.462 68.8802 436.405 68.6346 436.394 68.3842C436.382 68.1338 436.417 67.8835 436.496 67.6477C436.576 67.4119 436.697 67.1952 436.854 67.01C437.012 66.8249 437.201 66.675 437.413 66.569C437.624 66.463 437.853 66.4029 438.086 66.3921C448.404 65.8563 456.589 68.6117 462.409 74.573C468.499 80.8126 471.718 90.5034 471.718 102.598V124.27C471.718 124.52 471.672 124.768 471.583 124.999C471.494 125.23 471.364 125.44 471.199 125.617C471.034 125.793 470.839 125.933 470.624 126.029C470.409 126.124 470.179 126.173 469.946 126.173Z" fill="#D736FF"/>
<path d="M467.301 142.795C474.726 142.795 480.745 136.324 480.745 128.342C480.745 120.36 474.726 113.889 467.301 113.889C459.876 113.889 453.856 120.36 453.856 128.342C453.856 136.324 459.876 142.795 467.301 142.795Z" fill="#D736FF"/>
<path d="M467.82 139.169C467.726 139.095 467.619 139.043 467.506 139.014C467.393 138.985 467.276 138.98 467.161 139C467.046 139.02 466.936 139.063 466.837 139.129C466.738 139.194 466.652 139.28 466.584 139.382L465.556 140.909C464.295 142.777 462.641 144.297 460.73 145.347C458.818 146.397 456.703 146.945 454.556 146.949H438.188V146.576C438.188 146.072 438.002 145.588 437.67 145.231C437.338 144.874 436.888 144.674 436.418 144.674H430.879C430.41 144.674 429.96 144.874 429.628 145.231C429.296 145.588 429.109 146.072 429.109 146.576V149.362C429.109 149.866 429.296 150.35 429.628 150.707C429.96 151.064 430.41 151.264 430.879 151.264H436.418C436.888 151.264 437.338 151.064 437.67 150.707C438.002 150.35 438.188 149.866 438.188 149.362V148.854H454.556C456.982 148.851 459.373 148.23 461.534 147.044C463.695 145.858 465.564 144.139 466.99 142.028L468.018 140.5C468.087 140.399 468.136 140.284 468.163 140.162C468.191 140.04 468.195 139.914 468.177 139.79C468.158 139.666 468.117 139.548 468.056 139.441C467.995 139.334 467.915 139.242 467.82 139.169Z" fill="#D736FF"/>
<path d="M470.527 142.795C477.952 142.795 483.971 136.324 483.971 128.342C483.971 120.36 477.952 113.889 470.527 113.889C463.102 113.889 457.083 120.36 457.083 128.342C457.083 136.324 463.102 142.795 470.527 142.795Z" fill="#D736FF"/>
<path opacity="0.3" d="M470.527 142.795C477.952 142.795 483.971 136.324 483.971 128.342C483.971 120.36 477.952 113.889 470.527 113.889C463.102 113.889 457.083 120.36 457.083 128.342C457.083 136.324 463.102 142.795 470.527 142.795Z" fill="white"/>
<path d="M215.188 329H541.41C541.567 329 541.717 328.933 541.828 328.814C541.938 328.695 542 328.534 542 328.366C542 328.198 541.938 328.036 541.828 327.917C541.717 327.799 541.567 327.732 541.41 327.732H215.188C215.031 327.732 214.881 327.799 214.77 327.917C214.66 328.036 214.598 328.198 214.598 328.366C214.598 328.534 214.66 328.695 214.77 328.814C214.881 328.933 215.031 329 215.188 329Z" fill="#292A2E"/>
</g>
<defs>
<clipPath id="clip0_314_744">
<rect width="542" height="329" fill="white"/>
</clipPath>
</defs>
</svg>
