<svg width="22" height="20" viewBox="0 0 22 20" fill="none" xmlns="http://www.w3.org/2000/svg">
<path d="M11.8488 19.3637H17.7098C18.8215 19.3637 19.7535 18.9863 20.4748 18.2595C21.1961 17.5625 21.6472 16.633 21.6472 15.5874V4.23083C21.6472 3.18523 21.1961 2.25581 20.4748 1.55874C19.7535 0.861677 18.7917 0.45459 17.7098 0.45459H11.8488V2.8367H17.7098C18.5513 2.8367 19.1822 3.4464 19.1822 4.23083V15.5874C19.1822 16.3719 18.5513 17.0104 17.7098 17.0104H11.8488V19.3637ZM0.097168 7.65947V12.1904C0.097168 12.7137 0.54823 13.1486 1.08874 13.1486H6.55919V16.7213C6.55919 17.0411 6.70922 17.3022 7.01025 17.4472C7.13047 17.476 7.2805 17.476 7.34109 17.476C7.55172 17.476 7.73156 17.4175 7.88256 17.2725L14.9457 10.4468C15.2159 10.1856 15.1861 9.66237 14.9457 9.37239L7.88256 2.57553C7.64212 2.34318 7.34109 2.31436 7.01121 2.4008C6.71018 2.54579 6.56015 2.77814 6.56015 3.09787V6.69938H1.0897C0.54823 6.69938 0.0981297 7.13527 0.0981297 7.65761L0.097168 7.65947Z" fill="white"/>
</svg>
