<svg width="36" height="36" viewBox="0 0 36 36" fill="none" xmlns="http://www.w3.org/2000/svg">
<path d="M21.0881 11.1712C21.0881 11.1319 21.2906 11.0025 21.9375 11.0025H24.0525C24.2176 11.0047 24.3816 10.974 24.5347 10.9122C24.6879 10.8504 24.8272 10.7587 24.9445 10.6424C25.0618 10.5262 25.1547 10.3877 25.2179 10.2351C25.2811 10.0825 25.3133 9.91888 25.3125 9.75373V6.06373C25.3155 5.89927 25.2859 5.73584 25.2256 5.58283C25.1652 5.42982 25.0752 5.29024 24.9607 5.17212C24.8463 5.05399 24.7096 4.95965 24.5586 4.8945C24.4075 4.82935 24.2451 4.79468 24.0806 4.79248H20.9306C20.0564 4.76252 19.1853 4.91062 18.3701 5.2278C17.555 5.54497 16.8128 6.02458 16.1888 6.63748C15.5843 7.28948 15.1147 8.05446 14.8067 8.88848C14.4988 9.7225 14.3587 10.6091 14.3944 11.4975V14.8444H11.9475C11.7828 14.8436 11.6195 14.8753 11.467 14.9377C11.3146 15 11.1759 15.0918 11.0589 15.2078C10.9419 15.3237 10.8489 15.4616 10.7851 15.6135C10.7214 15.7654 10.6882 15.9284 10.6875 16.0931V20.07C10.6875 20.3997 10.8185 20.7159 11.0516 20.949C11.2847 21.1821 11.6009 21.3131 11.9306 21.3131H14.3381V29.9475C14.3336 30.2777 14.4601 30.5963 14.6899 30.8335C14.9197 31.0707 15.2342 31.2072 15.5644 31.2131H19.6988C19.8625 31.2131 20.0246 31.1808 20.1758 31.1179C20.327 31.0551 20.4643 30.9631 20.5798 30.847C20.6953 30.731 20.7867 30.5933 20.8489 30.4418C20.911 30.2903 20.9426 30.1281 20.9419 29.9644V21.3412H23.8837C24.2145 21.3398 24.5312 21.2077 24.7651 20.9738C24.999 20.74 25.131 20.4232 25.1325 20.0925V16.11C25.1325 15.9463 25.1002 15.7841 25.0373 15.633C24.9745 15.4818 24.8824 15.3445 24.7664 15.229C24.6504 15.1135 24.5127 15.022 24.3612 14.9599C24.2097 14.8977 24.0475 14.8661 23.8837 14.8669H20.9587V11.9362C20.9274 11.6741 20.9723 11.4085 21.0881 11.1712Z" stroke="white" stroke-width="2.8125" stroke-linecap="round"/>
</svg>
