<svg width="62" height="62" viewBox="0 0 62 62" fill="none" xmlns="http://www.w3.org/2000/svg">
<g clip-path="url(#clip0_936_92)">
<path d="M54.25 31C54.25 27.9468 53.6486 24.9234 52.4802 22.1026C51.3118 19.2818 49.5992 16.7187 47.4402 14.5598C45.2813 12.4008 42.7182 10.6882 39.8974 9.5198C37.0766 8.35138 34.0532 7.75 31 7.75C27.9468 7.75 24.9234 8.35138 22.1026 9.5198C19.2818 10.6882 16.7187 12.4008 14.5598 14.5598C12.4008 16.7187 10.6882 19.2818 9.5198 22.1026C8.35138 24.9234 7.75 27.9468 7.75 31C7.75 34.0532 8.35138 37.0766 9.5198 39.8974C10.6882 42.7182 12.4008 45.2813 14.5598 47.4402C16.7187 49.5992 19.2818 51.3118 22.1026 52.4802C24.9234 53.6486 27.9468 54.25 31 54.25C34.0532 54.25 37.0766 53.6486 39.8974 52.4802C42.7182 51.3118 45.2813 49.5992 47.4402 47.4402C49.5992 45.2813 51.3118 42.7182 52.4802 39.8974C53.6486 37.0766 54.25 34.0532 54.25 31ZM0 31C0 22.7783 3.26606 14.8933 9.07969 9.07969C14.8933 3.26606 22.7783 0 31 0C39.2217 0 47.1067 3.26606 52.9203 9.07969C58.7339 14.8933 62 22.7783 62 31C62 39.2217 58.7339 47.1067 52.9203 52.9203C47.1067 58.7339 39.2217 62 31 62C22.7783 62 14.8933 58.7339 9.07969 52.9203C3.26606 47.1067 0 39.2217 0 31ZM31 40.6875C33.5693 40.6875 36.0333 39.6669 37.8501 37.8501C39.6669 36.0333 40.6875 33.5693 40.6875 31C40.6875 28.4307 39.6669 25.9667 37.8501 24.1499C36.0333 22.3331 33.5693 21.3125 31 21.3125C28.4307 21.3125 25.9667 22.3331 24.1499 24.1499C22.3331 25.9667 21.3125 28.4307 21.3125 31C21.3125 33.5693 22.3331 36.0333 24.1499 37.8501C25.9667 39.6669 28.4307 40.6875 31 40.6875ZM31 13.5625C35.6247 13.5625 40.06 15.3997 43.3302 18.6698C46.6003 21.94 48.4375 26.3753 48.4375 31C48.4375 35.6247 46.6003 40.06 43.3302 43.3302C40.06 46.6003 35.6247 48.4375 31 48.4375C26.3753 48.4375 21.94 46.6003 18.6698 43.3302C15.3997 40.06 13.5625 35.6247 13.5625 31C13.5625 26.3753 15.3997 21.94 18.6698 18.6698C21.94 15.3997 26.3753 13.5625 31 13.5625ZM27.125 31C27.125 29.9723 27.5333 28.9867 28.26 28.26C28.9867 27.5333 29.9723 27.125 31 27.125C32.0277 27.125 33.0133 27.5333 33.74 28.26C34.4667 28.9867 34.875 29.9723 34.875 31C34.875 32.0277 34.4667 33.0133 33.74 33.74C33.0133 34.4667 32.0277 34.875 31 34.875C29.9723 34.875 28.9867 34.4667 28.26 33.74C27.5333 33.0133 27.125 32.0277 27.125 31Z" fill="#742ACE"/>
</g>
<defs>
<clipPath id="clip0_936_92">
<rect width="62" height="62" fill="white"/>
</clipPath>
</defs>
</svg>
