<svg width="62" height="55" viewBox="0 0 62 55" fill="none" xmlns="http://www.w3.org/2000/svg">
<path d="M17.2203 0C15.315 0 13.7757 1.53613 13.7757 3.4375C13.7757 5.33887 15.315 6.875 17.2203 6.875H22.6778L1.00916 28.5098C-0.336386 29.8525 -0.336386 32.0332 1.00916 33.376C2.3547 34.7188 4.53987 34.7188 5.88541 33.376L27.5541 11.7412V17.1875C27.5541 19.0889 29.0934 20.625 30.9987 20.625C32.9039 20.625 34.4433 19.0889 34.4433 17.1875V3.4375C34.4433 1.53613 32.9039 0 30.9987 0H17.2203ZM62 8.59375C62 7.22623 61.4556 5.91472 60.4867 4.94773C59.5177 3.98075 58.2035 3.4375 56.8331 3.4375C55.4628 3.4375 54.1485 3.98075 53.1796 4.94773C52.2106 5.91472 51.6662 7.22623 51.6662 8.59375C51.6662 9.96127 52.2106 11.2728 53.1796 12.2398C54.1485 13.2068 55.4628 13.75 56.8331 13.75C58.2035 13.75 59.5177 13.2068 60.4867 12.2398C61.4556 11.2728 62 9.96127 62 8.59375ZM48.2216 22.3438C48.2216 21.6666 48.088 20.9961 47.8283 20.3705C47.5687 19.745 47.1881 19.1765 46.7083 18.6977C46.2285 18.2189 45.6589 17.8391 45.032 17.58C44.4051 17.3209 43.7333 17.1875 43.0547 17.1875C42.3762 17.1875 41.7043 17.3209 41.0775 17.58C40.4506 17.8391 39.881 18.2189 39.4012 18.6977C38.9214 19.1765 38.5408 19.745 38.2812 20.3705C38.0215 20.9961 37.8878 21.6666 37.8878 22.3438C37.8878 23.0209 38.0215 23.6914 38.2812 24.317C38.5408 24.9425 38.9214 25.511 39.4012 25.9898C39.881 26.4686 40.4506 26.8484 41.0775 27.1075C41.7043 27.3666 42.3762 27.5 43.0547 27.5C43.7333 27.5 44.4051 27.3666 45.032 27.1075C45.6589 26.8484 46.2285 26.4686 46.7083 25.9898C47.1881 25.511 47.5687 24.9425 47.8283 24.317C48.088 23.6914 48.2216 23.0209 48.2216 22.3438ZM43.0547 41.25C44.4251 41.25 45.7393 40.7068 46.7083 39.7398C47.6773 38.7728 48.2216 37.4613 48.2216 36.0938C48.2216 34.7262 47.6773 33.4147 46.7083 32.4477C45.7393 31.4807 44.4251 30.9375 43.0547 30.9375C41.6844 30.9375 40.3702 31.4807 39.4012 32.4477C38.4322 33.4147 37.8878 34.7262 37.8878 36.0938C37.8878 37.4613 38.4322 38.7728 39.4012 39.7398C40.3702 40.7068 41.6844 41.25 43.0547 41.25ZM48.2216 49.8438C48.2216 49.1666 48.088 48.4961 47.8283 47.8705C47.5687 47.245 47.1881 46.6765 46.7083 46.1977C46.2285 45.7189 45.6589 45.3391 45.032 45.08C44.4051 44.8209 43.7333 44.6875 43.0547 44.6875C42.3762 44.6875 41.7043 44.8209 41.0775 45.08C40.4506 45.3391 39.881 45.7189 39.4012 46.1977C38.9214 46.6765 38.5408 47.245 38.2812 47.8705C38.0215 48.4961 37.8878 49.1666 37.8878 49.8438C37.8878 50.5209 38.0215 51.1914 38.2812 51.817C38.5408 52.4425 38.9214 53.011 39.4012 53.4898C39.881 53.9686 40.4506 54.3484 41.0775 54.6075C41.7043 54.8666 42.3762 55 43.0547 55C43.7333 55 44.4051 54.8666 45.032 54.6075C45.6589 54.3484 46.2285 53.9686 46.7083 53.4898C47.1881 53.011 47.5687 52.4425 47.8283 51.817C48.088 51.1914 48.2216 50.5209 48.2216 49.8438ZM62 49.8438C62 48.4762 61.4556 47.1647 60.4867 46.1977C59.5177 45.2307 58.2035 44.6875 56.8331 44.6875C55.4628 44.6875 54.1485 45.2307 53.1796 46.1977C52.2106 47.1647 51.6662 48.4762 51.6662 49.8438C51.6662 51.2113 52.2106 52.5228 53.1796 53.4898C54.1485 54.4568 55.4628 55 56.8331 55C58.2035 55 59.5177 54.4568 60.4867 53.4898C61.4556 52.5228 62 51.2113 62 49.8438ZM29.2764 41.25C30.6467 41.25 31.9609 40.7068 32.9299 39.7398C33.8989 38.7728 34.4433 37.4613 34.4433 36.0938C34.4433 34.7262 33.8989 33.4147 32.9299 32.4477C31.9609 31.4807 30.6467 30.9375 29.2764 30.9375C27.906 30.9375 26.5918 31.4807 25.6228 32.4477C24.6538 33.4147 24.1095 34.7262 24.1095 36.0938C24.1095 37.4613 24.6538 38.7728 25.6228 39.7398C26.5918 40.7068 27.906 41.25 29.2764 41.25ZM34.4433 49.8438C34.4433 48.4762 33.8989 47.1647 32.9299 46.1977C31.9609 45.2307 30.6467 44.6875 29.2764 44.6875C27.906 44.6875 26.5918 45.2307 25.6228 46.1977C24.6538 47.1647 24.1095 48.4762 24.1095 49.8438C24.1095 51.2113 24.6538 52.5228 25.6228 53.4898C26.5918 54.4568 27.906 55 29.2764 55C30.6467 55 31.9609 54.4568 32.9299 53.4898C33.8989 52.5228 34.4433 51.2113 34.4433 49.8438ZM15.498 55C16.8683 55 18.1825 54.4568 19.1515 53.4898C20.1205 52.5228 20.6649 51.2113 20.6649 49.8438C20.6649 48.4762 20.1205 47.1647 19.1515 46.1977C18.1825 45.2307 16.8683 44.6875 15.498 44.6875C14.1276 44.6875 12.8134 45.2307 11.8444 46.1977C10.8755 47.1647 10.3311 48.4762 10.3311 49.8438C10.3311 51.2113 10.8755 52.5228 11.8444 53.4898C12.8134 54.4568 14.1276 55 15.498 55ZM62 36.0938C62 34.7262 61.4556 33.4147 60.4867 32.4477C59.5177 31.4807 58.2035 30.9375 56.8331 30.9375C55.4628 30.9375 54.1485 31.4807 53.1796 32.4477C52.2106 33.4147 51.6662 34.7262 51.6662 36.0938C51.6662 37.4613 52.2106 38.7728 53.1796 39.7398C54.1485 40.7068 55.4628 41.25 56.8331 41.25C58.2035 41.25 59.5177 40.7068 60.4867 39.7398C61.4556 38.7728 62 37.4613 62 36.0938ZM56.8331 27.5C58.2035 27.5 59.5177 26.9568 60.4867 25.9898C61.4556 25.0228 62 23.7113 62 22.3438C62 20.9762 61.4556 19.6647 60.4867 18.6977C59.5177 17.7307 58.2035 17.1875 56.8331 17.1875C55.4628 17.1875 54.1485 17.7307 53.1796 18.6977C52.2106 19.6647 51.6662 20.9762 51.6662 22.3438C51.6662 23.7113 52.2106 25.0228 53.1796 25.9898C54.1485 26.9568 55.4628 27.5 56.8331 27.5Z" fill="#742ACE"/>
</svg>
