<svg width="62" height="62" viewBox="0 0 62 62" fill="none" xmlns="http://www.w3.org/2000/svg">
<g clip-path="url(#clip0_936_104)">
<path d="M39.5613 48.8855C36.8852 49.8543 34.0031 50.375 31 50.375C27.9969 50.375 25.1027 49.8422 22.4387 48.8855C22.4023 48.8734 22.3781 48.8613 22.3418 48.8492C18.709 47.5172 15.4637 45.3738 12.8238 42.625C8.47656 38.0961 5.8125 31.9566 5.8125 25.1875C5.8125 11.2738 17.0863 0 31 0C44.9137 0 56.1875 11.2738 56.1875 25.1875C56.1875 31.9566 53.5234 38.0961 49.1762 42.625C49.0551 42.7461 48.934 42.8793 48.8129 43.0004C46.2215 45.5918 43.073 47.6141 39.5734 48.8855H39.5613ZM31 10.1719C29.668 10.1719 28.5781 11.2617 28.5781 12.5938V14.2891C27.6578 14.4949 26.7375 14.8219 25.8898 15.3184C24.2066 16.3234 22.7535 18.0793 22.7656 20.6344C22.7777 23.0926 24.2188 24.6426 25.7566 25.5629C27.0887 26.3621 28.7477 26.8707 30.0676 27.2582L30.2734 27.3188C31.7992 27.7789 32.9133 28.1422 33.6641 28.6145C34.2816 29.002 34.3664 29.2684 34.3785 29.6074C34.3906 30.2129 34.1605 30.5762 33.6641 30.8789C33.0586 31.2543 32.102 31.4844 31.0727 31.448C29.7285 31.3996 28.4691 30.9758 26.8223 30.4187C26.5438 30.3219 26.2531 30.225 25.9504 30.1281C24.6789 29.7043 23.3105 30.3945 22.8867 31.6539C22.4629 32.9133 23.1531 34.2938 24.4125 34.7176C24.6426 34.7902 24.8969 34.875 25.1512 34.9719C26.1562 35.323 27.3187 35.7227 28.566 35.9891V37.7812C28.566 39.1133 29.6559 40.2031 30.9879 40.2031C32.3199 40.2031 33.4098 39.1133 33.4098 37.7812V36.1102C34.3785 35.9043 35.3473 35.5652 36.2191 35.0203C37.9508 33.9426 39.2586 32.102 39.2223 29.5711C39.1859 27.1129 37.8055 25.5266 36.2434 24.5336C34.8508 23.6617 33.107 23.1289 31.7508 22.7172L31.666 22.693C30.116 22.2207 29.0141 21.8816 28.2391 21.4215C27.6094 21.0461 27.5973 20.8281 27.5973 20.6102C27.5973 20.1621 27.7668 19.823 28.348 19.484C29.002 19.0965 29.9949 18.8664 30.9516 18.8785C32.1141 18.8906 33.3977 19.1449 34.7297 19.5082C36.0254 19.8473 37.3453 19.0844 37.6965 17.7887C38.0477 16.493 37.2727 15.173 35.977 14.8219C35.1898 14.616 34.318 14.4102 33.4219 14.2527V12.5938C33.4219 11.2617 32.332 10.1719 31 10.1719ZM5.8125 42.625H7.75C10.1113 45.7613 13.0781 48.4012 16.493 50.375H7.75V54.25H31H54.25V50.375H45.507C48.9219 48.4012 51.9008 45.7613 54.25 42.625H56.1875C59.3965 42.625 62 45.2285 62 48.4375V56.1875C62 59.3965 59.3965 62 56.1875 62H5.8125C2.60352 62 0 59.3965 0 56.1875V48.4375C0 45.2285 2.60352 42.625 5.8125 42.625Z" fill="#742ACE"/>
</g>
<defs>
<clipPath id="clip0_936_104">
<rect width="62" height="62" fill="white"/>
</clipPath>
</defs>
</svg>
