<svg width="62" height="62" viewBox="0 0 62 62" fill="none" xmlns="http://www.w3.org/2000/svg">
<g clip-path="url(#clip0_937_114)">
<path d="M31 0C39.2217 0 47.1067 3.26606 52.9203 9.07969C58.7339 14.8933 62 22.7783 62 31C62 39.2217 58.7339 47.1067 52.9203 52.9203C47.1067 58.7339 39.2217 62 31 62C22.7783 62 14.8933 58.7339 9.07969 52.9203C3.26606 47.1067 0 39.2217 0 31C0 22.7783 3.26606 14.8933 9.07969 9.07969C14.8933 3.26606 22.7783 0 31 0ZM28.0938 14.5312V31C28.0938 31.9688 28.5781 32.877 29.3895 33.4219L41.0145 41.1719C42.3465 42.068 44.1508 41.7047 45.0469 40.3605C45.943 39.0164 45.5797 37.2242 44.2355 36.3281L33.9062 29.45V14.5312C33.9062 12.9207 32.6105 11.625 31 11.625C29.3895 11.625 28.0938 12.9207 28.0938 14.5312Z" fill="#742ACE"/>
</g>
<defs>
<clipPath id="clip0_937_114">
<rect width="62" height="62" fill="white"/>
</clipPath>
</defs>
</svg>
