<svg width="68" height="60" viewBox="0 0 68 60" fill="none" xmlns="http://www.w3.org/2000/svg">
<path d="M5.1 5.625H14.45C15.8631 5.625 17 4.37109 17 2.8125C17 1.25391 15.8631 0 14.45 0H3.4C1.51937 0 0 1.67578 0 3.75V15.9375C0 17.4961 1.13688 18.75 2.55 18.75C3.96313 18.75 5.1 17.4961 5.1 15.9375V5.625ZM18.6788 26.25C19.3485 26.25 20.0117 26.1045 20.6304 25.8218C21.2492 25.5391 21.8114 25.1248 22.285 24.6025C22.7586 24.0801 23.1342 23.4601 23.3905 22.7776C23.6468 22.0951 23.7788 21.3637 23.7788 20.625C23.7788 19.8863 23.6468 19.1549 23.3905 18.4724C23.1342 17.7899 22.7586 17.1699 22.285 16.6475C21.8114 16.1252 21.2492 15.7109 20.6304 15.4282C20.0117 15.1455 19.3485 15 18.6788 15C18.009 15 17.3458 15.1455 16.7271 15.4282C16.1083 15.7109 15.5461 16.1252 15.0725 16.6475C14.5989 17.1699 14.2233 17.7899 13.967 18.4724C13.7107 19.1549 13.5787 19.8863 13.5787 20.625C13.5787 21.3637 13.7107 22.0951 13.967 22.7776C14.2233 23.4601 14.5989 24.0801 15.0725 24.6025C15.5461 25.1248 16.1083 25.5391 16.7271 25.8218C17.3458 26.1045 18.009 26.25 18.6788 26.25ZM15.8631 30C12.7394 30 10.2 32.8008 10.2 36.2461C10.2 37.9688 11.4644 39.375 13.0369 39.375H18.9975C19.8475 35.3789 22.4825 32.1445 25.925 30.75C25.1281 30.2695 24.2038 30 23.2369 30H15.8631ZM54.9631 39.375C56.525 39.375 57.8 37.9805 57.8 36.2461C57.8 32.7891 55.2606 30 52.1369 30H44.7631C43.7856 30 42.8719 30.2695 42.075 30.75C45.5175 32.1445 48.1525 35.3789 49.0025 39.375H54.9631ZM45.4644 39.375C44.5506 36.5273 42.2875 34.3828 39.525 33.8672C39.1106 33.7852 38.6856 33.75 38.25 33.75H29.75C29.3144 33.75 28.8894 33.7852 28.475 33.8672C25.7125 34.3828 23.4494 36.5273 22.5356 39.375C22.2488 40.2539 22.1 41.2031 22.1 42.1875C22.1 43.7461 23.2369 45 24.65 45H43.35C44.7631 45 45.9 43.7461 45.9 42.1875C45.9 41.2031 45.7513 40.2539 45.4644 39.375ZM49.3 26.25C49.9697 26.25 50.6329 26.1045 51.2517 25.8218C51.8704 25.5391 52.4327 25.1248 52.9062 24.6025C53.3798 24.0801 53.7555 23.4601 54.0118 22.7776C54.2681 22.0951 54.4 21.3637 54.4 20.625C54.4 19.8863 54.2681 19.1549 54.0118 18.4724C53.7555 17.7899 53.3798 17.1699 52.9062 16.6475C52.4327 16.1252 51.8704 15.7109 51.2517 15.4282C50.6329 15.1455 49.9697 15 49.3 15C48.6303 15 47.9671 15.1455 47.3483 15.4282C46.7296 15.7109 46.1673 16.1252 45.6938 16.6475C45.2202 17.1699 44.8445 17.7899 44.5882 18.4724C44.3319 19.1549 44.2 19.8863 44.2 20.625C44.2 21.3637 44.3319 22.0951 44.5882 22.7776C44.8445 23.4601 45.2202 24.0801 45.6938 24.6025C46.1673 25.1248 46.7296 25.5391 47.3483 25.8218C47.9671 26.1045 48.6303 26.25 49.3 26.25ZM40.8 22.5C40.8 20.5109 40.0836 18.6032 38.8083 17.1967C37.5331 15.7902 35.8035 15 34 15C32.1965 15 30.4669 15.7902 29.1917 17.1967C27.9164 18.6032 27.2 20.5109 27.2 22.5C27.2 24.4891 27.9164 26.3968 29.1917 27.8033C30.4669 29.2098 32.1965 30 34 30C35.8035 30 37.5331 29.2098 38.8083 27.8033C40.0836 26.3968 40.8 24.4891 40.8 22.5ZM53.55 5.625H62.9V15.9375C62.9 17.4961 64.0369 18.75 65.45 18.75C66.8631 18.75 68 17.4961 68 15.9375V3.75C68 1.67578 66.4806 0 64.6 0H53.55C52.1369 0 51 1.25391 51 2.8125C51 4.37109 52.1369 5.625 53.55 5.625ZM5.1 54.375V44.0625C5.1 42.5039 3.96313 41.25 2.55 41.25C1.13688 41.25 0 42.5039 0 44.0625V56.25C0 58.3242 1.51937 60 3.4 60H14.45C15.8631 60 17 58.7461 17 57.1875C17 55.6289 15.8631 54.375 14.45 54.375H5.1ZM53.55 54.375C52.1369 54.375 51 55.6289 51 57.1875C51 58.7461 52.1369 60 53.55 60H64.6C66.4806 60 68 58.3242 68 56.25V44.0625C68 42.5039 66.8631 41.25 65.45 41.25C64.0369 41.25 62.9 42.5039 62.9 44.0625V54.375H53.55Z" fill="#742ACE"/>
</svg>
