<svg width="62" height="56" viewBox="0 0 62 56" fill="none" xmlns="http://www.w3.org/2000/svg">
<path d="M20.6669 3.88878C20.6669 1.98357 22.2061 0.444336 24.1113 0.444336H37.8891C39.7943 0.444336 41.3335 1.98357 41.3335 3.88878V7.33322H46.5002C49.3526 7.33322 51.6669 9.64746 51.6669 12.4999V26.2777L56.446 27.8707C58.9325 28.6995 59.6214 31.9072 57.6839 33.6725L46.8123 43.6398C45.0686 44.6516 43.0773 45.2652 41.3335 45.2652C39.2238 45.2652 36.9419 44.4364 34.9613 43.0801C32.5825 41.4117 29.4071 41.4117 27.0283 43.0801C25.1877 44.3502 22.938 45.2652 20.6561 45.2652C18.9123 45.2652 16.921 44.6516 15.1773 43.6398L4.30575 33.6725C2.36824 31.8964 3.05713 28.6995 5.54359 27.8707L10.3335 26.2777V12.4999C10.3335 9.64746 12.6478 7.33322 15.5002 7.33322H20.6669V3.88878ZM17.2224 23.985L28.8259 20.1207C30.236 19.6471 31.7644 19.6471 33.1853 20.1207L44.778 23.985V14.2221H17.2224V23.985ZM32.9915 45.8572C35.4134 47.5256 38.3735 48.6666 41.3335 48.6666C44.229 48.6666 47.2967 47.5041 49.6648 45.8572C50.9457 44.9423 52.6894 45.0176 53.8842 46.0402C55.4342 47.3211 57.3825 48.3006 59.3307 48.7527C61.1821 49.1832 62.3339 51.0346 61.9033 52.886C61.4728 54.7374 59.6214 55.8891 57.77 55.4586C55.1328 54.845 52.937 53.6825 51.5054 52.7676C48.3839 54.4468 44.8856 55.5554 41.3335 55.5554C37.8998 55.5554 34.8106 54.4898 32.6794 53.5211C32.0551 53.2304 31.4846 52.9506 31.0002 52.6923C30.5158 52.9506 29.9561 53.2412 29.321 53.5211C27.1898 54.4898 24.1005 55.5554 20.6669 55.5554C17.1148 55.5554 13.6165 54.4468 10.495 52.7784C9.05262 53.6825 6.86755 54.8558 4.2304 55.4693C2.37901 55.8999 0.52762 54.7482 0.0970644 52.8968C-0.333491 51.0454 0.818245 49.194 2.66963 48.7634C4.6179 48.3113 6.56616 47.3318 8.11616 46.0509C9.31095 45.0391 11.0547 44.9638 12.3356 45.8679C14.7144 47.5041 17.7714 48.6666 20.6669 48.6666C23.6269 48.6666 26.587 47.5256 29.0089 45.8572C30.2037 45.0068 31.7967 45.0068 32.9915 45.8572Z" fill="#742ACE"/>
</svg>
