<svg width="32" height="32" viewBox="0 0 32 32" fill="none" xmlns="http://www.w3.org/2000/svg">
<path fill-rule="evenodd" clip-rule="evenodd" d="M16 24C20.4183 24 24 20.4183 24 16C24 11.5817 20.4183 8 16 8C11.5817 8 8 11.5817 8 16C8 20.4183 11.5817 24 16 24ZM16 21.3333C18.9455 21.3333 21.3333 18.9455 21.3333 16C21.3333 13.0545 18.9455 10.6667 16 10.6667C13.0545 10.6667 10.6667 13.0545 10.6667 16C10.6667 18.9455 13.0545 21.3333 16 21.3333Z" fill="white"/>
<path d="M23.9998 6.66669C23.2634 6.66669 22.6665 7.26365 22.6665 8.00002C22.6665 8.73639 23.2634 9.33335 23.9998 9.33335C24.7362 9.33335 25.3332 8.73639 25.3332 8.00002C25.3332 7.26365 24.7362 6.66669 23.9998 6.66669Z" fill="white"/>
<path fill-rule="evenodd" clip-rule="evenodd" d="M2.20544 5.70139C1.3335 7.41269 1.3335 9.6529 1.3335 14.1333V17.8666C1.3335 22.347 1.3335 24.5873 2.20544 26.2985C2.97243 27.8038 4.19627 29.0277 5.70158 29.7946C7.41287 30.6666 9.65308 30.6666 14.1335 30.6666H17.8668C22.3472 30.6666 24.5875 30.6666 26.2987 29.7946C27.804 29.0277 29.0279 27.8038 29.7948 26.2985C30.6668 24.5873 30.6668 22.347 30.6668 17.8666V14.1333C30.6668 9.6529 30.6668 7.41269 29.7948 5.70139C29.0279 4.19609 27.804 2.97225 26.2987 2.20526C24.5875 1.33331 22.3472 1.33331 17.8668 1.33331H14.1335C9.65308 1.33331 7.41287 1.33331 5.70158 2.20526C4.19627 2.97225 2.97243 4.19609 2.20544 5.70139ZM17.8668 3.99998H14.1335C11.8493 3.99998 10.2965 4.00206 9.09627 4.10011C7.92715 4.19563 7.32928 4.36877 6.91222 4.58127C5.90868 5.09261 5.09279 5.9085 4.58146 6.91203C4.36895 7.3291 4.19582 7.92697 4.1003 9.09609C4.00224 10.2963 4.00016 11.8491 4.00016 14.1333V17.8666C4.00016 20.1509 4.00224 21.7036 4.1003 22.9038C4.19582 24.073 4.36895 24.6709 4.58146 25.088C5.09279 26.0914 5.90868 26.9073 6.91222 27.4186C7.32928 27.6312 7.92715 27.8044 9.09627 27.8998C10.2965 27.9978 11.8493 28 14.1335 28H17.8668C20.1511 28 21.7038 27.9978 22.904 27.8998C24.0732 27.8044 24.6711 27.6312 25.0882 27.4186C26.0916 26.9073 26.9075 26.0914 27.4188 25.088C27.6314 24.6709 27.8046 24.073 27.9 22.9038C27.998 21.7036 28.0002 20.1509 28.0002 17.8666V14.1333C28.0002 11.8491 27.998 10.2963 27.9 9.09609C27.8046 7.92697 27.6314 7.3291 27.4188 6.91203C26.9075 5.9085 26.0916 5.09261 25.0882 4.58127C24.6711 4.36877 24.0732 4.19563 22.904 4.10011C21.7038 4.00206 20.1511 3.99998 17.8668 3.99998Z" fill="white"/>
</svg>
