<svg width="522" height="98" viewBox="0 0 522 98" fill="none" xmlns="http://www.w3.org/2000/svg">
<path fill-rule="evenodd" clip-rule="evenodd" d="M38.7467 47.8915C42.143 49.654 43.5729 50.5849 43.4463 56.38L43.4483 93.0418C43.4147 95.1177 41.9419 98.2315 38.5003 96.3491L3.13094 76.5253C0.711397 75.0307 -0.0714809 72.8287 0.00504397 71.4069L0.206172 30.5606C0.111618 29.5507 1.83323 27.0247 4.91946 28.881L38.7471 47.8919L38.7467 47.8915Z" fill="white"/>
<path fill-rule="evenodd" clip-rule="evenodd" d="M52.6976 48.9609C49.3013 50.7234 47.8713 51.6539 47.9979 57.4494L47.9959 94.1112C48.0296 96.1871 49.5024 99.301 52.944 97.4186L88.3133 77.5948C90.7329 76.1002 91.5157 73.8981 91.4392 72.4763L91.2381 31.63C91.3326 30.6201 89.611 28.0942 86.5248 29.9505L52.6972 48.9613L52.6976 48.9609Z" fill="white"/>
<path fill-rule="evenodd" clip-rule="evenodd" d="M50.6834 1.72702C47.4145 -0.249986 45.8704 -0.987761 40.7689 2.01629L8.09394 20.3454C6.26095 21.4118 4.22202 24.2079 7.62037 26.1635L42.9729 46.0161C45.5146 47.3052 47.8684 46.8629 49.0972 46.0877L85.4001 25.4954C86.3472 25.0703 87.7383 22.3582 84.5407 20.6892L50.6838 1.72702H50.6834Z" fill="white"/>
<path d="M145.677 36.8455C144.729 32.8297 142.71 29.7406 139.621 27.5783C136.531 25.3938 132.615 24.3016 127.871 24.3016C121.45 24.3016 116.397 26.1771 112.712 29.9282C109.028 33.6571 107.185 38.7872 107.185 45.3184C107.185 51.6951 108.972 56.781 112.547 60.5762C116.121 64.3713 120.91 66.2689 126.911 66.2689C131.854 66.2689 136.057 64.934 139.521 62.2642C143.007 59.5722 145.247 55.9536 146.24 51.4083H151.436C150.311 57.454 147.564 62.2421 143.195 65.7725C138.826 69.3028 133.442 71.068 127.044 71.068C119.519 71.068 113.496 68.7291 108.972 64.0514C104.471 59.3737 102.221 53.1293 102.221 45.3184C102.221 37.3088 104.504 31.0093 109.072 26.4199C113.639 21.8304 119.928 19.5356 127.937 19.5356C134.248 19.5356 139.411 21.0691 143.427 24.1361C147.442 27.2032 149.848 31.4396 150.642 36.8455H145.677ZM208.628 45.3184C208.628 53.3058 206.333 59.5943 201.744 64.1838C197.155 68.7733 190.866 71.068 182.879 71.068C174.869 71.068 168.581 68.7733 164.013 64.1838C159.446 59.5943 157.162 53.3058 157.162 45.3184C157.162 37.3088 159.446 31.0093 164.013 26.4199C168.581 21.8304 174.869 19.5356 182.879 19.5356C190.866 19.5356 197.155 21.8304 201.744 26.4199C206.333 31.0093 208.628 37.3088 208.628 45.3184ZM182.879 66.3351C189.344 66.3351 194.407 64.4706 198.07 60.7417C201.755 57.0127 203.597 51.8716 203.597 45.3184C203.597 38.7431 201.755 33.602 198.07 29.8951C194.407 26.1661 189.344 24.3016 182.879 24.3016C176.392 24.3016 171.306 26.1661 167.621 29.8951C163.958 33.602 162.127 38.7431 162.127 45.3184C162.127 51.8716 163.958 57.0127 167.621 60.7417C171.306 64.4706 176.392 66.3351 182.879 66.3351ZM217.862 69.7772V20.8264H225.673L246.326 65.2429L267.277 20.8264H274.459V69.7772H269.66L269.858 25.0298L249.106 69.7772H243.48L222.198 25.0298L222.695 69.7772H217.862ZM286.043 69.7772V20.8264H323.674V25.3938H290.941V42.5382H321.159V47.1387H290.941V65.1767H323.674V69.7772H286.043ZM327.348 69.7772L347.438 44.6233L328.771 20.8264H335.027L350.682 41.3136L366.403 20.8264H372.493L353.462 44.5571L373.452 69.7772H367.065L350.483 47.9661L333.736 69.7772H327.348ZM384.606 44.9543H398.772C403.957 44.9543 407.543 44.2262 409.528 42.7699C411.514 41.3136 412.507 38.7982 412.507 35.2237C412.507 31.6051 411.503 29.0676 409.495 27.6114C407.509 26.133 403.935 25.3938 398.772 25.3938H384.606V44.9543ZM379.708 69.7772V20.8264H399.632C405.744 20.8264 410.279 22.0179 413.235 24.4009C416.192 26.7619 417.67 30.3915 417.67 35.2899C417.67 40.1662 416.192 43.7959 413.235 46.1789C410.279 48.5398 405.744 49.7203 399.632 49.7203H384.606V69.7772H379.708ZM429.287 49.9189H451.727L440.54 24.8974L429.287 49.9189ZM415.188 69.7772L437.76 20.8264H443.387L465.694 69.7772H460.763L453.912 54.6518H427.136L420.219 69.7772H415.188ZM483.302 69.7772V48.6281L462.219 20.8264H468.441L485.718 44.6895L503.227 20.8264H509.25L488.167 48.6281V69.7772H483.302Z" fill="white"/>
</svg>
