<svg width="61" height="59" viewBox="0 0 61 59" fill="none" xmlns="http://www.w3.org/2000/svg">
<g clip-path="url(#clip0_314_168)">
<path d="M6.87441 22.2402L7.99434 24.1301C8.9832 25.801 10.6035 27.034 12.5217 27.5641L19.4199 29.4654C21.4691 30.0301 22.875 31.8393 22.875 33.902V38.4998C22.875 39.7674 23.6137 40.9197 24.7812 41.4844C25.9488 42.049 26.6875 43.2014 26.6875 44.4689V48.9631C26.6875 50.7607 28.4627 52.0629 30.2498 51.5674C32.168 51.0373 33.6572 49.5508 34.1457 47.6725L34.4793 46.3818C34.9797 44.4344 36.2902 42.7635 38.0893 41.7725L39.0543 41.2424C40.8414 40.2629 41.9375 38.4191 41.9375 36.4371V35.4807C41.9375 34.0172 41.3299 32.6113 40.2576 31.5742L39.793 31.1248C38.7207 30.0877 37.2672 29.5 35.7541 29.5H30.6191C29.2967 29.5 27.9861 29.1658 26.8305 28.532L22.7201 26.2619C22.2078 25.9738 21.8146 25.5129 21.624 24.9713C21.2428 23.865 21.7551 22.6666 22.8393 22.148L23.5422 21.8023C24.3285 21.4221 25.2459 21.3529 26.0799 21.6295L28.8439 22.5168C29.8209 22.8279 30.8932 22.4707 31.4531 21.6525C32.0131 20.8459 31.9535 19.7742 31.3102 19.0252L29.6898 17.1469C28.4984 15.7641 28.5104 13.7475 29.7256 12.3877L31.5961 10.2789C32.6445 9.09199 32.8113 7.39805 32.0131 6.0498L31.7271 5.56582C31.3102 5.54277 30.9051 5.53125 30.4881 5.53125C19.4318 5.53125 10.0555 12.549 6.87441 22.2402ZM55.2812 29.5C55.2812 25.2594 54.1375 21.2723 52.1359 17.8037L49.0859 18.9906C47.2154 19.7166 46.2504 21.7332 46.8818 23.577L48.8953 29.4193C49.3123 30.6178 50.325 31.5281 51.5879 31.8277L55.0549 32.6689C55.1979 31.6318 55.2693 30.5717 55.2693 29.5H55.2812ZM0 29.5C0 21.6761 3.21338 14.1727 8.93324 8.64035C14.6531 3.10803 22.4109 0 30.5 0C38.5891 0 46.3469 3.10803 52.0668 8.64035C57.7866 14.1727 61 21.6761 61 29.5C61 37.3239 57.7866 44.8273 52.0668 50.3596C46.3469 55.892 38.5891 59 30.5 59C22.4109 59 14.6531 55.892 8.93324 50.3596C3.21338 44.8273 0 37.3239 0 29.5Z" fill="white"/>
</g>
<defs>
<clipPath id="clip0_314_168">
<rect width="61" height="59" fill="white"/>
</clipPath>
</defs>
</svg>
