<svg width="78" height="62" viewBox="0 0 78 62" fill="none" xmlns="http://www.w3.org/2000/svg">
<path d="M65.2133 4.95595C64.0675 3.81728 64.0675 1.97602 65.2133 0.849466C66.3591 -0.277091 68.2119 -0.289204 69.3455 0.849466L77.1467 8.60211C77.6953 9.14722 78 9.88615 78 10.6614C78 11.4367 77.6953 12.1756 77.1467 12.7207L69.3455 20.4734C68.1997 21.612 66.3469 21.612 65.2133 20.4734C64.0797 19.3347 64.0675 17.4934 65.2133 16.3669L68.0169 13.5808L46.8073 13.5565C45.1861 13.5565 43.8819 12.2604 43.8819 10.6493C43.8819 9.0382 45.1861 7.74206 46.8073 7.74206H68.0291L65.2133 4.95595ZM12.7989 45.6573L9.99531 48.4435H31.2049C32.8261 48.4435 34.1303 49.7396 34.1303 51.3507C34.1303 52.9618 32.8261 54.2579 31.2049 54.2579H9.98312L12.7867 57.0441C13.9325 58.1827 13.9325 60.024 12.7867 61.1505C11.6409 62.2771 9.78809 62.2892 8.65448 61.1505L0.853258 53.41C0.304735 52.8649 0 52.126 0 51.3507C0 50.5754 0.304735 49.8365 0.853258 49.2914L8.65448 41.5388C9.80028 40.4001 11.6531 40.4001 12.7867 41.5388C13.9203 42.6774 13.9325 44.5187 12.7867 45.6452L12.7989 45.6573ZM11.7018 7.74206H41.188C40.737 8.61423 40.4688 9.59542 40.4688 10.6493C40.4688 14.1259 43.309 16.9483 46.8073 16.9483H61.1177C60.6301 19.0076 61.1908 21.2486 62.7998 22.8597C65.2743 25.3188 69.2846 25.3188 71.759 22.8597L74.1116 20.5218V46.5053C74.1116 50.7814 70.6132 54.2579 66.3104 54.2579H36.8242C37.2752 53.3858 37.5434 52.4046 37.5434 51.3507C37.5434 47.8741 34.7032 45.0517 31.2049 45.0517H16.8945C17.3821 42.9924 16.8214 40.7514 15.2124 39.1403C12.7379 36.6812 8.72761 36.6812 6.25316 39.1403L3.90061 41.4782V15.4947C3.90061 11.2186 7.39897 7.74206 11.7018 7.74206ZM19.503 15.4947H11.7018V23.2474C16.0047 23.2474 19.503 19.7708 19.503 15.4947ZM66.3104 38.7526C62.0075 38.7526 58.5091 42.2292 58.5091 46.5053H66.3104V38.7526ZM39.0061 42.629C42.1096 42.629 45.086 41.4038 47.2805 39.2229C49.4751 37.0421 50.7079 34.0842 50.7079 31C50.7079 27.9158 49.4751 24.9579 47.2805 22.7771C45.086 20.5962 42.1096 19.371 39.0061 19.371C35.9026 19.371 32.9262 20.5962 30.7317 22.7771C28.5371 24.9579 27.3043 27.9158 27.3043 31C27.3043 34.0842 28.5371 37.0421 30.7317 39.2229C32.9262 41.4038 35.9026 42.629 39.0061 42.629Z" fill="white"/>
</svg>
