<svg width="492" height="373" viewBox="0 0 492 373" fill="none" xmlns="http://www.w3.org/2000/svg">
<g clip-path="url(#clip0_314_526)">
<path d="M148.396 39.2744C148.396 20.7518 138.884 5.93286 120.602 5.93286C104.105 5.93286 93.6538 20.9697 93.6538 39.2744" fill="#C1D8ED"/>
<path d="M120.603 5.9375C138.868 5.9375 148.366 20.7308 148.396 39.2265C148.412 39.3602 148.419 39.4947 148.417 39.6293V216.742C148.397 221.134 149.242 225.486 150.907 229.55C152.571 233.613 155.02 237.307 158.114 240.42C161.208 243.533 164.886 246.003 168.937 247.688C172.987 249.374 177.33 250.241 181.716 250.241C186.102 250.241 190.445 249.374 194.496 247.688C198.546 246.003 202.224 243.533 205.318 240.42C208.412 237.307 210.861 233.613 212.526 229.55C214.19 225.486 215.036 221.134 215.015 216.742H321.072V42.9806C321.072 23.1487 309.638 6.80332 289.831 5.9375H120.603Z" fill="#D7E8F4"/>
<path d="M181.717 250.081H321.072C325.445 250.081 329.775 249.219 333.815 247.544C337.855 245.868 341.526 243.412 344.618 240.316C347.71 237.22 350.163 233.545 351.837 229.5C353.51 225.454 354.371 221.119 354.371 216.74H215.016C215.035 221.124 214.186 225.468 212.519 229.521C210.852 233.574 208.4 237.257 205.304 240.357C202.208 243.456 198.53 245.912 194.482 247.581C190.434 249.25 186.095 250.1 181.717 250.081Z" fill="#C1D8ED"/>
<path d="M199.337 77.5908L270.821 77.5908C274.045 77.5908 276.658 74.9744 276.658 71.7469C276.658 68.5194 274.045 65.903 270.821 65.903L199.337 65.903C196.113 65.903 193.5 68.5194 193.5 71.7469C193.5 74.9744 196.113 77.5908 199.337 77.5908Z" fill="#FAFBFC"/>
<path d="M291.243 106.049H178.915C177.542 106.049 176.428 107.163 176.428 108.539V108.539C176.428 109.914 177.542 111.029 178.915 111.029H291.243C292.617 111.029 293.73 109.914 293.73 108.539V108.539C293.73 107.163 292.617 106.049 291.243 106.049Z" fill="#FAFBFC"/>
<path d="M291.243 94.0886H178.915C177.542 94.0886 176.428 95.2034 176.428 96.5786V96.5794C176.428 97.9545 177.542 99.0693 178.915 99.0693H291.243C292.617 99.0693 293.73 97.9545 293.73 96.5794V96.5786C293.73 95.2034 292.617 94.0886 291.243 94.0886Z" fill="#FAFBFC"/>
<path d="M291.243 118.009H178.915C177.542 118.009 176.428 119.124 176.428 120.499V120.5C176.428 121.875 177.542 122.99 178.915 122.99H291.243C292.617 122.99 293.73 121.875 293.73 120.5V120.499C293.73 119.124 292.617 118.009 291.243 118.009Z" fill="#FAFBFC"/>
<path d="M291.243 129.97H178.915C177.542 129.97 176.428 131.085 176.428 132.46V132.46C176.428 133.836 177.542 134.95 178.915 134.95H291.243C292.617 134.95 293.73 133.836 293.73 132.46V132.46C293.73 131.085 292.617 129.97 291.243 129.97Z" fill="#FAFBFC"/>
<path d="M291.243 141.93H178.915C177.542 141.93 176.428 143.045 176.428 144.42V144.421C176.428 145.796 177.542 146.911 178.915 146.911H291.243C292.617 146.911 293.73 145.796 293.73 144.421V144.42C293.73 143.045 292.617 141.93 291.243 141.93Z" fill="#FAFBFC"/>
<path d="M291.243 165.851H178.915C177.542 165.851 176.428 166.966 176.428 168.341V168.342C176.428 169.717 177.542 170.832 178.915 170.832H291.243C292.617 170.832 293.73 169.717 293.73 168.342V168.341C293.73 166.966 292.617 165.851 291.243 165.851Z" fill="#FAFBFC"/>
<path d="M291.243 153.891H178.915C177.542 153.891 176.428 155.006 176.428 156.381V156.382C176.428 157.757 177.542 158.872 178.915 158.872H291.243C292.617 158.872 293.73 157.757 293.73 156.382V156.381C293.73 155.006 292.617 153.891 291.243 153.891Z" fill="#FAFBFC"/>
<path d="M257.463 177.812H212.695C211.322 177.812 210.208 178.926 210.208 180.302V180.302C210.208 181.677 211.322 182.792 212.695 182.792H257.463C258.837 182.792 259.95 181.677 259.95 180.302V180.302C259.95 178.926 258.837 177.812 257.463 177.812Z" fill="#FAFBFC"/>
<path d="M79.6357 29.5792C79.8609 32.3368 76.9904 34.9042 76.5175 37.5031C76.0281 40.1923 77.7831 43.6075 76.6376 46.02C75.4764 48.4672 71.7112 49.2609 69.9705 51.3119C68.2297 53.363 68.0533 57.2111 65.8285 58.7526C63.6351 60.273 59.9855 59.0885 57.4146 60.0054C54.9292 60.8915 52.8612 64.1391 50.1064 64.3646C47.3515 64.5901 44.7881 61.7153 42.1924 61.2418C39.5066 60.7518 36.0957 62.5089 33.6862 61.362C31.2421 60.1993 30.4494 56.4294 28.4009 54.6865C26.3524 52.9436 22.5092 52.767 20.9696 50.5393C19.4511 48.3432 20.6341 44.689 19.7183 42.1148C18.8333 39.6264 15.5898 37.5558 15.3646 34.7975C15.1394 32.0392 18.0106 29.4725 18.4835 26.8735C18.9729 24.1844 17.2179 20.7692 18.3634 18.3566C19.5246 15.9095 23.2898 15.1158 25.0306 13.0648C26.7713 11.0137 26.9477 7.16562 29.1726 5.62413C31.3659 4.10369 35.0155 5.28818 37.5865 4.37125C40.0718 3.48514 42.1398 0.237562 44.8947 0.0120885C47.6495 -0.213385 50.2129 2.66141 52.8087 3.1349C55.4944 3.62493 58.9053 1.86774 61.3149 3.01465C63.7589 4.17734 64.5546 7.94727 66.6001 9.69018C68.6456 11.4331 72.4919 11.6097 74.0314 13.8374C75.55 16.0335 74.367 19.6877 75.2827 22.2619C76.1677 24.7503 79.4128 26.8209 79.6357 29.5792Z" fill="#0F1011"/>
<path d="M37.5234 59.5523C39.0097 57.0345 40.6011 52.1568 39.8654 43.1002L51.8606 40.8831C51.8606 40.8831 50.5095 55.0128 56.5221 59.5523H37.5234Z" fill="#E98862"/>
<path opacity="0.15" d="M54.108 56.6151L44.1523 48.9753L51.977 48.9001C52.2011 51.5823 52.9239 54.1988 54.108 56.6151Z" fill="black"/>
<path d="M33.066 36.959C33.8917 41.7616 36.5055 46.3102 40.7338 47.8652C45.343 49.7015 50.3308 50.3808 55.2624 49.8441C68.3918 48.7776 65.8216 18.8865 59.5936 13.0776C53.3655 7.26863 35.0702 10.9266 32.8363 20.6355C31.6811 25.6538 32.2771 32.3879 33.066 36.959Z" fill="#E98862"/>
<path d="M51.8509 33.277C52.4516 33.277 52.9385 32.7894 52.9385 32.1879C52.9385 31.5865 52.4516 31.0989 51.8509 31.0989C51.2501 31.0989 50.7632 31.5865 50.7632 32.1879C50.7632 32.7894 51.2501 33.277 51.8509 33.277Z" fill="#0F1011"/>
<path d="M60.4319 32.5802C61.0326 32.5802 61.5196 32.0926 61.5196 31.4911C61.5196 30.8897 61.0326 30.4021 60.4319 30.4021C59.8312 30.4021 59.3442 30.8897 59.3442 31.4911C59.3442 32.0926 59.8312 32.5802 60.4319 32.5802Z" fill="#0F1011"/>
<path d="M62.3191 29.1726H62.3123L59.4314 29.1335C59.2993 29.1276 59.1746 29.0707 59.0835 28.9747C58.9924 28.8788 58.942 28.7512 58.9429 28.6188C58.9438 28.4864 58.9958 28.3595 59.0882 28.2647C59.1805 28.17 59.306 28.1147 59.4381 28.1106H59.4449L62.3258 28.1489C62.4614 28.1498 62.5911 28.2046 62.6863 28.3012C62.7815 28.3978 62.8345 28.5284 62.8336 28.6641C62.8328 28.7999 62.778 28.9297 62.6815 29.0251C62.585 29.1204 62.4547 29.1735 62.3191 29.1726Z" fill="#0F1011"/>
<path d="M49.5043 30.2135C49.3793 30.213 49.2589 30.1667 49.1657 30.0833C49.0725 29.9999 49.0131 29.8853 48.9986 29.7611C48.9841 29.6368 49.0155 29.5115 49.087 29.4089C49.1584 29.3063 49.265 29.2334 49.3864 29.2041L52.2276 28.5224C52.2936 28.5045 52.3625 28.5001 52.4303 28.5094C52.498 28.5186 52.5632 28.5414 52.622 28.5764C52.6808 28.6113 52.732 28.6577 52.7726 28.7129C52.8132 28.768 52.8423 28.8307 52.8582 28.8973C52.8741 28.9639 52.8765 29.033 52.8653 29.1005C52.8541 29.1681 52.8294 29.2327 52.7928 29.2905C52.7562 29.3483 52.7084 29.3982 52.6521 29.4372C52.5959 29.4762 52.5325 29.5035 52.4655 29.5175L49.6244 30.1992C49.585 30.2087 49.5447 30.2135 49.5043 30.2135Z" fill="#0F1011"/>
<path d="M52.3462 40.7656C52.3462 40.7656 56.3606 41.1933 59.177 40.2109C59.177 40.2109 59.1522 42.8588 55.9755 43.1165C52.7988 43.3743 52.3462 40.7656 52.3462 40.7656Z" fill="#F8FCFF"/>
<path d="M41.911 24.5271C42.6989 35.7812 41.4617 47.0856 38.2584 57.9018C38.2584 57.9018 29.1058 42.0998 27.6901 28.9434C26.363 16.61 35.4465 9.3362 41.5799 7.96683C64.888 2.77266 66.5657 19.82 66.5657 19.82C62.3193 28.6608 39.3881 28.6217 39.3881 28.6217" fill="#0F1011"/>
<path d="M46.3549 36.8771C46.4391 38.0895 46.0426 39.2863 45.2512 40.2078C44.4598 41.1293 43.3374 41.7012 42.1275 41.7995C40.9177 41.8977 39.7179 41.5143 38.7886 40.7325C37.8592 39.9507 37.2752 38.8336 37.1633 37.6234C37.1038 37.0171 37.1669 36.405 37.3486 35.8236C37.5303 35.2422 37.827 34.7034 38.2211 34.2392C38.6151 33.7751 39.0984 33.395 39.6422 33.1218C40.186 32.8485 40.7792 32.6876 41.3864 32.6487C44.6727 32.5435 46.1492 34.336 46.3549 36.8771Z" fill="#E98862"/>
<g opacity="0.15">
<path d="M56.6731 38.2329C56.5833 38.2328 56.4965 38.2004 56.4284 38.1417C56.3604 38.0829 56.3157 38.0016 56.3025 37.9126C56.2892 37.8237 56.3082 37.7329 56.3562 37.6568C56.4041 37.5807 56.4777 37.5243 56.5636 37.4979L58.7757 36.8215L57.2324 33.3702C57.1917 33.2792 57.1887 33.1758 57.2242 33.0826C57.2597 32.9894 57.3307 32.9142 57.4215 32.8734C57.5124 32.8327 57.6157 32.8297 57.7088 32.8652C57.8018 32.9008 57.877 32.9718 57.9177 33.0628L59.6359 36.9034C59.6576 36.952 59.6687 37.0047 59.6686 37.0579C59.6684 37.1111 59.6569 37.1637 59.6349 37.2122C59.6129 37.2606 59.5809 37.3039 59.5409 37.339C59.501 37.3741 59.454 37.4004 59.4032 37.416L56.7842 38.2187C56.7481 38.229 56.7107 38.2338 56.6731 38.2329Z" fill="black"/>
</g>
<path d="M77.5522 164.126C92.5275 230.181 106.088 296.679 116.789 363.571L101.746 366.669C85.2087 300.981 71.4518 234.521 59.1714 167.912L77.5522 164.126Z" fill="#E98862"/>
<path d="M46.5974 168.218C47.9726 233.84 47.8735 299.61 44.8927 365.187H29.5354C26.5561 299.61 26.4578 233.839 27.8315 168.218H46.5974Z" fill="#E98862"/>
<path d="M64.7621 371.25C65.186 371.248 65.6049 371.159 65.9927 370.987C66.3805 370.816 66.7288 370.566 67.0159 370.254C67.3031 369.941 67.5228 369.573 67.6614 369.172C67.8 368.771 67.8546 368.345 67.8217 367.922C67.7765 367.335 67.5645 366.774 67.2109 366.303C66.8573 365.833 66.3766 365.474 65.8257 365.268L47.4787 359.115C47.1232 358.997 46.7464 358.957 46.3742 358.999C46.0019 359.04 45.643 359.162 45.3221 359.355C42.7999 361.107 39.7829 362.003 36.7145 361.91C34.3244 361.74 32.0301 360.901 30.0932 359.489C29.923 359.349 29.7166 359.26 29.498 359.234C29.2795 359.207 29.0579 359.243 28.859 359.337C28.6601 359.432 28.4922 359.581 28.3748 359.768C28.2575 359.954 28.1956 360.17 28.1963 360.391V369.374C28.1962 369.639 28.2484 369.901 28.3499 370.146C28.4514 370.391 28.6002 370.613 28.7878 370.8C28.9753 370.987 29.1979 371.135 29.4428 371.236C29.6877 371.336 29.9501 371.388 30.2148 371.386L64.7621 371.25Z" fill="#C1D8ED"/>
<path d="M135.121 371.25C135.545 371.248 135.964 371.159 136.352 370.987C136.74 370.816 137.088 370.566 137.376 370.254C137.663 369.942 137.882 369.573 138.021 369.172C138.16 368.771 138.214 368.345 138.181 367.922C138.136 367.335 137.924 366.774 137.57 366.303C137.217 365.833 136.737 365.474 136.186 365.268L117.838 359.115C117.483 358.997 117.106 358.957 116.734 358.999C116.362 359.04 116.003 359.162 115.682 359.355C113.16 361.107 110.142 362.003 107.074 361.91C104.684 361.74 102.39 360.901 100.453 359.489C100.283 359.349 100.077 359.261 99.858 359.234C99.6395 359.207 99.4178 359.243 99.2189 359.337C99.02 359.432 98.8521 359.581 98.7346 359.768C98.6172 359.954 98.5551 360.17 98.5557 360.391V369.374C98.5557 369.639 98.6079 369.901 98.7095 370.146C98.811 370.39 98.9598 370.613 99.1474 370.8C99.3349 370.987 99.5575 371.135 99.8023 371.235C100.047 371.336 100.309 371.387 100.574 371.386L135.121 371.25Z" fill="#C1D8ED"/>
<path d="M18.3156 139.886C18.3156 139.886 9.78831 178.12 9.78831 210.275C9.78831 242.43 0 292.23 0 292.23C0 292.23 27.7488 287.736 46.5725 292.23C79.0068 299.973 108.092 283.112 108.092 283.112L75.424 143.416L18.3156 139.886Z" fill="#262626"/>
<path d="M165.928 104.087C165.928 104.087 172.09 101.089 176.718 102.24C181.346 103.39 179.178 105.384 175.81 106.094C172.442 106.803 165.043 107.957 165.043 107.957" fill="#E98862"/>
<path d="M169.528 103.943C169.528 103.943 180.951 102.741 181.07 105.493C181.07 105.493 181.57 113.982 180.019 115.295C177.676 117.276 166.073 115.725 166.073 115.725L169.528 103.943Z" fill="#E98862"/>
<path d="M139.329 117.974H94.6823C93.3604 117.974 92.0598 117.641 90.9002 117.006C89.7405 116.371 88.7589 115.454 88.0459 114.339L59.8354 70.2456L73.112 61.7324L98.997 102.191H139.332L139.329 117.974Z" fill="#D44CE0"/>
<path d="M79.0422 144.872C75.897 152.11 14.097 155.116 13.2713 142.384C12.7459 134.282 19.8769 127.21 19.8769 111.419C19.8769 95.6287 5.36862 75.4631 17.1897 63.6257C20.6201 60.1917 26.5426 57.9746 33.7637 57.967C34.3042 62.1827 59.8709 62.1984 60.0661 58.0648C61.0419 58.0798 61.8 58.0941 62.2729 58.1174C87.1791 59.1921 76.2348 87.5718 75.9946 108.421C75.7033 132.817 82.2864 137.417 79.0422 144.872Z" fill="#D44CE0"/>
<path d="M60.0675 58.0648C59.8723 62.1984 57.6279 68.278 50.6995 68.7372C41.4667 69.346 34.3056 62.1827 33.7651 57.967H33.7877C42.8779 57.967 54.768 57.9821 60.0675 58.0648Z" fill="#E98862"/>
<path d="M132.774 155.177C157.648 155.177 177.812 134.987 177.812 110.082C177.812 85.1772 157.648 64.9875 132.774 64.9875C107.9 64.9875 87.7358 85.1772 87.7358 110.082C87.7358 134.987 107.9 155.177 132.774 155.177Z" fill="#0CBC8B"/>
<g opacity="0.29">
<path d="M132.774 139.316C148.899 139.316 161.971 126.228 161.971 110.082C161.971 93.9371 148.899 80.8489 132.774 80.8489C116.649 80.8489 103.577 93.9371 103.577 110.082C103.577 126.228 116.649 139.316 132.774 139.316Z" fill="white"/>
</g>
<path d="M123.218 120.525L125.941 116.296C128.1 117.949 129.988 118.797 131.996 118.797C134.403 118.797 135.462 117.797 135.462 115.862C135.462 111.487 124.252 111.566 124.252 103.893C124.252 98.9605 127.665 95.8189 133.046 95.8189C134.574 95.7968 136.089 96.1081 137.485 96.731C138.881 97.354 140.125 98.2738 141.13 99.4265L138.006 103.009C136.463 101.604 135.154 100.863 133.381 100.863C131.337 100.863 130.228 101.69 130.228 103.598C130.228 107.657 141.438 107.299 141.438 115.427C141.438 120.312 138.21 123.845 131.995 123.845C128.777 123.771 125.681 122.6 123.218 120.525ZM130.687 91.6514H134.829V97.7752H130.686L130.687 91.6514ZM130.687 121.288H134.829V128.008H130.686L130.687 121.288Z" fill="white"/>
<path d="M180.015 115.301C179.804 115.469 179.569 115.603 179.317 115.698C177.971 115.976 174.577 115.163 174.033 114.22C173.147 112.686 173.697 107.144 174.478 105.133C175.211 103.254 178.864 104.041 179.344 104.13C179.359 104.136 179.374 104.14 179.389 104.143C180.386 104.416 181.041 104.843 181.069 105.499C181.069 105.499 181.572 113.984 180.015 115.301Z" fill="#E98862"/>
<path d="M80.5703 120.425C80.5703 120.425 82.3786 110.539 89.364 112.259C93.771 113.345 106.579 111.407 106.774 117.074C106.942 121.99 94.9135 123.301 90.9351 122.892C87.3643 122.524 80.5703 120.425 80.5703 120.425Z" fill="#E98862"/>
<path d="M86.8057 112.15C86.8057 112.15 97.1967 110.615 99.5177 111.603C101.573 112.478 96.5152 115.211 96.5152 115.211L86.8057 112.15Z" fill="#E98862"/>
<path d="M90.1299 125.915L43.6804 124.496C42.2307 124.452 40.8187 124.023 39.5891 123.252C38.3595 122.482 37.3566 121.398 36.683 120.112L13.7495 76.3288L28.2443 68.7175L48.9574 108.262L90.629 109.535L90.1299 125.915Z" fill="#BF43CA"/>
<path d="M353.506 364.869L369.159 363.005C368.454 357.073 367.658 349.947 367.603 348.778C367.603 348.853 367.603 348.915 367.603 348.962H351.84C351.843 349.436 351.843 350.876 353.506 364.869Z" fill="#E98862"/>
<path d="M416.316 366.755L432.08 366.704C432.08 366.704 432.027 350.406 432.027 348.962H416.264C416.264 350.41 416.316 366.755 416.316 366.755Z" fill="#E98862"/>
<path d="M347.69 359.411C348.994 326.335 349.074 291.595 349.482 258.431C354.901 222.661 357.753 183.429 364.445 147.911L364.646 147.969L365.233 143.964L422.338 140.432L424.348 177.785C427.222 227.826 432.78 308.271 436.142 358.982L408.467 361.329C403.524 311.455 396.215 232.002 391.748 182.846C386.847 207.893 381.474 236.1 377.122 261.444C376.17 293.821 375.373 327.56 375.459 359.885L347.69 359.411Z" fill="#262626"/>
<path d="M397.153 372.859C396.729 372.857 396.31 372.767 395.922 372.596C395.534 372.424 395.186 372.175 394.899 371.863C394.612 371.55 394.392 371.182 394.253 370.781C394.115 370.38 394.06 369.954 394.093 369.531C394.139 368.945 394.351 368.383 394.705 367.913C395.058 367.444 395.539 367.085 396.089 366.879L414.436 360.726C414.792 360.608 415.168 360.568 415.541 360.61C415.913 360.652 416.271 360.773 416.592 360.966C419.115 362.718 422.132 363.614 425.201 363.522C427.591 363.351 429.885 362.512 431.822 361.1C431.992 360.96 432.198 360.872 432.417 360.845C432.636 360.818 432.857 360.854 433.056 360.949C433.255 361.043 433.423 361.192 433.54 361.379C433.658 361.565 433.719 361.782 433.719 362.002V370.987C433.719 371.252 433.666 371.515 433.565 371.759C433.463 372.004 433.315 372.226 433.127 372.413C432.94 372.6 432.717 372.748 432.472 372.849C432.227 372.95 431.965 373.001 431.7 373L397.153 372.859Z" fill="#C1D8ED"/>
<path d="M334.3 372.859C333.876 372.857 333.457 372.767 333.069 372.596C332.681 372.424 332.333 372.175 332.045 371.863C331.758 371.55 331.538 371.182 331.4 370.781C331.261 370.38 331.206 369.955 331.239 369.531C331.285 368.945 331.497 368.384 331.851 367.914C332.205 367.444 332.685 367.085 333.235 366.879L351.583 360.726C351.938 360.608 352.315 360.568 352.687 360.61C353.059 360.652 353.418 360.773 353.739 360.966C356.261 362.718 359.279 363.614 362.347 363.522C364.737 363.351 367.031 362.512 368.968 361.1C369.138 360.96 369.344 360.872 369.563 360.845C369.781 360.818 370.003 360.854 370.202 360.949C370.401 361.043 370.569 361.192 370.686 361.379C370.803 361.565 370.865 361.782 370.865 362.002V370.987C370.865 371.252 370.812 371.514 370.711 371.759C370.609 372.004 370.461 372.226 370.273 372.413C370.086 372.6 369.863 372.748 369.619 372.849C369.374 372.95 369.112 373.001 368.847 373L334.3 372.859Z" fill="#C1D8ED"/>
<path d="M400.401 194.985V243.805C400.401 245.772 401.182 247.658 402.57 249.048C403.959 250.439 405.843 251.221 407.807 251.221H484.594C486.558 251.221 488.442 250.439 489.83 249.048C491.219 247.658 491.999 245.772 491.999 243.805V194.985C491.999 193.019 491.219 191.133 489.83 189.742C488.441 188.351 486.558 187.57 484.594 187.57H464.299V182.418C464.296 180.58 463.566 178.819 462.268 177.519C460.971 176.22 459.211 175.489 457.375 175.486H435.025C433.189 175.489 431.429 176.22 430.132 177.519C428.834 178.819 428.104 180.58 428.101 182.418V187.57H407.807C405.843 187.57 403.959 188.351 402.57 189.742C401.182 191.133 400.401 193.019 400.401 194.985ZM459.795 187.57H432.605V182.418C432.606 181.776 432.861 181.16 433.315 180.706C433.768 180.252 434.383 179.997 435.025 179.996H457.375C458.017 179.997 458.632 180.252 459.085 180.706C459.539 181.16 459.794 181.776 459.795 182.418V187.57Z" fill="#0CBC8B"/>
<path d="M296.802 124.398C294.625 124.909 287.073 125.466 286.986 127.439C286.934 128.623 292.667 128.661 292.667 128.661" fill="#E98862"/>
<path d="M292.544 138.919C301.547 136.808 308.247 132.536 307.508 129.379C306.769 126.221 298.872 125.373 289.869 127.485C280.867 129.596 274.167 133.867 274.906 137.025C275.645 140.183 283.542 141.031 292.544 138.919Z" fill="#E98862"/>
<path d="M439.107 166.018C439.107 168.258 437.926 175.746 439.826 176.281C440.964 176.601 442.31 171.02 442.31 171.02" fill="#E98862"/>
<path d="M448.075 164.842C448.075 164.842 454.5 171.773 450.133 179.996C449.527 181.136 443.623 181.805 443.623 180.408C443.623 174.546 443.169 169.948 439.312 171.353V161.91" fill="#E98862"/>
<path d="M335.985 107.743L363.937 65.9203L364.102 66.0307C366.504 62.3623 370.629 60.0181 377.444 59.7265C377.916 59.7039 378.675 59.6889 379.651 59.6739C379.846 63.8076 405.412 63.7925 405.953 59.5762C413.174 59.5837 419.096 61.8008 422.528 65.2356C424.123 66.8169 425.346 68.7339 426.11 70.8476L426.2 70.807L444.345 111.711C444.66 112.422 444.873 113.173 444.976 113.944L452.025 166.426L435.805 168.61L428.914 117.291L421.764 101.172C420.618 105.025 419.972 109.01 419.843 113.029C419.843 128.819 426.974 135.892 426.448 143.994C425.622 156.725 363.822 153.719 360.678 146.481C357.435 139.026 364.018 134.426 363.725 110.03C363.607 105.748 363.268 101.476 362.708 97.2296L348.091 119.101C347.118 120.557 345.704 121.664 344.057 122.257L298.3 138.717L292.767 123.293L335.985 107.743Z" fill="#367CFF"/>
<path d="M379.653 59.6754C379.848 63.8091 382.093 69.8894 389.021 70.3479C398.254 70.9567 405.414 63.7941 405.956 59.5777H405.932C396.843 59.5762 384.953 59.5913 379.653 59.6754Z" fill="#E98862"/>
<path d="M399.589 49.8222C399.56 48.1267 399.62 46.4308 399.768 44.7415C397.753 44.3657 389.926 42.9167 387.774 42.5168C388.189 43.9907 387.813 55.1359 385.522 58.2324C384.951 59.3435 384.153 60.3218 383.18 61.1034H402.041C400.871 59.0892 399.67 55.6169 399.589 49.8222Z" fill="#E98862"/>
<path opacity="0.15" d="M385.512 58.2427L395.474 50.6112L387.65 50.53C387.423 53.2118 386.698 55.8277 385.512 58.2427Z" fill="black"/>
<path d="M406.571 38.6055C405.044 49.8973 394.165 52.3136 384.363 51.4703C371.235 50.3926 373.832 20.5052 380.065 14.6985C386.297 8.89184 404.593 12.5693 406.816 22.2797C407.967 27.3018 407.362 34.0352 406.571 38.6055Z" fill="#E98862"/>
<path d="M370.882 11.9237C370.874 7.94036 375.847 1.45498 388.993 10.4281C396.204 10.5596 400.386 10.9437 405.691 14.9068C417.349 22.8773 407.217 47.8831 400.204 49.65C399.487 50.0777 399.312 49.7297 399.063 48.9308C398.28 45.9785 397.72 42.9715 397.387 39.9351C396.958 36.7785 394.126 34.7718 394.468 30.9913C394.588 29.67 396.713 24.8284 390.135 24.7735C375.777 25.7333 369.273 23.5116 370.882 11.9237Z" fill="#0F1011"/>
<path d="M393.449 36.4831C392.874 42.4454 402.239 43.215 402.64 37.2347C403.33 31.0792 393.305 30.6426 393.449 36.4831Z" fill="#E98862"/>
<path d="M395.475 21.8379L398.871 23.0825C397.835 25.9325 399.662 52.2663 390.096 52.6331C377.255 54.225 374.952 50.3423 375.432 40.1945C395.1 42.4282 393.627 39.6082 395.475 21.8379Z" fill="#0F1011"/>
<path d="M386.707 33.7292C386.693 34.0119 386.789 34.289 386.975 34.502C387.162 34.7149 387.423 34.8469 387.705 34.8699C387.987 34.893 388.267 34.8053 388.485 34.6255C388.703 34.4457 388.843 34.1878 388.875 33.9066C388.889 33.6239 388.793 33.3467 388.607 33.1338C388.42 32.9209 388.159 32.7889 387.877 32.7658C387.595 32.7428 387.316 32.8304 387.097 33.0103C386.879 33.1901 386.739 33.4479 386.707 33.7292Z" fill="#0F1011"/>
<path d="M378.127 33.0244C378.107 33.3099 378.201 33.5915 378.387 33.8084C378.574 34.0253 378.838 34.16 379.123 34.1834C379.408 34.2068 379.69 34.117 379.909 33.9335C380.129 33.7499 380.267 33.4873 380.294 33.2025C380.314 32.917 380.22 32.6354 380.034 32.4185C379.847 32.2016 379.583 32.0669 379.298 32.0434C379.013 32.02 378.731 32.1098 378.511 32.2934C378.292 32.477 378.154 32.7395 378.127 33.0244Z" fill="#0F1011"/>
<path d="M377.326 30.7929C377.326 30.7929 380.21 30.756 380.213 30.7568C380.345 30.7503 380.47 30.6928 380.561 30.5962C380.651 30.4997 380.701 30.3717 380.7 30.2392C380.698 30.1067 380.645 29.9799 380.552 29.8857C380.459 29.7915 380.333 29.737 380.201 29.7339L377.32 29.77C377.187 29.7758 377.063 29.8327 376.972 29.9287C376.881 30.0247 376.83 30.1523 376.831 30.2847C376.832 30.4171 376.884 30.544 376.976 30.6387C377.069 30.7335 377.194 30.7887 377.326 30.7929Z" fill="#0F1011"/>
<path d="M390.139 31.8443C392.208 30.8387 387.872 30.3524 387.417 30.151C387.287 30.1227 387.15 30.1467 387.037 30.2178C386.924 30.289 386.843 30.4017 386.812 30.5317C386.781 30.6617 386.802 30.7989 386.87 30.9137C386.939 31.0285 387.049 31.1119 387.178 31.1461C387.32 31.1641 389.992 31.8541 390.139 31.8443Z" fill="#0F1011"/>
<g opacity="0.15">
<path d="M382.962 39.8584C384.506 39.1625 381.161 38.6326 380.861 38.4432L382.408 34.9927C382.123 32.6493 380.19 38.4169 380.006 38.5251C379.652 39.2865 382.626 39.6285 382.962 39.8584Z" fill="black"/>
</g>
<path d="M387.288 42.3952C387.288 42.3952 383.273 42.819 380.458 41.8345C380.341 45.2902 386.851 45.8118 387.288 42.3952Z" fill="#F8FCFF"/>
<path d="M321.072 65.0072C334.379 65.0072 345.166 54.2064 345.166 40.883C345.166 27.5596 334.379 16.7588 321.072 16.7588C307.766 16.7588 296.979 27.5596 296.979 40.883C296.979 54.2064 307.766 65.0072 321.072 65.0072Z" fill="#8DDBE0"/>
<path d="M317.52 50.7744C317.106 50.7743 316.707 50.616 316.406 50.3317L308.531 42.8911C308.376 42.7446 308.251 42.569 308.164 42.3743C308.077 42.1796 308.029 41.9696 308.023 41.7563C308.016 41.543 308.052 41.3305 308.128 41.1311C308.204 40.9316 308.318 40.7491 308.465 40.5939C308.611 40.4387 308.786 40.3139 308.981 40.2265C309.175 40.1392 309.385 40.0911 309.598 40.0849C309.811 40.0787 310.023 40.1146 310.222 40.1905C310.422 40.2665 310.604 40.3809 310.759 40.5274L317.431 46.8309L331.304 31.5235C331.596 31.2171 331.997 31.0372 332.42 31.0223C332.843 31.0073 333.255 31.1583 333.568 31.4432C333.881 31.7281 334.071 32.1243 334.097 32.5473C334.123 32.9703 333.982 33.3867 333.706 33.7076L318.72 50.2423C318.575 50.4022 318.399 50.5316 318.204 50.623C318.008 50.7144 317.796 50.7658 317.581 50.7744H317.52Z" fill="white"/>
</g>
<defs>
<clipPath id="clip0_314_526">
<rect width="492" height="373" fill="white"/>
</clipPath>
</defs>
</svg>
