<svg width="517" height="340" viewBox="0 0 517 340" fill="none" xmlns="http://www.w3.org/2000/svg">
<path opacity="0.1" d="M475.066 160.087C458.731 99.105 372.142 101.285 323.979 84.5011C256.961 57.506 195.905 -6.14877 120.887 0.480882C-21.7597 13.0898 -22.2152 194.012 37.7057 257.193C140.534 365.615 294.806 329.956 414.936 266.85C479.944 232.699 478.657 183.113 475.066 160.087Z" fill="white"/>
<path opacity="0.1" d="M475.066 160.087C458.731 99.105 372.142 101.285 323.979 84.5011C256.961 57.506 195.905 -6.14877 120.887 0.480882C-21.7597 13.0898 -22.2152 194.012 37.7057 257.193C140.534 365.615 294.806 329.956 414.936 266.85C479.944 232.699 478.657 183.113 475.066 160.087Z" fill="#367CFF"/>
<path d="M88.504 292.721L379.931 292.721C387.088 292.721 392.89 286.603 392.89 279.057V54.0816C392.89 46.5356 387.088 40.4184 379.931 40.4184L88.504 40.4184C81.3474 40.4184 75.5457 46.5356 75.5457 54.0816V279.057C75.5457 286.603 81.3474 292.721 88.504 292.721Z" fill="white"/>
<path d="M75.1133 279.06V54.081C75.118 50.3383 76.5304 46.7503 79.0406 44.104C81.5509 41.4578 84.9541 39.9694 88.5038 39.9653H379.931C383.481 39.9694 386.885 41.4582 389.395 44.105C391.905 46.7518 393.318 50.3405 393.322 54.0837V279.06C393.318 282.803 391.905 286.392 389.395 289.038C386.885 291.685 383.481 293.174 379.931 293.178H88.5038C84.9536 293.174 81.55 291.685 79.0397 289.038C76.5294 286.392 75.1173 282.803 75.1133 279.06ZM88.5038 40.8724C85.1828 40.8764 81.9989 42.2691 79.6506 44.7452C77.3023 47.2212 75.9814 50.5783 75.9776 54.0799V279.06C75.9812 282.561 77.3021 285.919 79.6504 288.395C81.9987 290.871 85.1827 292.264 88.5038 292.268H379.931C383.252 292.264 386.436 290.871 388.785 288.395C391.133 285.919 392.454 282.561 392.458 279.06V54.081C392.454 50.5791 391.133 47.2216 388.785 44.7454C386.436 42.2691 383.252 40.8762 379.931 40.8724H88.5038Z" fill="#292A2E"/>
<path d="M75.5459 54.0795V67.8281H392.887V54.0795C392.887 50.4559 391.522 46.9806 389.092 44.4183C386.662 41.856 383.366 40.4164 379.93 40.4163H88.5042C85.0675 40.4163 81.7715 41.8558 79.3413 44.4181C76.9111 46.9805 75.5459 50.4558 75.5459 54.0795Z" fill="#292A2E"/>
<path d="M249.387 153.372C243.197 154.796 237.722 149.308 234.934 144.065C231.653 137.896 230.302 130.702 226.194 125.003C222.507 119.981 217.14 116.635 211.191 115.649C208.49 115.149 205.722 115.212 203.043 115.833C201.798 116.16 200.582 116.599 199.408 117.146C194.328 119.483 190.224 123.701 187.035 128.401C183.263 133.959 180.659 140.373 178.872 146.919C176.856 154.442 175.828 162.221 175.815 170.039C175.758 178.333 176.811 186.594 178.943 194.578C181.145 202.89 184.659 210.752 189.337 217.834C194.34 225.318 200.662 231.716 207.959 236.68C212.001 239.419 216.287 241.733 220.758 243.589C226.108 245.732 231.76 246.92 237.481 247.103C249.981 247.674 262.671 244.601 273.979 239.06C276.768 237.694 279.477 236.154 282.091 234.447C282.92 233.905 282.159 232.52 281.325 233.065C270.613 240.033 258.49 244.234 245.946 245.324C240.072 245.884 234.152 245.545 228.371 244.316C223.423 243.126 218.654 241.224 214.198 238.664C206.438 234.395 199.546 228.566 193.91 221.505C188.764 214.958 184.746 207.512 182.038 199.504C179.412 191.761 177.869 183.656 177.459 175.445C177.035 167.674 177.607 159.878 179.159 152.268C180.49 145.453 182.834 138.902 186.104 132.858C188.88 127.873 192.525 123.231 197.175 120.192C199.234 118.796 201.515 117.804 203.909 117.265C209.635 116.038 215.913 117.887 220.59 121.439C223 123.297 225.019 125.663 226.517 128.386C228.217 131.419 229.397 134.725 230.641 137.982C231.848 141.142 233.094 144.348 234.985 147.134C236.721 149.804 239.017 152.017 241.696 153.6C244.159 155.045 247.031 155.512 249.792 154.916C250.746 154.697 250.343 153.156 249.388 153.373L249.387 153.372Z" fill="#367CFF"/>
<path d="M399.85 209.908C399.965 209.892 401.253 232.42 426.073 230.456C443.257 229.099 449.383 209.876 449.777 209.876C447.925 209.461 444.805 208.858 443.982 208.395C441.276 206.862 437.928 205.267 437.056 199.727C436.554 196.533 437.406 180.198 437.144 176.967L410.768 183.176C411.136 190 413.716 205.818 404.675 208.618C403.171 209.079 401.55 209.504 399.85 209.908Z" fill="#E98862"/>
<path opacity="0.52" d="M410.398 202.151C410.811 200.747 411.078 199.3 411.191 197.835C411.482 194.492 411.424 191.125 411.019 187.796C416.38 187.033 421.43 184.7 425.597 181.061C426.086 182.969 428.78 191.302 428.034 193.114C426.624 196.541 420 202.151 410.398 202.151Z" fill="#0C0C0C"/>
<path d="M401.363 153.097C401.363 153.097 395.121 145.644 395.903 131.74C396.507 120.975 404.351 129.717 404.351 129.717C404.351 129.717 404.857 121.97 409.924 123.837C414.99 125.704 416.38 134.255 416.38 134.255" fill="#0C0C0C"/>
<path d="M436.694 130.505C436.694 130.505 461.991 138.98 445.507 173.923L443.188 173.593L438.482 172.924" fill="#0C0C0C"/>
<path d="M414.122 194.906C424.504 196.133 438.02 191.957 441.014 177.401L443.715 164.268C446.709 149.712 441.885 136.255 428.888 133.281C415.89 130.309 403.747 139.888 400.752 154.443L399.556 160.259C399.178 162.263 398.931 164.292 398.815 166.331C398.471 171.721 397.967 179.915 400.302 186.034C402.509 191.809 407.489 194.124 414.122 194.906Z" fill="#E98862"/>
<path d="M404.4 161.155C405.308 161.155 406.044 160.379 406.044 159.422C406.044 158.465 405.308 157.689 404.4 157.689C403.492 157.689 402.756 158.465 402.756 159.422C402.756 160.379 403.492 161.155 404.4 161.155Z" fill="#0C0C0C"/>
<path d="M420.067 163.809C420.975 163.809 421.711 163.033 421.711 162.076C421.711 161.119 420.975 160.343 420.067 160.343C419.16 160.343 418.424 161.119 418.424 162.076C418.424 163.033 419.16 163.809 420.067 163.809Z" fill="#0C0C0C"/>
<path opacity="0.5" d="M413.614 181.437C411.465 181.249 409.388 180.53 407.55 179.341C407.51 179.318 407.475 179.287 407.447 179.25C407.419 179.212 407.398 179.169 407.386 179.124C407.374 179.078 407.371 179.03 407.376 178.982C407.382 178.935 407.397 178.889 407.42 178.848C407.443 178.807 407.473 178.771 407.51 178.743C407.546 178.714 407.587 178.694 407.631 178.683C407.675 178.672 407.721 178.67 407.765 178.678C407.81 178.685 407.853 178.703 407.891 178.728C411.863 181.189 415.713 181.431 419.024 179.427C419.091 179.385 419.16 179.346 419.231 179.311C419.313 179.279 419.403 179.281 419.483 179.318C419.563 179.355 419.627 179.423 419.66 179.508C419.693 179.593 419.694 179.688 419.662 179.774C419.63 179.86 419.568 179.929 419.489 179.967C419.463 179.98 419.419 180.007 419.359 180.043C417.618 181.1 415.618 181.586 413.614 181.437Z" fill="#0C0C0C"/>
<path opacity="0.52" d="M413.306 184.789C412.917 184.762 412.531 184.699 412.151 184.603C412.065 184.581 411.99 184.523 411.943 184.443C411.896 184.363 411.882 184.267 411.902 184.175C411.923 184.083 411.977 184.004 412.053 183.955C412.13 183.906 412.221 183.89 412.308 183.912C414.589 184.485 415.829 183.518 415.882 183.476C415.952 183.419 416.042 183.393 416.13 183.405C416.219 183.417 416.299 183.466 416.354 183.54C416.409 183.615 416.433 183.709 416.422 183.802C416.41 183.896 416.364 183.981 416.293 184.038C415.41 184.645 414.354 184.91 413.306 184.789Z" fill="#0C0C0C"/>
<path d="M439.295 181.651C443.245 182.555 447.363 178.831 448.22 174.666C449.077 170.501 446.348 167.472 442.397 166.569L439.787 168.894L435.898 180.875L439.295 181.651Z" fill="#E98862"/>
<path d="M436.65 174.096C436.65 174.096 439.3 153.159 433.608 150.609C429.817 148.91 419.084 152.767 410.544 149.073C406.808 147.457 402.923 147.679 402.174 149.534C401.877 150.269 401.583 138.735 409.283 131.682C415.414 126.067 431.635 127.592 438.428 131.323C457.239 141.655 443.038 167.654 443.038 167.654L440.772 174.582L436.65 174.096Z" fill="#0C0C0C"/>
<g opacity="0.52">
<path d="M410.208 175.481C410.199 175.481 410.19 175.481 410.182 175.476C408.909 175.188 406.802 174.556 407.005 173.551C407.175 172.719 411.161 164.222 411.615 163.253C411.633 163.211 411.66 163.172 411.692 163.14C411.725 163.108 411.764 163.084 411.806 163.068C411.848 163.052 411.892 163.046 411.937 163.048C411.981 163.051 412.025 163.063 412.065 163.084C412.105 163.105 412.14 163.134 412.169 163.17C412.198 163.205 412.22 163.247 412.234 163.292C412.247 163.336 412.252 163.384 412.248 163.43C412.244 163.477 412.231 163.522 412.21 163.564C410.441 167.327 407.77 173.13 407.655 173.695C407.733 173.962 409.003 174.491 410.321 174.789C410.404 174.809 410.477 174.862 410.524 174.936C410.571 175.011 410.589 175.102 410.575 175.19C410.56 175.278 410.514 175.357 410.446 175.411C410.378 175.464 410.293 175.488 410.209 175.478L410.208 175.481Z" fill="#0C0C0C"/>
</g>
<path d="M409.998 154.195C408.748 153.523 407.35 153.219 405.95 153.315C405.262 153.357 404.584 153.508 403.938 153.763C403.3 154.012 402.694 154.346 402.135 154.755C402.043 154.818 401.978 154.916 401.954 155.028C401.93 155.141 401.948 155.259 402.005 155.358C402.062 155.456 402.154 155.527 402.26 155.556C402.366 155.585 402.478 155.569 402.573 155.512L402.602 155.495C403.115 155.163 403.666 154.9 404.241 154.712C404.807 154.524 405.398 154.427 405.992 154.426C407.166 154.413 408.323 154.728 409.346 155.338L409.384 155.362C409.528 155.452 409.701 155.478 409.864 155.434C410.026 155.39 410.166 155.28 410.251 155.127C410.337 154.975 410.362 154.793 410.32 154.622C410.278 154.45 410.174 154.303 410.029 154.213L409.998 154.195Z" fill="#0C0C0C"/>
<path d="M419.353 156.905C420.492 156.602 421.687 156.622 422.816 156.963C423.389 157.13 423.934 157.388 424.433 157.728C424.94 158.069 425.405 158.476 425.816 158.94L425.839 158.964C425.916 159.045 426.02 159.09 426.129 159.092C426.238 159.093 426.343 159.05 426.423 158.971C426.502 158.893 426.55 158.785 426.555 158.67C426.561 158.556 426.524 158.443 426.453 158.356C426.016 157.806 425.515 157.315 424.962 156.897C424.404 156.471 423.788 156.136 423.135 155.903C421.809 155.42 420.385 155.323 419.011 155.621C418.849 155.661 418.709 155.766 418.621 155.914C418.532 156.062 418.502 156.24 418.537 156.411C418.571 156.582 418.668 156.731 418.806 156.828C418.945 156.924 419.113 156.959 419.276 156.926L419.308 156.918L419.353 156.905Z" fill="#0C0C0C"/>
<path d="M423.002 134.726C424.782 130.37 423.95 125.805 421.143 124.53C418.336 123.255 414.618 125.753 412.838 130.108C411.058 134.464 411.891 139.029 414.697 140.304C417.504 141.579 421.222 139.082 423.002 134.726Z" fill="#0C0C0C"/>
<path d="M426.566 224.839C443.818 223.981 444.544 208.541 444.544 208.541C444.544 208.541 453.092 209.124 458.775 209.935C468.078 211.262 474.216 214.588 479.099 219.738C483.643 224.528 486.409 229.711 483.482 262.803C481.362 286.761 482.854 339.466 482.854 339.466H378.735C378.735 339.466 372.491 270.387 371.621 259.602C369.96 239.011 368.611 221.074 372.665 216.8C381 208.011 397.36 208.541 404.525 208.543C404.642 208.543 403.072 226.006 426.566 224.839Z" fill="#367CFF"/>
<path d="M398.042 299.239L382.896 290.354C382.563 290.158 382.196 290.038 381.816 290.001C381.437 289.964 381.055 290.011 380.693 290.138C380.332 290.265 380 290.47 379.718 290.74C379.436 291.01 379.211 291.339 379.056 291.706C378.79 292.393 378.776 293.159 379.015 293.856C379.255 294.554 379.732 295.132 380.353 295.48L383.601 297.385L370.78 296.337C369.356 296.194 367.523 296.977 367.476 298.673C367.418 299.323 367.57 299.976 367.909 300.523C368.247 301.071 368.752 301.481 369.34 301.688C369.335 301.702 369.332 301.716 369.331 301.73C369.331 301.742 369.332 301.753 369.334 301.764L367.139 301.543C366.732 301.503 366.322 301.559 365.939 301.706C365.555 301.854 365.208 302.09 364.922 302.398C364.636 302.705 364.418 303.076 364.285 303.483C364.152 303.89 364.107 304.323 364.153 304.751C364.238 305.424 364.54 306.045 365.007 306.511C365.475 306.977 366.08 307.26 366.722 307.312L367.656 307.406C367.666 307.436 367.681 307.463 367.7 307.488C367.054 307.578 366.461 307.908 366.025 308.418C365.589 308.928 365.34 309.585 365.321 310.271C365.322 311.022 365.591 311.745 366.075 312.296C366.559 312.847 367.223 313.186 367.933 313.243L370.254 313.476C370.218 313.497 370.189 313.527 370.167 313.562C370.145 313.598 370.131 313.639 370.127 313.681C370.124 313.731 370.136 313.781 370.16 313.825C369.607 314.074 369.147 314.508 368.85 315.06C368.554 315.612 368.438 316.252 368.52 316.88C368.619 317.538 368.925 318.142 369.39 318.594C369.855 319.045 370.45 319.318 371.08 319.368L390.657 321.332C393.396 321.606 396.15 321.012 398.566 319.625C400.982 318.239 402.951 316.123 404.219 313.55C405.313 311.33 405.543 308.749 404.861 306.353C404.178 303.958 402.636 301.937 400.563 300.721L398.042 299.239Z" fill="#E98862"/>
<g opacity="0.2">
<path d="M382.026 302.792C382.019 302.861 381.987 302.925 381.936 302.97C381.885 303.015 381.82 303.037 381.754 303.031L369.562 302.017C369.529 302.015 369.497 302.005 369.467 301.989C369.437 301.973 369.411 301.951 369.389 301.924C369.368 301.898 369.351 301.867 369.341 301.833C369.331 301.8 369.327 301.764 369.329 301.729C369.332 301.694 369.341 301.66 369.356 301.629C369.371 301.598 369.392 301.57 369.418 301.547C369.443 301.524 369.472 301.507 369.504 301.496C369.536 301.485 369.569 301.481 369.602 301.484L381.794 302.498C381.827 302.5 381.859 302.51 381.889 302.526C381.919 302.542 381.945 302.564 381.967 302.59C381.988 302.617 382.005 302.648 382.015 302.681C382.025 302.715 382.029 302.75 382.026 302.785L382.026 302.792Z" fill="#0C0C0C"/>
<path d="M381.75 308.474C381.743 308.544 381.711 308.607 381.66 308.652C381.609 308.696 381.544 308.718 381.478 308.713L367.872 307.582C367.839 307.579 367.807 307.569 367.777 307.553C367.748 307.537 367.721 307.515 367.7 307.489C367.678 307.462 367.662 307.431 367.652 307.398C367.641 307.365 367.637 307.329 367.64 307.295C367.647 307.225 367.679 307.161 367.73 307.115C367.781 307.07 367.846 307.046 367.912 307.05L381.518 308.181C381.551 308.184 381.584 308.193 381.613 308.209C381.643 308.225 381.669 308.247 381.691 308.274C381.712 308.3 381.729 308.331 381.739 308.364C381.749 308.398 381.753 308.433 381.751 308.468L381.75 308.474Z" fill="#0C0C0C"/>
<path d="M381.485 314.63C381.478 314.699 381.446 314.763 381.395 314.807C381.344 314.852 381.279 314.874 381.213 314.869L370.36 313.966C370.293 313.961 370.23 313.927 370.187 313.873C370.143 313.819 370.121 313.749 370.127 313.678C370.132 313.608 370.164 313.542 370.215 313.496C370.266 313.45 370.333 313.427 370.4 313.433L381.253 314.335C381.286 314.338 381.318 314.347 381.348 314.363C381.378 314.379 381.404 314.401 381.425 314.428C381.447 314.454 381.463 314.485 381.474 314.519C381.484 314.552 381.488 314.587 381.485 314.622L381.485 314.63Z" fill="#0C0C0C"/>
</g>
<path d="M389.441 327.891L483.99 339.082C486.904 339.417 489.853 339.035 492.604 337.966C495.355 336.897 497.834 335.17 499.846 332.921C501.858 330.673 503.349 327.963 504.201 325.005C505.053 322.047 505.243 318.921 504.757 315.872L484.595 230.713C484.181 228.122 483.288 225.642 481.965 223.415C480.643 221.188 478.917 219.257 476.887 217.733C472.787 214.655 467.696 213.421 462.733 214.301C457.769 215.182 453.341 218.105 450.422 222.428C447.503 226.751 446.332 232.12 447.167 237.353L462.63 299.373L393.927 292.143L389.441 327.891Z" fill="#367CFF"/>
<path d="M474.954 301.234C475.021 301.239 475.088 301.216 475.138 301.17C475.189 301.123 475.221 301.057 475.226 300.987C475.231 300.916 475.209 300.846 475.165 300.792C475.121 300.739 475.059 300.705 474.992 300.7L463.207 298.84C463.174 298.834 463.14 298.835 463.108 298.844C463.075 298.852 463.045 298.867 463.018 298.888C462.991 298.909 462.969 298.935 462.951 298.965C462.934 298.995 462.923 299.029 462.919 299.064C462.909 299.134 462.926 299.205 462.966 299.262C463.005 299.318 463.065 299.356 463.131 299.367L474.917 301.228C474.929 301.231 474.941 301.233 474.954 301.234Z" fill="#0C0C0C"/>
<path d="M481.358 339.466C481.425 339.471 481.491 339.447 481.541 339.4C481.592 339.354 481.623 339.287 481.627 339.217C481.631 339.146 481.609 339.076 481.564 339.023C481.52 338.97 481.457 338.937 481.39 338.933L389.971 327.688L394.402 292.472L462.63 299.37C462.669 299.376 462.709 299.371 462.746 299.358C462.783 299.344 462.817 299.321 462.845 299.292C462.873 299.262 462.893 299.225 462.905 299.185C462.917 299.145 462.919 299.103 462.913 299.062L455.53 262.81C455.525 262.775 455.513 262.742 455.496 262.712C455.478 262.682 455.455 262.656 455.428 262.636C455.401 262.615 455.37 262.601 455.337 262.593C455.305 262.586 455.271 262.585 455.238 262.591C455.172 262.603 455.113 262.642 455.074 262.7C455.035 262.757 455.02 262.829 455.031 262.899L462.357 298.794L394.21 291.907C394.176 291.902 394.142 291.905 394.11 291.914C394.077 291.923 394.047 291.94 394.02 291.962C393.994 291.984 393.972 292.011 393.955 292.042C393.939 292.074 393.929 292.108 393.925 292.143L389.439 327.893C389.432 327.962 389.451 328.032 389.492 328.086C389.532 328.141 389.592 328.177 389.658 328.186L481.322 339.466C481.334 339.467 481.346 339.467 481.358 339.466Z" fill="#0C0C0C"/>
<path d="M287.013 155.573C286.895 155.201 286.706 154.857 286.458 154.564C286.21 154.271 285.907 154.035 285.57 153.869C285.232 153.703 284.866 153.611 284.493 153.6C284.121 153.588 283.75 153.656 283.404 153.801C282.742 154.104 282.215 154.662 281.928 155.36C281.642 156.058 281.617 156.845 281.86 157.561L283.034 161.265L274.241 151.37C273.28 150.25 271.426 149.527 270.308 150.744C269.849 151.183 269.544 151.773 269.444 152.418C269.344 153.062 269.454 153.723 269.757 154.294C269.743 154.301 269.731 154.31 269.72 154.32C269.713 154.328 269.707 154.337 269.701 154.347L269.653 154.289C269.381 153.971 269.045 153.722 268.669 153.558C268.294 153.394 267.889 153.32 267.483 153.341C267.078 153.362 266.681 153.478 266.323 153.68C265.965 153.882 265.654 154.165 265.412 154.509C265.038 155.066 264.857 155.743 264.901 156.424C264.946 157.105 265.212 157.75 265.655 158.248L266.138 158.828C266.126 158.858 266.119 158.89 266.118 158.922C265.597 158.559 264.968 158.408 264.349 158.497C263.73 158.587 263.163 158.912 262.754 159.41C262.264 159.968 261.993 160.702 261.996 161.462C261.999 162.223 262.276 162.954 262.771 163.508C262.694 163.491 262.727 163.646 262.663 163.707C262.628 163.742 262.605 163.788 262.595 163.837C262.043 163.633 261.443 163.621 260.883 163.802C260.324 163.984 259.834 164.349 259.485 164.845C259.111 165.402 258.93 166.078 258.974 166.759C259.018 167.441 259.284 168.085 259.727 168.583L272.921 183.959C274.767 186.11 277.18 187.631 279.85 188.327C282.521 189.023 285.328 188.861 287.912 187.864L296.229 184.652L287.013 155.573Z" fill="#E98862"/>
<path opacity="0.2" d="M263.602 173.239C264.09 173.788 264.751 174.129 265.462 174.199C265.553 174.209 265.646 174.213 265.739 174.213C266.191 174.22 266.638 174.114 267.044 173.905C267.449 173.695 267.803 173.388 268.076 173.008C268.349 172.629 268.533 172.186 268.614 171.718C268.695 171.249 268.671 170.767 268.542 170.31C268.955 170.605 269.431 170.787 269.927 170.839C270.022 170.848 270.118 170.853 270.214 170.854C270.684 170.86 271.15 170.748 271.571 170.527C271.993 170.307 272.359 169.984 272.639 169.585C272.919 169.187 273.105 168.723 273.183 168.234C273.26 167.744 273.226 167.242 273.083 166.77C273.476 167.032 273.92 167.194 274.383 167.244C274.477 167.254 274.573 167.258 274.669 167.258C275.082 167.261 275.492 167.174 275.872 167.003C276.252 166.832 276.595 166.58 276.878 166.263C277.406 165.634 277.689 164.819 277.671 163.979C277.653 163.14 277.335 162.339 276.781 161.736L270.932 155.097C270.909 155.071 270.882 155.049 270.852 155.034C270.821 155.019 270.788 155.01 270.755 155.008C270.721 155.007 270.688 155.012 270.656 155.024C270.624 155.037 270.595 155.055 270.571 155.08C270.546 155.104 270.526 155.133 270.513 155.165C270.499 155.198 270.491 155.232 270.49 155.268C270.489 155.303 270.495 155.339 270.507 155.372C270.52 155.405 270.538 155.435 270.561 155.46L276.411 162.101C276.878 162.604 277.148 163.274 277.167 163.978C277.186 164.681 276.952 165.366 276.513 165.896C276.275 166.158 275.99 166.368 275.673 166.51C275.357 166.653 275.016 166.726 274.672 166.725C274.328 166.725 273.988 166.65 273.672 166.506C273.356 166.362 273.071 166.151 272.835 165.888C272.792 165.84 272.461 165.484 272.329 165.336L266.629 158.765C266.584 158.712 266.522 158.68 266.455 158.676C266.388 158.672 266.322 158.696 266.272 158.743C266.222 158.79 266.191 158.856 266.187 158.927C266.183 158.998 266.206 159.067 266.251 159.12L271.956 165.697C272.423 166.199 272.693 166.869 272.712 167.573C272.731 168.276 272.497 168.961 272.057 169.491C271.82 169.753 271.535 169.962 271.219 170.105C270.903 170.248 270.562 170.321 270.219 170.32C269.875 170.32 269.535 170.246 269.219 170.102C268.903 169.959 268.618 169.749 268.382 169.485L263.089 163.566C263.044 163.516 262.981 163.487 262.915 163.484C262.85 163.482 262.785 163.507 262.737 163.553C262.688 163.6 262.658 163.665 262.654 163.734C262.65 163.804 262.672 163.872 262.715 163.925L267.421 169.218C267.872 169.703 268.132 170.35 268.15 171.029C268.168 171.708 267.943 172.369 267.519 172.88C267.29 173.133 267.015 173.335 266.71 173.473C266.405 173.61 266.076 173.681 265.745 173.681C265.413 173.68 265.085 173.608 264.78 173.47C264.476 173.332 264.201 173.129 263.973 172.875L263.602 173.239Z" fill="#0C0C0C"/>
<path d="M274.646 157.479C274.055 157.479 273.486 157.237 273.062 156.803C271.479 155.186 269.615 153.539 269.072 153.277C266.792 152.202 263.336 151.67 262.197 151.556C261.896 151.53 261.603 151.441 261.336 151.295C261.068 151.149 260.83 150.948 260.637 150.705C260.443 150.461 260.297 150.179 260.208 149.876C260.118 149.572 260.087 149.253 260.115 148.936C260.144 148.619 260.231 148.312 260.374 148.032C260.516 147.751 260.709 147.503 260.943 147.302C261.176 147.101 261.446 146.951 261.735 146.861C262.024 146.77 262.327 146.741 262.627 146.776C262.825 146.795 267.508 147.278 270.933 148.894C272.542 149.653 275.395 152.499 276.231 153.354C276.556 153.686 276.78 154.114 276.874 154.582C276.968 155.049 276.927 155.536 276.756 155.979C276.586 156.422 276.294 156.802 275.918 157.069C275.542 157.336 275.099 157.479 274.646 157.479Z" fill="#E98862"/>
<path d="M248.928 157.155L249.641 150.149L299.729 155.116L299.016 162.122L248.928 157.155Z" fill="#367CFF"/>
<path opacity="0.5" d="M248.928 157.155L249.641 150.149L299.729 155.116L299.016 162.122L248.928 157.155Z" fill="white"/>
<path d="M304.525 162.729L305.238 155.723L299.729 155.116L299.016 162.122L304.525 162.729Z" fill="#262626"/>
<path d="M248.928 157.155C248.928 157.155 247.271 155.924 245.79 154.816C244.617 153.938 243.554 153.137 243.517 153.09C244.352 152.603 245.214 152.168 246.098 151.79C247.768 151.002 249.64 150.149 249.64 150.149L248.928 157.155Z" fill="#367CFF"/>
<path opacity="0.9" d="M248.928 157.155C248.928 157.155 247.271 155.924 245.79 154.816C244.617 153.938 243.554 153.137 243.517 153.09C244.352 152.603 245.214 152.168 246.098 151.79C247.768 151.002 249.64 150.149 249.64 150.149L248.928 157.155Z" fill="white"/>
<path d="M245.792 154.816C244.618 153.938 243.555 153.137 243.519 153.09C244.353 152.602 245.215 152.168 246.099 151.79L245.792 154.816Z" fill="#262626"/>
<path d="M249.164 154.975L299.241 159.815L299.21 160.135L249.133 155.295L249.164 154.975Z" fill="white"/>
<path d="M249.442 152.234L299.519 157.074L299.487 157.394L249.411 152.554L249.442 152.234Z" fill="white"/>
<path d="M283.418 162.642L281.86 157.561C281.617 156.845 281.641 156.058 281.928 155.36C282.215 154.662 282.742 154.104 283.403 153.8C283.75 153.656 284.121 153.588 284.493 153.599C284.866 153.611 285.232 153.703 285.569 153.869C285.907 154.034 286.209 154.271 286.457 154.564C286.706 154.857 286.894 155.2 287.013 155.573L289.735 164.164" fill="#E98862"/>
<path d="M318.837 271.233C315.417 271.232 312.06 270.257 309.122 268.41C306.184 266.563 303.774 263.914 302.147 260.742L264.396 184.647L295.754 166.674L328.278 227.57L383.974 210.475L392.889 249.864L324.05 270.46C322.355 270.972 320.6 271.232 318.837 271.233Z" fill="#367CFF"/>
<path d="M371.35 256.482C371.288 256.482 371.228 256.459 371.181 256.415C371.134 256.372 371.104 256.312 371.097 256.247L369.582 242.633C369.578 242.598 369.581 242.562 369.59 242.529C369.599 242.495 369.614 242.463 369.635 242.436C369.655 242.408 369.681 242.385 369.71 242.368C369.739 242.351 369.771 242.34 369.804 242.336C369.871 242.329 369.937 242.349 369.99 242.393C370.042 242.437 370.076 242.5 370.085 242.57L371.599 256.184C371.603 256.219 371.601 256.254 371.592 256.288C371.583 256.322 371.567 256.353 371.547 256.381C371.526 256.408 371.501 256.431 371.471 256.448C371.442 256.465 371.41 256.476 371.377 256.48C371.368 256.481 371.359 256.482 371.35 256.482Z" fill="#0C0C0C"/>
<path d="M88.3852 329.215C88.4702 329.215 88.5535 329.191 88.6258 329.143C88.698 329.096 88.7563 329.029 88.7941 328.949L100.78 303.029C100.823 302.916 100.824 302.79 100.783 302.677C100.741 302.563 100.661 302.47 100.557 302.417C100.454 302.364 100.335 302.354 100.224 302.389C100.114 302.425 100.021 302.503 99.9631 302.609L87.9774 328.529C87.944 328.602 87.9286 328.682 87.9328 328.763C87.937 328.844 87.9605 328.923 88.0012 328.992C88.042 329.06 88.0985 329.117 88.1657 329.157C88.2328 329.196 88.3083 329.217 88.3852 329.217V329.215Z" fill="#292A2E"/>
<path d="M68.1251 327.712C68.2255 327.712 68.3231 327.677 68.4026 327.612C68.4822 327.548 68.5392 327.457 68.5649 327.355L82.4346 271.525C82.4559 271.405 82.4335 271.282 82.3719 271.179C82.3102 271.076 82.2139 271.002 82.1024 270.971C81.9909 270.94 81.8725 270.955 81.771 271.013C81.6695 271.071 81.5925 271.167 81.5556 271.282L67.6854 327.112C67.668 327.183 67.6662 327.257 67.6802 327.329C67.6942 327.4 67.7235 327.468 67.7659 327.525C67.8083 327.583 67.8628 327.63 67.925 327.663C67.9873 327.695 68.0557 327.712 68.1251 327.712Z" fill="#292A2E"/>
<path d="M41.669 330.183C41.7299 330.183 41.7902 330.17 41.8462 330.145C41.9569 330.095 42.0444 330.001 42.0895 329.883C42.1347 329.765 42.1338 329.634 42.087 329.517L27.7503 293.916C27.6977 293.808 27.6085 293.725 27.5004 293.684C27.3923 293.642 27.2734 293.646 27.1675 293.693C27.0616 293.74 26.9766 293.828 26.9295 293.938C26.8825 294.049 26.8768 294.174 26.9138 294.289L41.2505 329.891C41.2854 329.977 41.3437 330.051 41.4181 330.103C41.4925 330.155 41.5798 330.183 41.669 330.183Z" fill="#292A2E"/>
<path d="M67.611 338.432C67.6483 338.432 67.6856 338.428 67.7218 338.418C67.8385 338.387 67.9388 338.308 68.0008 338.199C68.0627 338.09 68.0812 337.96 68.0522 337.837L51.3932 267.565C51.3583 267.449 51.2825 267.35 51.1812 267.291C51.08 267.231 50.9609 267.214 50.8483 267.244C50.7358 267.274 50.6382 267.347 50.5756 267.45C50.5129 267.553 50.4899 267.678 50.5112 267.798L67.1707 338.069C67.1954 338.173 67.2521 338.265 67.3319 338.33C67.4116 338.396 67.5098 338.432 67.611 338.432Z" fill="#292A2E"/>
<path d="M61.7023 281.965C66.2223 271.946 63.2729 260.507 55.1147 256.415C46.9564 252.323 36.6787 257.128 32.1587 267.146C27.6388 277.165 30.5882 288.604 38.7464 292.696C46.9046 296.788 57.1824 291.983 61.7023 281.965Z" fill="#0CBC8B"/>
<path opacity="0.4" d="M61.7023 281.965C66.2223 271.946 63.2729 260.507 55.1147 256.415C46.9564 252.323 36.6787 257.128 32.1587 267.146C27.6388 277.165 30.5882 288.604 38.7464 292.696C46.9046 296.788 57.1824 291.983 61.7023 281.965Z" fill="white"/>
<path d="M33.6634 305.095C36.0209 298.923 33.9555 292.231 29.0501 290.148C24.1446 288.065 18.2568 291.38 15.8992 297.552C13.5416 303.724 15.607 310.416 20.5125 312.499C25.4179 314.583 31.3058 311.268 33.6634 305.095Z" fill="#0CBC8B"/>
<path d="M91.4686 297.175C98.7553 294.845 102.463 285.312 99.7509 275.882C97.0384 266.453 88.9325 260.698 81.6458 263.028C74.3592 265.359 70.6511 274.892 73.3635 284.321C76.076 293.751 84.182 299.506 91.4686 297.175Z" fill="#0CBC8B"/>
<path d="M104 317.243C108.068 316.524 110.588 311.048 109.629 305.012C108.67 298.975 104.595 294.664 100.528 295.382C96.4601 296.101 93.9399 301.577 94.8988 307.613C95.8577 313.65 99.9325 317.961 104 317.243Z" fill="#0CBC8B"/>
<path d="M28.2975 339.091H99.0635V320.497H28.2975V339.091Z" fill="#292A2E"/>
<path opacity="0.3" d="M28.2975 339.091H99.0635V320.497H28.2975V339.091Z" fill="white"/>
<path d="M61.8376 315.824C64.7137 308.294 62.1716 300.121 56.1597 297.568C50.1478 295.015 42.9426 299.049 40.0665 306.579C37.1904 314.108 39.7325 322.282 45.7444 324.835C51.7563 327.388 58.9615 323.354 61.8376 315.824Z" fill="#0CBC8B"/>
<path d="M77.5447 322.969C83.5323 322.969 88.3862 317.851 88.3862 311.538C88.3862 305.225 83.5323 300.107 77.5447 300.107C71.557 300.107 66.7031 305.225 66.7031 311.538C66.7031 317.851 71.557 322.969 77.5447 322.969Z" fill="#0CBC8B"/>
<path opacity="0.68" d="M33.6634 305.095C36.0209 298.923 33.9555 292.231 29.0501 290.148C24.1446 288.065 18.2568 291.38 15.8992 297.552C13.5416 303.724 15.607 310.416 20.5125 312.499C25.4179 314.583 31.3058 311.268 33.6634 305.095Z" fill="white"/>
<path opacity="0.68" d="M91.4686 297.175C98.7553 294.845 102.463 285.312 99.7509 275.882C97.0384 266.453 88.9325 260.698 81.6458 263.028C74.3592 265.359 70.6511 274.892 73.3635 284.321C76.076 293.751 84.182 299.506 91.4686 297.175Z" fill="white"/>
<path opacity="0.68" d="M104 317.243C108.068 316.524 110.588 311.048 109.629 305.012C108.67 298.975 104.595 294.664 100.528 295.382C96.4601 296.101 93.9399 301.577 94.8988 307.613C95.8577 313.65 99.9325 317.961 104 317.243Z" fill="white"/>
<path opacity="0.68" d="M61.8376 315.824C64.7137 308.294 62.1716 300.121 56.1597 297.568C50.1478 295.015 42.9426 299.049 40.0665 306.579C37.1904 314.108 39.7325 322.282 45.7444 324.835C51.7563 327.388 58.9615 323.354 61.8376 315.824Z" fill="white"/>
<path opacity="0.4" d="M77.5447 322.969C83.5323 322.969 88.3862 317.851 88.3862 311.538C88.3862 305.225 83.5323 300.107 77.5447 300.107C71.557 300.107 66.7031 305.225 66.7031 311.538C66.7031 317.851 71.557 322.969 77.5447 322.969Z" fill="white"/>
<path d="M42.7212 301.915C50.95 304.339 55.2807 297.248 55.2807 297.248L55.2762 297.238C50.8868 295.858 46.0201 297.799 42.7212 301.915Z" fill="#292A2E"/>
<path d="M94.6982 304.818C98.7494 303.182 102.106 300.063 104.154 296.031C103.044 295.406 101.772 295.179 100.528 295.384C97.102 295.988 94.7757 299.969 94.6982 304.818Z" fill="#292A2E"/>
<path d="M75.6104 300.29C78.766 303.288 82.7091 305.207 86.92 305.795C85.7986 303.765 84.1118 302.147 82.0885 301.162C80.0651 300.178 77.8034 299.873 75.6104 300.29Z" fill="#292A2E"/>
<path d="M0.506534 340H516.494C516.628 340 516.757 339.944 516.852 339.844C516.947 339.743 517 339.608 517 339.466C517 339.325 516.947 339.189 516.852 339.089C516.757 338.989 516.628 338.933 516.494 338.933H0.506534C0.372322 338.933 0.243608 338.989 0.148706 339.089C0.0538037 339.189 0.000488281 339.325 0.000488281 339.466C0.000488281 339.608 0.0538037 339.743 0.148706 339.844C0.243608 339.944 0.372322 340 0.506534 340Z" fill="#292A2E"/>
<path d="M339.875 330.887L318.967 263.123C318.6 261.932 317.884 260.894 316.923 260.159C315.962 259.423 314.805 259.026 313.618 259.027H228.439C227.551 259.027 226.676 259.248 225.885 259.673C225.094 260.098 224.409 260.715 223.888 261.472C223.366 262.23 223.022 263.107 222.883 264.032C222.744 264.956 222.815 265.903 223.09 266.793L243.998 334.557C244.365 335.747 245.08 336.785 246.041 337.521C247.002 338.257 248.16 338.653 249.347 338.653H334.525C335.413 338.653 336.288 338.431 337.079 338.006C337.871 337.581 338.555 336.964 339.077 336.207C339.598 335.449 339.943 334.572 340.081 333.648C340.22 332.723 340.149 331.777 339.875 330.887Z" fill="#292A2E"/>
<path d="M379.838 333.158H322.82C321.399 333.158 320.248 334.373 320.248 335.871V335.94C320.248 337.438 321.399 338.653 322.82 338.653H379.838C381.259 338.653 382.411 337.438 382.411 335.94V335.871C382.411 334.373 381.259 333.158 379.838 333.158Z" fill="#292A2E"/>
<path d="M281.482 311.565C286.416 311.565 290.416 307.347 290.416 302.145C290.416 296.943 286.416 292.725 281.482 292.725C276.548 292.725 272.548 296.943 272.548 302.145C272.548 307.347 276.548 311.565 281.482 311.565Z" fill="white"/>
</svg>
