<svg width="55" height="53" viewBox="0 0 55 53" fill="none" xmlns="http://www.w3.org/2000/svg">
<g clip-path="url(#clip0_314_161)">
<path d="M37.8125 0C36.4268 0 35.1699 0.807422 34.6328 2.04961C34.0957 3.2918 34.3965 4.70996 35.374 5.6623L39.8213 9.9375L21.6348 27.473C20.292 28.767 20.292 30.8684 21.6348 32.1623C22.9775 33.4563 25.1582 33.4563 26.501 32.1623L44.6875 14.6268L49.1348 18.9123C50.123 19.8646 51.5947 20.1441 52.8838 19.6266C54.1729 19.109 55.0107 17.9082 55.0107 16.5625V3.3125C55.0107 1.48027 53.4746 0 51.5732 0H37.8125ZM8.59375 3.3125C3.8457 3.3125 0 7.01836 0 11.5938V44.7188C0 49.2941 3.8457 53 8.59375 53H42.9688C47.7168 53 51.5625 49.2941 51.5625 44.7188V33.125C51.5625 31.2928 50.0264 29.8125 48.125 29.8125C46.2236 29.8125 44.6875 31.2928 44.6875 33.125V44.7188C44.6875 45.6297 43.9141 46.375 42.9688 46.375H8.59375C7.64844 46.375 6.875 45.6297 6.875 44.7188V11.5938C6.875 10.6828 7.64844 9.9375 8.59375 9.9375H20.625C22.5264 9.9375 24.0625 8.45723 24.0625 6.625C24.0625 4.79277 22.5264 3.3125 20.625 3.3125H8.59375Z" fill="white"/>
</g>
<defs>
<clipPath id="clip0_314_161">
<rect width="55" height="53" fill="white"/>
</clipPath>
</defs>
</svg>
