<svg width="63" height="49" viewBox="0 0 63 49" fill="none" xmlns="http://www.w3.org/2000/svg">
<path d="M7 0C3.13906 0 0 3.13906 0 7V10.5H63V7C63 3.13906 59.8609 0 56 0H7ZM63 21H0V42C0 45.8609 3.13906 49 7 49H56C59.8609 49 63 45.8609 63 42V21ZM12.25 35H19.25C20.2125 35 21 35.7875 21 36.75C21 37.7125 20.2125 38.5 19.25 38.5H12.25C11.2875 38.5 10.5 37.7125 10.5 36.75C10.5 35.7875 11.2875 35 12.25 35ZM24.5 36.75C24.5 35.7875 25.2875 35 26.25 35H40.25C41.2125 35 42 35.7875 42 36.75C42 37.7125 41.2125 38.5 40.25 38.5H26.25C25.2875 38.5 24.5 37.7125 24.5 36.75Z" fill="white"/>
</svg>
