<svg width="194" height="39" viewBox="0 0 194 39" fill="none" xmlns="http://www.w3.org/2000/svg">
<path fill-rule="evenodd" clip-rule="evenodd" d="M15.2114 19.0587C16.5447 19.7601 17.1061 20.1306 17.0564 22.4368L17.0572 37.0268C17.0439 37.8529 16.4657 39.0921 15.1146 38.3429L1.22916 30.4539C0.279284 29.8591 -0.0280623 28.9828 0.00198019 28.4169L0.0809401 12.1617C0.0438195 11.7598 0.719697 10.7546 1.93131 11.4933L15.2115 19.0589L15.2114 19.0587Z" fill="white"/>
<path fill-rule="evenodd" clip-rule="evenodd" d="M20.6886 19.4845C19.3553 20.1859 18.7939 20.5562 18.8436 22.8626L18.8428 37.4525C18.856 38.2787 19.4342 39.5178 20.7853 38.7687L34.6708 30.8797C35.6207 30.2849 35.928 29.4085 35.898 28.8427L35.819 12.5875C35.8561 12.1856 35.1803 11.1804 33.9687 11.9191L20.6885 19.4847L20.6886 19.4845Z" fill="white"/>
<path fill-rule="evenodd" clip-rule="evenodd" d="M19.897 0.687284C18.6136 -0.0994845 18.0074 -0.39309 16.0047 0.802402L3.17699 8.09667C2.45739 8.52104 1.65693 9.63379 2.99107 10.412L16.8699 18.3126C17.8678 18.8256 18.7919 18.6496 19.2743 18.3411L33.5262 10.1462C33.898 9.97698 34.4442 8.89769 33.1888 8.23348L19.8971 0.687284H19.897Z" fill="white"/>
<mask id="path-4-inside-1_524_198" fill="white">
<path d="M55.4092 17.7974C55.1152 16.5532 54.4897 15.5962 53.5327 14.9263C52.5757 14.2495 51.3623 13.9111 49.8926 13.9111C47.9033 13.9111 46.3379 14.4922 45.1963 15.6543C44.0547 16.8096 43.4839 18.3989 43.4839 20.4224C43.4839 22.3979 44.0376 23.9736 45.145 25.1494C46.2524 26.3252 47.7358 26.9131 49.5952 26.9131C51.1265 26.9131 52.4287 26.4995 53.502 25.6724C54.582 24.8384 55.2759 23.7173 55.5835 22.3091H57.1934C56.8447 24.1821 55.9937 25.6655 54.6401 26.7593C53.2866 27.853 51.6187 28.3999 49.6362 28.3999C47.3052 28.3999 45.439 27.6753 44.0376 26.2261C42.6431 24.7769 41.9458 22.8423 41.9458 20.4224C41.9458 17.9409 42.6533 15.9893 44.0684 14.5674C45.4834 13.1455 47.4316 12.4346 49.9131 12.4346C51.8682 12.4346 53.4678 12.9097 54.7119 13.8599C55.9561 14.8101 56.7012 16.1226 56.9473 17.7974H55.4092ZM74.9121 20.4224C74.9121 22.897 74.2012 24.8452 72.7793 26.2671C71.3574 27.689 69.4092 28.3999 66.9346 28.3999C64.4531 28.3999 62.5049 27.689 61.0898 26.2671C59.6748 24.8452 58.9673 22.897 58.9673 20.4224C58.9673 17.9409 59.6748 15.9893 61.0898 14.5674C62.5049 13.1455 64.4531 12.4346 66.9346 12.4346C69.4092 12.4346 71.3574 13.1455 72.7793 14.5674C74.2012 15.9893 74.9121 17.9409 74.9121 20.4224ZM66.9346 26.9336C68.9375 26.9336 70.5063 26.356 71.6411 25.2007C72.7827 24.0454 73.3535 22.4526 73.3535 20.4224C73.3535 18.3853 72.7827 16.7925 71.6411 15.644C70.5063 14.4888 68.9375 13.9111 66.9346 13.9111C64.9248 13.9111 63.3491 14.4888 62.2075 15.644C61.0728 16.7925 60.5054 18.3853 60.5054 20.4224C60.5054 22.4526 61.0728 24.0454 62.2075 25.2007C63.3491 26.356 64.9248 26.9336 66.9346 26.9336ZM77.7729 28V12.8345H80.1929L86.5913 26.5952L93.082 12.8345H95.3071V28H93.8203L93.8818 14.1367L87.4526 28H85.7095L79.1162 14.1367L79.27 28H77.7729ZM98.896 28V12.8345H110.555V14.2495H100.414V19.561H109.775V20.9863H100.414V26.5747H110.555V28H98.896ZM111.693 28L117.917 20.207L112.134 12.8345H114.072L118.922 19.1816L123.792 12.8345H125.679L119.783 20.1865L125.977 28H123.998L118.86 21.2427L113.672 28H111.693ZM129.432 20.3096H133.821C135.427 20.3096 136.538 20.084 137.153 19.6328C137.769 19.1816 138.076 18.4023 138.076 17.2949C138.076 16.1738 137.765 15.3877 137.143 14.9365C136.528 14.4785 135.42 14.2495 133.821 14.2495H129.432V20.3096ZM127.915 28V12.8345H134.087C135.981 12.8345 137.386 13.2036 138.302 13.9419C139.218 14.6733 139.676 15.7979 139.676 17.3154C139.676 18.8262 139.218 19.9507 138.302 20.689C137.386 21.4204 135.981 21.7861 134.087 21.7861H129.432V28H127.915ZM143.275 21.8477H150.227L146.761 14.0957L143.275 21.8477ZM138.907 28L145.9 12.8345H147.643L154.554 28H153.026L150.904 23.314H142.608L140.465 28H138.907ZM160.009 28V21.4478L153.478 12.8345H155.405L160.758 20.2275L166.182 12.8345H168.048L161.517 21.4478V28H160.009Z"/>
</mask>
<path d="M55.4092 17.7974C55.1152 16.5532 54.4897 15.5962 53.5327 14.9263C52.5757 14.2495 51.3623 13.9111 49.8926 13.9111C47.9033 13.9111 46.3379 14.4922 45.1963 15.6543C44.0547 16.8096 43.4839 18.3989 43.4839 20.4224C43.4839 22.3979 44.0376 23.9736 45.145 25.1494C46.2524 26.3252 47.7358 26.9131 49.5952 26.9131C51.1265 26.9131 52.4287 26.4995 53.502 25.6724C54.582 24.8384 55.2759 23.7173 55.5835 22.3091H57.1934C56.8447 24.1821 55.9937 25.6655 54.6401 26.7593C53.2866 27.853 51.6187 28.3999 49.6362 28.3999C47.3052 28.3999 45.439 27.6753 44.0376 26.2261C42.6431 24.7769 41.9458 22.8423 41.9458 20.4224C41.9458 17.9409 42.6533 15.9893 44.0684 14.5674C45.4834 13.1455 47.4316 12.4346 49.9131 12.4346C51.8682 12.4346 53.4678 12.9097 54.7119 13.8599C55.9561 14.8101 56.7012 16.1226 56.9473 17.7974H55.4092ZM74.9121 20.4224C74.9121 22.897 74.2012 24.8452 72.7793 26.2671C71.3574 27.689 69.4092 28.3999 66.9346 28.3999C64.4531 28.3999 62.5049 27.689 61.0898 26.2671C59.6748 24.8452 58.9673 22.897 58.9673 20.4224C58.9673 17.9409 59.6748 15.9893 61.0898 14.5674C62.5049 13.1455 64.4531 12.4346 66.9346 12.4346C69.4092 12.4346 71.3574 13.1455 72.7793 14.5674C74.2012 15.9893 74.9121 17.9409 74.9121 20.4224ZM66.9346 26.9336C68.9375 26.9336 70.5063 26.356 71.6411 25.2007C72.7827 24.0454 73.3535 22.4526 73.3535 20.4224C73.3535 18.3853 72.7827 16.7925 71.6411 15.644C70.5063 14.4888 68.9375 13.9111 66.9346 13.9111C64.9248 13.9111 63.3491 14.4888 62.2075 15.644C61.0728 16.7925 60.5054 18.3853 60.5054 20.4224C60.5054 22.4526 61.0728 24.0454 62.2075 25.2007C63.3491 26.356 64.9248 26.9336 66.9346 26.9336ZM77.7729 28V12.8345H80.1929L86.5913 26.5952L93.082 12.8345H95.3071V28H93.8203L93.8818 14.1367L87.4526 28H85.7095L79.1162 14.1367L79.27 28H77.7729ZM98.896 28V12.8345H110.555V14.2495H100.414V19.561H109.775V20.9863H100.414V26.5747H110.555V28H98.896ZM111.693 28L117.917 20.207L112.134 12.8345H114.072L118.922 19.1816L123.792 12.8345H125.679L119.783 20.1865L125.977 28H123.998L118.86 21.2427L113.672 28H111.693ZM129.432 20.3096H133.821C135.427 20.3096 136.538 20.084 137.153 19.6328C137.769 19.1816 138.076 18.4023 138.076 17.2949C138.076 16.1738 137.765 15.3877 137.143 14.9365C136.528 14.4785 135.42 14.2495 133.821 14.2495H129.432V20.3096ZM127.915 28V12.8345H134.087C135.981 12.8345 137.386 13.2036 138.302 13.9419C139.218 14.6733 139.676 15.7979 139.676 17.3154C139.676 18.8262 139.218 19.9507 138.302 20.689C137.386 21.4204 135.981 21.7861 134.087 21.7861H129.432V28H127.915ZM143.275 21.8477H150.227L146.761 14.0957L143.275 21.8477ZM138.907 28L145.9 12.8345H147.643L154.554 28H153.026L150.904 23.314H142.608L140.465 28H138.907ZM160.009 28V21.4478L153.478 12.8345H155.405L160.758 20.2275L166.182 12.8345H168.048L161.517 21.4478V28H160.009Z" fill="white"/>
<path d="M55.4092 17.7974L54.436 18.0273L54.6179 18.7974H55.4092V17.7974ZM53.5327 14.9263L52.9553 15.7428L52.9593 15.7455L53.5327 14.9263ZM45.1963 15.6543L45.9076 16.3572L45.9097 16.3551L45.1963 15.6543ZM53.502 25.6724L54.1124 26.4644L54.1131 26.4639L53.502 25.6724ZM55.5835 22.3091V21.3091H54.7784L54.6065 22.0957L55.5835 22.3091ZM57.1934 22.3091L58.1765 22.4921L58.3967 21.3091H57.1934V22.3091ZM44.0376 26.2261L43.317 26.9195L43.3187 26.9212L44.0376 26.2261ZM56.9473 17.7974V18.7974H58.1049L57.9366 17.652L56.9473 17.7974ZM56.3824 17.5674C56.0378 16.1088 55.2839 14.9314 54.1062 14.107L52.9593 15.7455C53.6956 16.261 54.1927 16.9976 54.436 18.0273L56.3824 17.5674ZM54.1101 14.1098C52.9456 13.2864 51.5162 12.9111 49.8926 12.9111V14.9111C51.2084 14.9111 52.2057 15.2127 52.9553 15.7428L54.1101 14.1098ZM49.8926 12.9111C47.6983 12.9111 45.8527 13.5591 44.4829 14.9535L45.9097 16.3551C46.8231 15.4253 48.1083 14.9111 49.8926 14.9111V12.9111ZM44.485 14.9514C43.1154 16.3374 42.4839 18.2041 42.4839 20.4224H44.4839C44.4839 18.5938 44.994 17.2817 45.9076 16.3572L44.485 14.9514ZM42.4839 20.4224C42.4839 22.5929 43.0977 24.4343 44.4171 25.835L45.873 24.4638C44.9775 23.513 44.4839 22.203 44.4839 20.4224H42.4839ZM44.4171 25.835C45.7426 27.2424 47.5058 27.9131 49.5952 27.9131V25.9131C47.9658 25.9131 46.7623 25.408 45.873 24.4638L44.4171 25.835ZM49.5952 27.9131C51.3171 27.9131 52.8417 27.4437 54.1124 26.4644L52.8915 24.8803C52.0157 25.5553 50.9358 25.9131 49.5952 25.9131V27.9131ZM54.1131 26.4639C55.3903 25.4777 56.2057 24.1464 56.5605 22.5225L54.6065 22.0957C54.346 23.2882 53.7737 24.1991 52.8908 24.8809L54.1131 26.4639ZM55.5835 23.3091H57.1934V21.3091H55.5835V23.3091ZM56.2102 22.1261C55.9008 23.7888 55.1618 25.052 54.0116 25.9815L55.2687 27.5371C56.8255 26.279 57.7887 24.5754 58.1765 22.4921L56.2102 22.1261ZM54.0116 25.9815C52.8605 26.9117 51.4235 27.3999 49.6362 27.3999V29.3999C51.8138 29.3999 53.7127 28.7944 55.2687 27.5371L54.0116 25.9815ZM49.6362 27.3999C47.5301 27.3999 45.9396 26.7545 44.7565 25.5309L43.3187 26.9212C44.9383 28.5961 47.0802 29.3999 49.6362 29.3999V27.3999ZM44.7582 25.5327C43.5782 24.3065 42.9458 22.6396 42.9458 20.4224H40.9458C40.9458 23.045 41.7079 25.2472 43.317 26.9195L44.7582 25.5327ZM42.9458 20.4224C42.9458 18.1389 43.5907 16.465 44.7772 15.2728L43.3596 13.862C41.7159 15.5136 40.9458 17.7429 40.9458 20.4224H42.9458ZM44.7772 15.2728C45.9621 14.0821 47.6308 13.4346 49.9131 13.4346V11.4346C47.2325 11.4346 45.0047 12.2089 43.3596 13.862L44.7772 15.2728ZM49.9131 13.4346C51.7044 13.4346 53.0747 13.8677 54.1049 14.6546L55.3189 13.0651C53.8609 11.9516 52.032 11.4346 49.9131 11.4346V13.4346ZM54.1049 14.6546C55.124 15.4329 55.7463 16.5029 55.9579 17.9427L57.9366 17.652C57.656 15.7422 56.7881 14.1872 55.3189 13.0651L54.1049 14.6546ZM56.9473 16.7974H55.4092V18.7974H56.9473V16.7974ZM71.6411 25.2007L70.9298 24.4978L70.9277 24.4999L71.6411 25.2007ZM71.6411 15.644L70.9277 16.3448L70.9319 16.349L71.6411 15.644ZM62.2075 15.644L61.4962 14.9412L61.4962 14.9412L62.2075 15.644ZM62.2075 25.2007L61.4941 25.9014L61.4962 25.9036L62.2075 25.2007ZM73.9121 20.4224C73.9121 22.6967 73.2651 24.3671 72.0722 25.56L73.4864 26.9742C75.1372 25.3234 75.9121 23.0972 75.9121 20.4224H73.9121ZM72.0722 25.56C70.8793 26.7529 69.2089 27.3999 66.9346 27.3999V29.3999C69.6095 29.3999 71.8356 28.625 73.4864 26.9742L72.0722 25.56ZM66.9346 27.3999C64.6523 27.3999 62.9836 26.7523 61.7987 25.5617L60.381 26.9725C62.0262 28.6256 64.254 29.3999 66.9346 29.3999V27.3999ZM61.7987 25.5617C60.6117 24.369 59.9673 22.6981 59.9673 20.4224H57.9673C57.9673 23.0959 58.7379 25.3214 60.381 26.9725L61.7987 25.5617ZM59.9673 20.4224C59.9673 18.1389 60.6122 16.465 61.7987 15.2728L60.381 13.862C58.7374 15.5136 57.9673 17.7429 57.9673 20.4224H59.9673ZM61.7987 15.2728C62.9836 14.0821 64.6523 13.4346 66.9346 13.4346V11.4346C64.254 11.4346 62.0262 12.2089 60.381 13.862L61.7987 15.2728ZM66.9346 13.4346C69.2089 13.4346 70.8793 14.0816 72.0722 15.2745L73.4864 13.8603C71.8356 12.2095 69.6095 11.4346 66.9346 11.4346V13.4346ZM72.0722 15.2745C73.2646 16.4669 73.9121 18.1403 73.9121 20.4224H75.9121C75.9121 17.7415 75.1377 15.5116 73.4864 13.8603L72.0722 15.2745ZM66.9346 27.9336C69.1383 27.9336 70.9892 27.2915 72.3545 25.9014L70.9277 24.4999C70.0235 25.4204 68.7367 25.9336 66.9346 25.9336V27.9336ZM72.3524 25.9036C73.7226 24.517 74.3535 22.6464 74.3535 20.4224H72.3535C72.3535 22.2589 71.8428 23.5739 70.9298 24.4978L72.3524 25.9036ZM74.3535 20.4224C74.3535 18.1928 73.7233 16.3203 72.3503 14.9391L70.9319 16.349C71.8421 17.2647 72.3535 18.5777 72.3535 20.4224H74.3535ZM72.3545 14.9433C70.9892 13.5533 69.1383 12.9111 66.9346 12.9111V14.9111C68.7367 14.9111 70.0235 15.4243 70.9277 16.3448L72.3545 14.9433ZM66.9346 12.9111C64.7249 12.9111 62.8683 13.5527 61.4962 14.9412L62.9188 16.3469C63.83 15.4249 65.1247 14.9111 66.9346 14.9111V12.9111ZM61.4962 14.9412C60.1312 16.3227 59.5054 18.1945 59.5054 20.4224H61.5054C61.5054 18.576 62.0144 17.2623 62.9188 16.3469L61.4962 14.9412ZM59.5054 20.4224C59.5054 22.6448 60.1318 24.5145 61.4941 25.9014L62.9209 24.4999C62.0137 23.5763 61.5054 22.2605 61.5054 20.4224H59.5054ZM61.4962 25.9036C62.8683 27.2921 64.7249 27.9336 66.9346 27.9336V25.9336C65.1247 25.9336 63.83 25.4199 62.9188 24.4978L61.4962 25.9036ZM77.7729 28H76.7729V29H77.7729V28ZM77.7729 12.8345V11.8345H76.7729V12.8345H77.7729ZM80.1929 12.8345L81.0996 12.4128L80.8307 11.8345H80.1929V12.8345ZM86.5913 26.5952L85.6845 27.0168L86.5848 28.953L87.4957 27.0218L86.5913 26.5952ZM93.082 12.8345V11.8345H92.4481L92.1776 12.4079L93.082 12.8345ZM95.3071 12.8345H96.3071V11.8345H95.3071V12.8345ZM95.3071 28V29H96.3071V28H95.3071ZM93.8203 28L92.8203 27.9956L92.8159 29H93.8203V28ZM93.8818 14.1367L94.8818 14.1412L92.9746 13.716L93.8818 14.1367ZM87.4526 28V29H88.0912L88.3598 28.4207L87.4526 28ZM85.7095 28L84.8064 28.4295L85.0777 29H85.7095V28ZM79.1162 14.1367L80.0193 13.7072L78.1163 14.1478L79.1162 14.1367ZM79.27 28V29H80.2812L80.27 27.9889L79.27 28ZM78.7729 28V12.8345H76.7729V28H78.7729ZM77.7729 13.8345H80.1929V11.8345H77.7729V13.8345ZM79.2861 13.2561L85.6845 27.0168L87.4981 26.1736L81.0996 12.4128L79.2861 13.2561ZM87.4957 27.0218L93.9865 13.2611L92.1776 12.4079L85.6869 26.1686L87.4957 27.0218ZM93.082 13.8345H95.3071V11.8345H93.082V13.8345ZM94.3071 12.8345V28H96.3071V12.8345H94.3071ZM95.3071 27H93.8203V29H95.3071V27ZM94.8203 28.0044L94.8818 14.1412L92.8818 14.1323L92.8203 27.9956L94.8203 28.0044ZM92.9746 13.716L86.5454 27.5793L88.3598 28.4207L94.789 14.5574L92.9746 13.716ZM87.4526 27H85.7095V29H87.4526V27ZM86.6125 27.5705L80.0193 13.7072L78.2131 14.5662L84.8064 28.4295L86.6125 27.5705ZM78.1163 14.1478L78.2701 28.0111L80.27 27.9889L80.1161 14.1256L78.1163 14.1478ZM79.27 27H77.7729V29H79.27V27ZM98.896 28H97.896V29H98.896V28ZM98.896 12.8345V11.8345H97.896V12.8345H98.896ZM110.555 12.8345H111.555V11.8345H110.555V12.8345ZM110.555 14.2495V15.2495H111.555V14.2495H110.555ZM100.414 14.2495V13.2495H99.4136V14.2495H100.414ZM100.414 19.561H99.4136V20.561H100.414V19.561ZM109.775 19.561H110.775V18.561H109.775V19.561ZM109.775 20.9863V21.9863H110.775V20.9863H109.775ZM100.414 20.9863V19.9863H99.4136V20.9863H100.414ZM100.414 26.5747H99.4136V27.5747H100.414V26.5747ZM110.555 26.5747H111.555V25.5747H110.555V26.5747ZM110.555 28V29H111.555V28H110.555ZM99.896 28V12.8345H97.896V28H99.896ZM98.896 13.8345H110.555V11.8345H98.896V13.8345ZM109.555 12.8345V14.2495H111.555V12.8345H109.555ZM110.555 13.2495H100.414V15.2495H110.555V13.2495ZM99.4136 14.2495V19.561H101.414V14.2495H99.4136ZM100.414 20.561H109.775V18.561H100.414V20.561ZM108.775 19.561V20.9863H110.775V19.561H108.775ZM109.775 19.9863H100.414V21.9863H109.775V19.9863ZM99.4136 20.9863V26.5747H101.414V20.9863H99.4136ZM100.414 27.5747H110.555V25.5747H100.414V27.5747ZM109.555 26.5747V28H111.555V26.5747H109.555ZM110.555 27H98.896V29H110.555V27ZM111.693 28L110.911 27.3759L109.614 29H111.693V28ZM117.917 20.207L118.698 20.8311L119.192 20.2126L118.704 19.5898L117.917 20.207ZM112.134 12.8345V11.8345H110.078L111.347 13.4517L112.134 12.8345ZM114.072 12.8345L114.866 12.2273L114.566 11.8345H114.072V12.8345ZM118.922 19.1816L118.127 19.7888L118.92 20.8264L119.715 19.7904L118.922 19.1816ZM123.792 12.8345V11.8345H123.299L122.999 12.2257L123.792 12.8345ZM125.679 12.8345L126.459 13.4601L127.763 11.8345H125.679V12.8345ZM119.783 20.1865L119.003 19.5609L118.504 20.1829L119 20.8077L119.783 20.1865ZM125.977 28V29H128.045L126.76 27.3788L125.977 28ZM123.998 28L123.201 28.6052L123.502 29H123.998V28ZM118.86 21.2427L119.656 20.6375L118.864 19.5955L118.067 20.6337L118.86 21.2427ZM113.672 28V29H114.165L114.465 28.609L113.672 28ZM112.474 28.6241L118.698 20.8311L117.136 19.583L110.911 27.3759L112.474 28.6241ZM118.704 19.5898L112.921 12.2173L111.347 13.4517L117.13 20.8242L118.704 19.5898ZM112.134 13.8345H114.072V11.8345H112.134V13.8345ZM113.277 13.4416L118.127 19.7888L119.716 18.5745L114.866 12.2273L113.277 13.4416ZM119.715 19.7904L124.586 13.4433L122.999 12.2257L118.129 18.5729L119.715 19.7904ZM123.792 13.8345H125.679V11.8345H123.792V13.8345ZM124.899 12.2088L119.003 19.5609L120.563 20.8121L126.459 13.4601L124.899 12.2088ZM119 20.8077L125.193 28.6212L126.76 27.3788L120.567 19.5653L119 20.8077ZM125.977 27H123.998V29H125.977V27ZM124.794 27.3948L119.656 20.6375L118.064 21.8479L123.201 28.6052L124.794 27.3948ZM118.067 20.6337L112.879 27.391L114.465 28.609L119.654 21.8517L118.067 20.6337ZM113.672 27H111.693V29H113.672V27ZM129.432 20.3096H128.432V21.3096H129.432V20.3096ZM137.143 14.9365L136.546 15.7387L136.556 15.746L137.143 14.9365ZM129.432 14.2495V13.2495H128.432V14.2495H129.432ZM127.915 28H126.915V29H127.915V28ZM127.915 12.8345V11.8345H126.915V12.8345H127.915ZM138.302 13.9419L137.674 14.7205L137.678 14.7233L138.302 13.9419ZM138.302 20.689L138.926 21.4704L138.929 21.4676L138.302 20.689ZM129.432 21.7861V20.7861H128.432V21.7861H129.432ZM129.432 28V29H130.432V28H129.432ZM129.432 21.3096H133.821V19.3096H129.432V21.3096ZM133.821 21.3096C135.449 21.3096 136.85 21.0952 137.745 20.4392L136.562 18.8264C136.226 19.0728 135.406 19.3096 133.821 19.3096V21.3096ZM137.745 20.4392C138.719 19.7251 139.076 18.5692 139.076 17.2949H137.076C137.076 18.2355 136.819 18.6382 136.562 18.8264L137.745 20.4392ZM139.076 17.2949C139.076 16.0085 138.716 14.8418 137.73 14.127L136.556 15.746C136.815 15.9336 137.076 16.3392 137.076 17.2949H139.076ZM137.74 14.1344C136.845 13.4678 135.444 13.2495 133.821 13.2495V15.2495C135.396 15.2495 136.211 15.4892 136.546 15.7387L137.74 14.1344ZM133.821 13.2495H129.432V15.2495H133.821V13.2495ZM128.432 14.2495V20.3096H130.432V14.2495H128.432ZM128.915 28V12.8345H126.915V28H128.915ZM127.915 13.8345H134.087V11.8345H127.915V13.8345ZM134.087 13.8345C135.882 13.8345 137.016 14.1899 137.674 14.7205L138.929 13.1633C137.756 12.2174 136.08 11.8345 134.087 11.8345V13.8345ZM137.678 14.7233C138.289 15.2117 138.676 16.0049 138.676 17.3154H140.676C140.676 15.5908 140.146 14.1349 138.926 13.1605L137.678 14.7233ZM138.676 17.3154C138.676 18.6169 138.291 19.4136 137.674 19.9104L138.929 21.4676C140.145 20.4878 140.676 19.0354 140.676 17.3154H138.676ZM137.678 19.9075C137.019 20.4336 135.884 20.7861 134.087 20.7861V22.7861C136.078 22.7861 137.753 22.4072 138.926 21.4704L137.678 19.9075ZM134.087 20.7861H129.432V22.7861H134.087V20.7861ZM128.432 21.7861V28H130.432V21.7861H128.432ZM129.432 27H127.915V29H129.432V27ZM143.275 21.8477L142.363 21.4375L141.729 22.8477H143.275V21.8477ZM150.227 21.8477V22.8477H151.77L151.14 21.4395L150.227 21.8477ZM146.761 14.0957L147.674 13.6875L146.764 11.6517L145.849 13.6855L146.761 14.0957ZM138.907 28L137.999 27.5813L137.344 29H138.907V28ZM145.9 12.8345V11.8345H145.26L144.992 12.4157L145.9 12.8345ZM147.643 12.8345L148.553 12.4198L148.286 11.8345H147.643V12.8345ZM154.554 28V29H156.109L155.464 27.5853L154.554 28ZM153.026 28L152.115 28.4126L152.382 29H153.026V28ZM150.904 23.314L151.815 22.9014L151.549 22.314H150.904V23.314ZM142.608 23.314V22.314H141.966L141.699 22.8981L142.608 23.314ZM140.465 28V29H141.108L141.375 28.4159L140.465 28ZM143.275 22.8477H150.227V20.8477H143.275V22.8477ZM151.14 21.4395L147.674 13.6875L145.848 14.5039L149.314 22.2558L151.14 21.4395ZM145.849 13.6855L142.363 21.4375L144.187 22.2578L147.673 14.5059L145.849 13.6855ZM139.815 28.4187L146.808 13.2532L144.992 12.4157L137.999 27.5813L139.815 28.4187ZM145.9 13.8345H147.643V11.8345H145.9V13.8345ZM146.733 13.2492L153.644 28.4147L155.464 27.5853L148.553 12.4198L146.733 13.2492ZM154.554 27H153.026V29H154.554V27ZM153.937 27.5874L151.815 22.9014L149.993 23.7266L152.115 28.4126L153.937 27.5874ZM150.904 22.314H142.608V24.314H150.904V22.314ZM141.699 22.8981L139.556 27.5841L141.375 28.4159L143.518 23.7299L141.699 22.8981ZM140.465 27H138.907V29H140.465V27ZM160.009 28H159.009V29H160.009V28ZM160.009 21.4478H161.009V21.1115L160.806 20.8435L160.009 21.4478ZM153.478 12.8345V11.8345H151.464L152.681 13.4387L153.478 12.8345ZM155.405 12.8345L156.215 12.248L155.916 11.8345H155.405V12.8345ZM160.758 20.2275L159.948 20.814L160.752 21.9253L161.564 20.8191L160.758 20.2275ZM166.182 12.8345V11.8345H165.676L165.376 12.2429L166.182 12.8345ZM168.048 12.8345L168.845 13.4387L170.062 11.8345H168.048V12.8345ZM161.517 21.4478L160.72 20.8435L160.517 21.1115V21.4478H161.517ZM161.517 28V29H162.517V28H161.517ZM161.009 28V21.4478H159.009V28H161.009ZM160.806 20.8435L154.274 12.2302L152.681 13.4387L159.212 22.052L160.806 20.8435ZM153.478 13.8345H155.405V11.8345H153.478V13.8345ZM154.595 13.4209L159.948 20.814L161.568 19.6411L156.215 12.248L154.595 13.4209ZM161.564 20.8191L166.988 13.426L165.376 12.2429L159.952 19.636L161.564 20.8191ZM166.182 13.8345H168.048V11.8345H166.182V13.8345ZM167.252 12.2302L160.72 20.8435L162.313 22.052L168.845 13.4387L167.252 12.2302ZM160.517 21.4478V28H162.517V21.4478H160.517ZM161.517 27H160.009V29H161.517V27Z" fill="white" mask="url(#path-4-inside-1_524_198)"/>
</svg>
