<svg width="63" height="62" viewBox="0 0 63 62" fill="none" xmlns="http://www.w3.org/2000/svg">
<path d="M51.19 25.1838C51.19 30.7412 49.3565 35.8748 46.2679 40.0398L61.8464 55.3802C63.3845 56.8936 63.3845 59.3515 61.8464 60.8649C60.3082 62.3784 57.8102 62.3784 56.2721 60.8649L40.6936 45.5246C36.4606 48.5757 31.2431 50.3676 25.595 50.3676C11.4562 50.3676 0 39.0954 0 25.1838C0 11.2722 11.4562 0 25.595 0C39.7338 0 51.19 11.2722 51.19 25.1838ZM28.0561 12.5919C28.0561 11.2601 26.9486 10.1704 25.595 10.1704C24.2414 10.1704 23.1339 11.2601 23.1339 12.5919V14.287C22.1987 14.4928 21.2635 14.8197 20.4022 15.3161C18.6917 16.321 17.2151 18.0766 17.2274 20.6314C17.2397 23.0892 18.704 24.639 20.2668 25.5591C21.6204 26.3582 23.3062 26.8668 24.6475 27.2542L24.8567 27.3147C26.4071 27.7748 27.5392 28.1381 28.3022 28.6103C28.9297 28.9977 29.0159 29.2641 29.0282 29.6031C29.0405 30.2085 28.8067 30.5717 28.3022 30.8744C27.6869 31.2497 26.7148 31.4798 25.6688 31.4434C24.3029 31.395 23.0232 30.9712 21.3497 30.4143C21.0667 30.3174 20.7713 30.2206 20.4637 30.1237C19.1716 29.6999 17.7811 30.3901 17.3505 31.6493C16.9198 32.9085 17.6212 34.2887 18.9009 34.7125C19.1347 34.7851 19.3931 34.8699 19.6515 34.9668C20.6729 35.3179 21.8542 35.7174 23.1216 35.9838V37.7757C23.1216 39.1076 24.2291 40.1972 25.5827 40.1972C26.9363 40.1972 28.0438 39.1076 28.0438 37.7757V36.1049C29.0282 35.899 30.0126 35.56 30.8986 35.0152C32.6582 33.9376 33.9872 32.0972 33.9503 29.5668C33.9134 27.1089 32.5106 25.5228 30.9232 24.53C29.5081 23.6583 27.7361 23.1255 26.3579 22.7139L26.2718 22.6896C24.6967 22.2174 23.5769 21.8784 22.7894 21.4183C22.1495 21.043 22.1372 20.8251 22.1372 20.6071C22.1372 20.1592 22.3095 19.8201 22.9001 19.4811C23.5646 19.0937 24.5737 18.8636 25.5458 18.8757C26.7271 18.8879 28.0314 19.1421 29.385 19.5053C30.7017 19.8444 32.043 19.0816 32.3998 17.7861C32.7567 16.4906 31.9691 15.1708 30.6525 14.8197C29.8526 14.6139 28.9666 14.408 28.0561 14.2506V12.5919Z" fill="white"/>
</svg>
