<svg width="39" height="38" viewBox="0 0 39 38" fill="none" xmlns="http://www.w3.org/2000/svg">
<path d="M33.1587 5.52187C29.5112 1.95937 24.6536 0 19.4913 0C8.83594 0 0.165402 8.44821 0.165402 18.8304C0.165402 22.1469 1.05335 25.3871 2.74219 28.2455L0 38L10.2462 35.379C13.0667 36.8804 16.2442 37.6692 19.4826 37.6692H19.4913C30.1379 37.6692 39 29.221 39 18.8388C39 13.8089 36.8063 9.08437 33.1587 5.52187ZM19.4913 34.4969C16.6011 34.4969 13.7719 33.742 11.3083 32.317L10.725 31.9777L4.64866 33.5299L6.26786 27.7536L5.88482 27.1598C4.27433 24.6661 3.42991 21.7906 3.42991 18.8304C3.42991 10.204 10.6379 3.1808 19.5 3.1808C23.7917 3.1808 27.8223 4.80937 30.8518 7.76964C33.8813 10.7299 35.7442 14.6571 35.7355 18.8388C35.7355 27.4737 28.3446 34.4969 19.4913 34.4969ZM28.3011 22.7746C27.8223 22.5371 25.4458 21.4004 25.0018 21.2478C24.5578 21.0866 24.2357 21.0103 23.9136 21.4853C23.5915 21.9603 22.6688 23.0121 22.3815 23.3344C22.1029 23.6482 21.8156 23.6906 21.3368 23.4531C18.4989 22.0705 16.6359 20.9848 14.7643 17.8549C14.2681 17.0237 15.2605 17.083 16.1833 15.2848C16.34 14.971 16.2616 14.6996 16.1397 14.4621C16.0179 14.2246 15.0516 11.9089 14.6511 10.9674C14.2594 10.0513 13.8589 10.1786 13.5629 10.1616C13.2844 10.1446 12.9623 10.1446 12.6402 10.1446C12.3181 10.1446 11.7958 10.2634 11.3518 10.7299C10.9078 11.2049 9.66295 12.3415 9.66295 14.6571C9.66295 16.9728 11.3953 19.2121 11.6304 19.5259C11.8741 19.8397 15.0342 24.5897 19.883 26.6339C22.9473 27.9232 24.1487 28.0335 25.6808 27.8129C26.6123 27.6772 28.5362 26.6763 28.9366 25.5737C29.3371 24.471 29.3371 23.5295 29.2152 23.3344C29.102 23.1223 28.7799 23.0036 28.3011 22.7746Z" fill="white"/>
</svg>
